<svg viewBox="0 0 434 56" fill="none" xmlns="http://www.w3.org/2000/svg">
<path d="M27.2646 3.42564C26.1638 3.64351 25.4873 3.8843 24.2833 4.5035C23.4577 4.92776 23.022 5.26029 22.1047 6.15467L20.958 7.27839L21.5199 7.84025L22.0817 8.41357L23.0105 7.46185C24.6388 5.78774 26.3817 4.99656 28.6406 4.90482C29.535 4.85896 30.1541 4.90482 30.7619 5.03096C32.413 5.38642 34.3853 6.556 35.3943 7.79438L35.8874 8.40211L36.4378 7.85172C37.0799 7.19812 37.0799 7.19812 35.9562 6.12027C34.649 4.85896 33.445 4.17097 31.7136 3.65497C30.4637 3.28805 28.48 3.18485 27.2646 3.42564Z" fill="#383081"/>
<path d="M27.2084 6.19193C25.9356 6.53593 24.9151 7.14365 23.9175 8.1527C23.3901 8.6687 22.9658 9.13882 22.9658 9.19616C22.9658 9.25349 23.2181 9.54015 23.5162 9.83828L24.0781 10.3887L24.5482 9.76948C25.7522 8.17564 27.9193 7.29272 29.8572 7.61378C31.3478 7.85457 32.6435 8.6343 33.5265 9.80388L33.9393 10.3543L34.4782 9.81535C34.7649 9.51722 35.0056 9.23055 35.0056 9.16176C35.0056 8.92096 33.7329 7.64818 33.0334 7.18952C31.7492 6.35246 30.9121 6.1002 29.2724 6.0658C28.2519 6.0314 27.6556 6.0658 27.2084 6.19193Z" fill="#383081"/>
<path d="M28.3325 8.66872C27.0712 8.84072 25.615 9.81537 25.0875 10.8244L24.8926 11.2028L25.443 11.7647C25.7526 12.0743 26.0278 12.3265 26.0736 12.3265C26.1195 12.3265 26.1883 12.1889 26.2227 12.0284C26.2686 11.8679 26.5782 11.4551 26.9107 11.1226C27.3923 10.641 27.6675 10.469 28.1835 10.3199C29.5938 9.90711 31.0616 10.5378 31.7151 11.8335L31.9674 12.3265L32.5751 11.7188L33.1829 11.0996L32.7471 10.5263C31.6463 9.07005 30.1213 8.42793 28.3325 8.66872Z" fill="#383081"/>
<path d="M28.6175 11.8793C28.2047 12.0054 27.6658 12.5787 27.6543 12.9342C27.6085 13.7368 27.7575 14.0808 28.2735 14.3904C29.2482 14.9867 30.4177 14.3446 30.4177 13.2208C30.4063 12.2691 29.5463 11.627 28.6175 11.8793Z" fill="#383081"/>
<path d="M23.5969 19.5606C20.6271 21.4525 18.1733 23.0464 18.1159 23.0923C18.0701 23.1381 18.0471 24.6058 18.0586 26.3487L18.093 29.525L21.9916 27.0597L25.8902 24.5944L25.9246 38.4115L25.9475 52.2286H28.8142H31.6808V38.3656C31.6808 30.7289 31.7152 24.4682 31.7725 24.4453C31.8184 24.4224 33.676 25.5461 35.9005 26.9565C38.125 28.3668 39.9711 29.525 39.994 29.525C40.0284 29.525 40.0513 28.0916 40.0513 26.3373V23.1496L34.5589 19.6294C31.5317 17.6915 29.0435 16.1092 29.0206 16.1092C28.9976 16.1092 26.5667 17.6571 23.5969 19.5606Z" fill="#CF4A0E"/>
<path d="M0.261719 41.5649L0.261719 52.2288H3.35768H6.45363L6.45363 41.5649V30.9011H3.35768H0.261719L0.261719 41.5649Z" fill="#383081"/>
<path d="M8.74609 41.5648V52.2286H11.8421H14.938V41.5648V30.9009H11.8421H8.74609L8.74609 41.5648Z" fill="#383081"/>
<path d="M17.2314 41.5648V52.2286H20.3274H23.4234V41.5648V30.9009H20.3274H17.2314V41.5648Z" fill="#383081"/>
<path d="M40.0273 36.7514L39.9929 42.4846L36.6217 37.6916C34.7642 35.0658 33.2047 32.8642 33.1474 32.7954C33.1015 32.7381 33.0557 34.8938 33.0557 37.577V42.4502L36.53 47.1974L40.0044 51.9445L43.1233 51.9789L46.2421 52.0018V41.51V31.0181H43.1462H40.0502L40.0273 36.7514Z" fill="#383081"/>
<path d="M78.2762 21.4099H76.4587V7.98423H78.2762V21.4099ZM82.7445 13.2964C82.9506 13.0653 83.1692 12.8561 83.4003 12.6687C83.6314 12.4813 83.875 12.322 84.1311 12.1909C84.3934 12.0535 84.6682 11.9504 84.9555 11.8817C85.2491 11.8068 85.5645 11.7693 85.9018 11.7693C86.4202 11.7693 86.8762 11.8567 87.2697 12.0316C87.6694 12.2002 88.0005 12.4438 88.2628 12.7624C88.5314 13.0747 88.7344 13.4526 88.8718 13.896C89.0092 14.3395 89.0779 14.8298 89.0779 15.3669V21.4099H87.4008V15.3669C87.4008 14.6487 87.2353 14.0928 86.9043 13.6993C86.5795 13.2995 86.0829 13.0997 85.4146 13.0997C84.9212 13.0997 84.459 13.2183 84.028 13.4557C83.6033 13.693 83.2098 14.0147 82.8475 14.4207V21.4099H81.1705V11.9192H82.173C82.4103 11.9192 82.5571 12.0347 82.6133 12.2658L82.7445 13.2964ZM97.8026 14.1771C97.4903 13.7586 97.153 13.4682 96.7907 13.3058C96.4284 13.1371 96.0225 13.0528 95.5727 13.0528C94.6921 13.0528 94.0144 13.3682 93.5397 13.9991C93.065 14.6299 92.8276 15.5293 92.8276 16.6973C92.8276 17.3157 92.8807 17.8466 92.9869 18.2901C93.0931 18.7273 93.2492 19.0895 93.4554 19.3769C93.6615 19.6579 93.9144 19.864 94.2142 19.9952C94.5141 20.1264 94.8545 20.192 95.2355 20.192C95.7851 20.192 96.2629 20.067 96.6689 19.8172C97.0811 19.5674 97.459 19.2145 97.8026 18.7585V14.1771ZM99.4702 7.60947V21.4099H98.4771C98.2398 21.4099 98.0899 21.2944 98.0274 21.0633L97.8775 19.9109C97.4715 20.3981 97.0093 20.7916 96.4909 21.0914C95.9725 21.3912 95.3729 21.5411 94.6921 21.5411C94.1487 21.5411 93.6552 21.438 93.2118 21.2319C92.7683 21.0195 92.3904 20.7104 92.0781 20.3044C91.7658 19.8984 91.5254 19.3925 91.3567 18.7866C91.1881 18.1808 91.1038 17.4843 91.1038 16.6973C91.1038 15.9978 91.1975 15.3482 91.3848 14.7486C91.5722 14.1427 91.8408 13.6181 92.1906 13.1746C92.5403 12.7312 92.9682 12.3845 93.4741 12.1347C93.9863 11.8786 94.5609 11.7505 95.198 11.7505C95.7789 11.7505 96.2754 11.8505 96.6876 12.0503C97.1061 12.244 97.4778 12.5157 97.8026 12.8654V7.60947H99.4702ZM103.866 11.9192V21.4099H102.198V11.9192H103.866ZM104.222 8.93986C104.222 9.10226 104.187 9.25528 104.119 9.39894C104.056 9.53635 103.969 9.66127 103.856 9.7737C103.75 9.87988 103.622 9.9642 103.472 10.0267C103.328 10.0891 103.175 10.1203 103.013 10.1203C102.851 10.1203 102.698 10.0891 102.554 10.0267C102.417 9.9642 102.295 9.87988 102.189 9.7737C102.082 9.66127 101.998 9.53635 101.936 9.39894C101.873 9.25528 101.842 9.10226 101.842 8.93986C101.842 8.77747 101.873 8.62444 101.936 8.48078C101.998 8.33088 102.082 8.20284 102.189 8.09666C102.295 7.98423 102.417 7.89679 102.554 7.83433C102.698 7.77187 102.851 7.74064 103.013 7.74064C103.175 7.74064 103.328 7.77187 103.472 7.83433C103.622 7.89679 103.75 7.98423 103.856 8.09666C103.969 8.20284 104.056 8.33088 104.119 8.48078C104.187 8.62444 104.222 8.77747 104.222 8.93986ZM111.749 17.1377C110.981 17.1627 110.325 17.2251 109.782 17.3251C109.245 17.4187 108.804 17.5437 108.461 17.6998C108.123 17.856 107.877 18.0402 107.721 18.2526C107.571 18.4649 107.496 18.7023 107.496 18.9646C107.496 19.2145 107.536 19.4299 107.618 19.6111C107.699 19.7922 107.808 19.9421 107.945 20.0608C108.089 20.1732 108.255 20.2575 108.442 20.3137C108.636 20.3637 108.842 20.3887 109.06 20.3887C109.354 20.3887 109.622 20.3606 109.866 20.3044C110.11 20.2419 110.338 20.1545 110.55 20.042C110.769 19.9296 110.975 19.7953 111.168 19.6392C111.368 19.483 111.562 19.305 111.749 19.1052V17.1377ZM106.362 13.2589C106.887 12.753 107.452 12.3751 108.058 12.1253C108.664 11.8755 109.335 11.7505 110.072 11.7505C110.603 11.7505 111.075 11.838 111.487 12.0129C111.899 12.1878 112.246 12.4314 112.527 12.7436C112.808 13.0559 113.02 13.4338 113.164 13.8773C113.308 14.3208 113.379 14.8079 113.379 15.3388V21.4099H112.639C112.477 21.4099 112.352 21.3849 112.265 21.335C112.177 21.2787 112.108 21.1726 112.058 21.0164L111.871 20.117C111.621 20.3481 111.378 20.5542 111.14 20.7353C110.903 20.9102 110.653 21.0601 110.391 21.1851C110.128 21.3037 109.847 21.3943 109.548 21.4568C109.254 21.5255 108.926 21.5598 108.564 21.5598C108.195 21.5598 107.849 21.5098 107.524 21.4099C107.199 21.3037 106.915 21.1476 106.671 20.9415C106.434 20.7353 106.243 20.4761 106.1 20.1638C105.962 19.8453 105.894 19.4705 105.894 19.0396C105.894 18.6648 105.997 18.3057 106.203 17.9621C106.409 17.6124 106.743 17.3032 107.205 17.0346C107.668 16.766 108.27 16.5474 109.014 16.3788C109.757 16.2039 110.669 16.104 111.749 16.079V15.3388C111.749 14.6018 111.59 14.0459 111.271 13.6712C110.953 13.2902 110.488 13.0997 109.875 13.0997C109.463 13.0997 109.117 13.1528 108.835 13.2589C108.561 13.3589 108.32 13.4744 108.114 13.6056C107.914 13.7305 107.739 13.8461 107.589 13.9522C107.446 14.0522 107.302 14.1021 107.158 14.1021C107.046 14.1021 106.949 14.074 106.868 14.0178C106.787 13.9554 106.718 13.8804 106.662 13.793L106.362 13.2589ZM117.494 13.2964C117.7 13.0653 117.918 12.8561 118.15 12.6687C118.381 12.4813 118.624 12.322 118.88 12.1909C119.143 12.0535 119.417 11.9504 119.705 11.8817C119.998 11.8068 120.314 11.7693 120.651 11.7693C121.169 11.7693 121.625 11.8567 122.019 12.0316C122.419 12.2002 122.75 12.4438 123.012 12.7624C123.281 13.0747 123.484 13.4526 123.621 13.896C123.758 14.3395 123.827 14.8298 123.827 15.3669V21.4099H122.15V15.3669C122.15 14.6487 121.985 14.0928 121.654 13.6993C121.329 13.2995 120.832 13.0997 120.164 13.0997C119.67 13.0997 119.208 13.2183 118.777 13.4557C118.353 13.693 117.959 14.0147 117.597 14.4207V21.4099H115.92V11.9192H116.922C117.16 11.9192 117.306 12.0347 117.363 12.2658L117.494 13.2964ZM133.374 21.4099H131.556V7.98423H133.374V21.4099ZM137.842 13.2964C138.048 13.0653 138.267 12.8561 138.498 12.6687C138.729 12.4813 138.972 12.322 139.228 12.1909C139.491 12.0535 139.766 11.9504 140.053 11.8817C140.346 11.8068 140.662 11.7693 140.999 11.7693C141.518 11.7693 141.974 11.8567 142.367 12.0316C142.767 12.2002 143.098 12.4438 143.36 12.7624C143.629 13.0747 143.832 13.4526 143.969 13.896C144.107 14.3395 144.175 14.8298 144.175 15.3669V21.4099H142.498V15.3669C142.498 14.6487 142.333 14.0928 142.002 13.6993C141.677 13.2995 141.18 13.0997 140.512 13.0997C140.019 13.0997 139.556 13.2183 139.125 13.4557C138.701 13.693 138.307 14.0147 137.945 14.4207V21.4099H136.268V11.9192H137.27C137.508 11.9192 137.654 12.0347 137.711 12.2658L137.842 13.2964ZM152.244 13.4838C152.169 13.6212 152.054 13.6899 151.897 13.6899C151.804 13.6899 151.698 13.6556 151.579 13.5869C151.46 13.5181 151.313 13.4432 151.139 13.362C150.97 13.2746 150.767 13.1965 150.53 13.1278C150.292 13.0528 150.011 13.0153 149.686 13.0153C149.405 13.0153 149.152 13.0528 148.928 13.1278C148.703 13.1965 148.509 13.2933 148.347 13.4182C148.19 13.5431 148.069 13.6899 147.981 13.8586C147.9 14.0209 147.859 14.199 147.859 14.3926C147.859 14.6362 147.928 14.8392 148.066 15.0016C148.209 15.164 148.397 15.3045 148.628 15.4232C148.859 15.5418 149.121 15.648 149.415 15.7417C149.708 15.8292 150.008 15.926 150.314 16.0321C150.626 16.1321 150.929 16.2445 151.223 16.3694C151.516 16.4943 151.779 16.6505 152.01 16.8379C152.241 17.0253 152.425 17.2564 152.563 17.5312C152.706 17.7997 152.778 18.1245 152.778 18.5055C152.778 18.9428 152.7 19.3487 152.544 19.7235C152.388 20.092 152.157 20.4137 151.851 20.6885C151.545 20.9571 151.17 21.1694 150.726 21.3256C150.283 21.4817 149.771 21.5598 149.19 21.5598C148.528 21.5598 147.928 21.4536 147.391 21.2413C146.854 21.0227 146.398 20.7447 146.023 20.4074L146.417 19.7703C146.467 19.6892 146.526 19.6267 146.595 19.583C146.663 19.5392 146.751 19.5174 146.857 19.5174C146.969 19.5174 147.088 19.5611 147.213 19.6486C147.338 19.736 147.488 19.8328 147.663 19.939C147.844 20.0452 148.062 20.142 148.319 20.2294C148.575 20.3169 148.893 20.3606 149.274 20.3606C149.599 20.3606 149.883 20.32 150.127 20.2388C150.37 20.1514 150.573 20.0358 150.736 19.8921C150.898 19.7485 151.017 19.583 151.092 19.3956C151.173 19.2082 151.214 19.0083 151.214 18.796C151.214 18.5336 151.142 18.3182 150.998 18.1495C150.861 17.9746 150.676 17.8279 150.445 17.7092C150.214 17.5843 149.949 17.4781 149.649 17.3906C149.355 17.2969 149.052 17.2001 148.74 17.1002C148.434 17.0003 148.131 16.8878 147.831 16.7629C147.538 16.6318 147.275 16.4694 147.044 16.2757C146.813 16.0821 146.626 15.8448 146.482 15.5637C146.345 15.2764 146.276 14.9297 146.276 14.5237C146.276 14.1615 146.351 13.8148 146.501 13.4838C146.651 13.1465 146.869 12.853 147.157 12.6031C147.444 12.347 147.797 12.144 148.215 11.9941C148.634 11.8442 149.112 11.7693 149.649 11.7693C150.274 11.7693 150.833 11.8692 151.326 12.0691C151.826 12.2627 152.257 12.5313 152.619 12.8748L152.244 13.4838ZM163.63 21.4099H161.962V13.3152H157.071V19.0115C157.071 19.4112 157.168 19.7079 157.362 19.9015C157.555 20.0951 157.805 20.192 158.111 20.192C158.286 20.192 158.436 20.1701 158.561 20.1264C158.692 20.0764 158.805 20.0233 158.898 19.9671C158.992 19.9109 159.07 19.8609 159.132 19.8172C159.201 19.7672 159.261 19.7422 159.31 19.7422C159.398 19.7422 159.476 19.7953 159.545 19.9015L160.032 20.6979C159.745 20.9664 159.398 21.1788 158.992 21.335C158.586 21.4849 158.167 21.5598 157.736 21.5598C156.987 21.5598 156.409 21.3506 156.003 20.9321C155.604 20.5136 155.404 19.9109 155.404 19.1239V13.3152H154.261C154.161 13.3152 154.076 13.287 154.008 13.2308C153.939 13.1684 153.905 13.0747 153.905 12.9498V12.2846L155.46 12.0785L155.844 9.15535C155.863 9.06166 155.903 8.98671 155.966 8.93049C156.034 8.86803 156.122 8.8368 156.228 8.8368H157.071V12.1066H163.63V21.4099ZM164.042 8.87428C164.042 9.03667 164.007 9.1897 163.939 9.33336C163.876 9.47077 163.789 9.59256 163.676 9.69875C163.57 9.80493 163.445 9.88925 163.302 9.95171C163.158 10.0142 163.005 10.0454 162.843 10.0454C162.68 10.0454 162.527 10.0142 162.383 9.95171C162.246 9.88925 162.124 9.80493 162.018 9.69875C161.912 9.59256 161.828 9.47077 161.765 9.33336C161.703 9.1897 161.671 9.03667 161.671 8.87428C161.671 8.71188 161.703 8.55886 161.765 8.4152C161.828 8.2653 161.912 8.13726 162.018 8.03107C162.124 7.91865 162.246 7.8312 162.383 7.76874C162.527 7.70628 162.68 7.67505 162.843 7.67505C163.005 7.67505 163.158 7.70628 163.302 7.76874C163.445 7.8312 163.57 7.91865 163.676 8.03107C163.789 8.13726 163.876 8.2653 163.939 8.4152C164.007 8.55886 164.042 8.71188 164.042 8.87428ZM169.283 21.5598C168.533 21.5598 167.956 21.3506 167.55 20.9321C167.15 20.5136 166.95 19.9109 166.95 19.1239V13.3152H165.807C165.707 13.3152 165.623 13.287 165.554 13.2308C165.485 13.1684 165.451 13.0747 165.451 12.9498V12.2846L167.006 12.0878L167.39 9.15535C167.409 9.06166 167.45 8.98671 167.512 8.93049C167.581 8.86803 167.668 8.8368 167.775 8.8368H168.618V12.1066H171.363V13.3152H168.618V19.0115C168.618 19.4112 168.715 19.7079 168.908 19.9015C169.102 20.0951 169.352 20.192 169.658 20.192C169.833 20.192 169.983 20.1701 170.107 20.1264C170.239 20.0764 170.351 20.0233 170.445 19.9671C170.538 19.9109 170.616 19.8609 170.679 19.8172C170.748 19.7672 170.807 19.7422 170.857 19.7422C170.944 19.7422 171.022 19.7953 171.091 19.9015L171.578 20.6979C171.291 20.9664 170.944 21.1788 170.538 21.335C170.132 21.4849 169.714 21.5598 169.283 21.5598ZM180.889 11.9192V21.4099H179.896C179.659 21.4099 179.509 21.2944 179.446 21.0633L179.315 20.042C178.903 20.498 178.441 20.8665 177.929 21.1476C177.416 21.4224 176.829 21.5598 176.167 21.5598C175.649 21.5598 175.19 21.4755 174.79 21.3069C174.397 21.132 174.065 20.8884 173.797 20.5761C173.528 20.2638 173.325 19.8859 173.188 19.4424C173.057 18.999 172.991 18.5087 172.991 17.9715V11.9192H174.659V17.9715C174.659 18.6898 174.821 19.2457 175.146 19.6392C175.477 20.0327 175.98 20.2294 176.654 20.2294C177.148 20.2294 177.607 20.1139 178.032 19.8828C178.463 19.6454 178.859 19.3206 179.222 18.9084V11.9192H180.889ZM186.447 21.5598C185.698 21.5598 185.12 21.3506 184.714 20.9321C184.314 20.5136 184.114 19.9109 184.114 19.1239V13.3152H182.971C182.871 13.3152 182.787 13.287 182.718 13.2308C182.65 13.1684 182.615 13.0747 182.615 12.9498V12.2846L184.171 12.0878L184.555 9.15535C184.573 9.06166 184.614 8.98671 184.676 8.93049C184.745 8.86803 184.833 8.8368 184.939 8.8368H185.782V12.1066H188.527V13.3152H185.782V19.0115C185.782 19.4112 185.879 19.7079 186.072 19.9015C186.266 20.0951 186.516 20.192 186.822 20.192C186.997 20.192 187.147 20.1701 187.272 20.1264C187.403 20.0764 187.515 20.0233 187.609 19.9671C187.703 19.9109 187.781 19.8609 187.843 19.8172C187.912 19.7672 187.971 19.7422 188.021 19.7422C188.109 19.7422 188.187 19.7953 188.255 19.9015L188.743 20.6979C188.455 20.9664 188.109 21.1788 187.703 21.335C187.297 21.4849 186.878 21.5598 186.447 21.5598ZM196.546 15.6293C196.546 15.242 196.49 14.8891 196.378 14.5706C196.271 14.2458 196.112 13.9679 195.9 13.7368C195.694 13.4994 195.441 13.3183 195.141 13.1934C194.841 13.0622 194.501 12.9966 194.12 12.9966C193.32 12.9966 192.686 13.2308 192.218 13.6993C191.756 14.1615 191.468 14.8048 191.356 15.6293H196.546ZM197.895 20.0795C197.689 20.3294 197.443 20.548 197.155 20.7353C196.868 20.9165 196.559 21.0664 196.228 21.1851C195.903 21.3037 195.566 21.3912 195.216 21.4474C194.866 21.5098 194.519 21.5411 194.176 21.5411C193.52 21.5411 192.914 21.4318 192.358 21.2132C191.809 20.9883 191.331 20.6635 190.925 20.2388C190.525 19.8078 190.213 19.2769 189.988 18.6461C189.763 18.0152 189.651 17.2907 189.651 16.4725C189.651 15.8104 189.751 15.1921 189.951 14.6174C190.157 14.0428 190.45 13.5463 190.831 13.1278C191.212 12.703 191.678 12.372 192.227 12.1347C192.777 11.8911 193.395 11.7693 194.082 11.7693C194.651 11.7693 195.175 11.8661 195.656 12.0597C196.143 12.2471 196.562 12.5219 196.912 12.8842C197.268 13.2402 197.546 13.6837 197.746 14.2146C197.945 14.7392 198.045 15.3388 198.045 16.0134C198.045 16.2757 198.017 16.4506 197.961 16.5381C197.905 16.6255 197.799 16.6692 197.642 16.6692H191.3C191.318 17.2688 191.4 17.7904 191.543 18.2338C191.693 18.6773 191.899 19.0489 192.162 19.3487C192.424 19.6423 192.736 19.864 193.099 20.0139C193.461 20.1576 193.867 20.2294 194.316 20.2294C194.735 20.2294 195.094 20.1826 195.394 20.0889C195.7 19.989 195.962 19.8828 196.181 19.7703C196.4 19.6579 196.581 19.5549 196.724 19.4612C196.874 19.3612 197.002 19.3113 197.108 19.3113C197.246 19.3113 197.352 19.3644 197.427 19.4705L197.895 20.0795ZM208.889 11.7693C209.582 11.7693 210.206 11.8848 210.762 12.1159C211.318 12.347 211.793 12.6749 212.186 13.0997C212.58 13.5244 212.88 14.0397 213.086 14.6455C213.298 15.2452 213.404 15.9166 213.404 16.6599C213.404 17.4094 213.298 18.0839 213.086 18.6836C212.88 19.2832 212.58 19.7953 212.186 20.2201C211.793 20.6448 211.318 20.9727 210.762 21.2038C210.206 21.4286 209.582 21.5411 208.889 21.5411C208.189 21.5411 207.558 21.4286 206.996 21.2038C206.44 20.9727 205.965 20.6448 205.572 20.2201C205.178 19.7953 204.876 19.2832 204.663 18.6836C204.457 18.0839 204.354 17.4094 204.354 16.6599C204.354 15.9166 204.457 15.2452 204.663 14.6455C204.876 14.0397 205.178 13.5244 205.572 13.0997C205.965 12.6749 206.44 12.347 206.996 12.1159C207.558 11.8848 208.189 11.7693 208.889 11.7693ZM208.889 20.2388C209.825 20.2388 210.525 19.9265 210.987 19.3019C211.449 18.6711 211.68 17.7935 211.68 16.6692C211.68 15.5387 211.449 14.658 210.987 14.0272C210.525 13.3964 209.825 13.0809 208.889 13.0809C208.414 13.0809 207.998 13.1621 207.642 13.3245C207.293 13.4869 206.999 13.7211 206.762 14.0272C206.531 14.3332 206.356 14.7111 206.237 15.1608C206.125 15.6043 206.068 16.1071 206.068 16.6692C206.068 17.7935 206.3 18.6711 206.762 19.3019C207.23 19.9265 207.939 20.2388 208.889 20.2388ZM215.937 21.4099V13.3433L214.887 13.2215C214.756 13.1902 214.647 13.1434 214.559 13.0809C214.478 13.0122 214.438 12.9154 214.438 12.7905V12.1066H215.937V11.1884C215.937 10.645 216.012 10.1641 216.161 9.74559C216.318 9.32086 216.536 8.96484 216.817 8.67753C217.105 8.38397 217.448 8.16224 217.848 8.01234C218.248 7.86243 218.697 7.78748 219.197 7.78748C219.622 7.78748 220.012 7.84994 220.368 7.97486L220.331 8.8087C220.318 8.9586 220.234 9.0398 220.078 9.05229C219.928 9.06478 219.725 9.07103 219.469 9.07103C219.181 9.07103 218.919 9.1085 218.682 9.18345C218.451 9.2584 218.251 9.3802 218.082 9.54884C217.913 9.71748 217.782 9.93921 217.689 10.214C217.601 10.4889 217.557 10.8293 217.557 11.2352V12.1066H220.293V13.3152H217.614V21.4099H215.937ZM228.545 21.4099H226.728V7.98423H228.545V21.4099ZM233.013 13.2964C233.22 13.0653 233.438 12.8561 233.669 12.6687C233.9 12.4813 234.144 12.322 234.4 12.1909C234.662 12.0535 234.937 11.9504 235.224 11.8817C235.518 11.8068 235.833 11.7693 236.171 11.7693C236.689 11.7693 237.145 11.8567 237.539 12.0316C237.938 12.2002 238.269 12.4438 238.532 12.7624C238.8 13.0747 239.003 13.4526 239.141 13.896C239.278 14.3395 239.347 14.8298 239.347 15.3669V21.4099H237.67V15.3669C237.67 14.6487 237.504 14.0928 237.173 13.6993C236.848 13.2995 236.352 13.0997 235.684 13.0997C235.19 13.0997 234.728 13.2183 234.297 13.4557C233.872 13.693 233.479 14.0147 233.116 14.4207V21.4099H231.439V11.9192H232.442C232.679 11.9192 232.826 12.0347 232.882 12.2658L233.013 13.2964ZM242.36 21.4099V13.3433L241.311 13.2215C241.179 13.1902 241.07 13.1434 240.983 13.0809C240.902 13.0122 240.861 12.9154 240.861 12.7905V12.1066H242.36V11.1884C242.36 10.645 242.435 10.1641 242.585 9.74559C242.741 9.32086 242.96 8.96484 243.241 8.67753C243.528 8.38397 243.871 8.16224 244.271 8.01234C244.671 7.86243 245.121 7.78748 245.62 7.78748C246.045 7.78748 246.435 7.84994 246.791 7.97486L246.754 8.8087C246.741 8.9586 246.657 9.0398 246.501 9.05229C246.351 9.06478 246.148 9.07103 245.892 9.07103C245.605 9.07103 245.342 9.1085 245.105 9.18345C244.874 9.2584 244.674 9.3802 244.505 9.54884C244.337 9.71748 244.206 9.93921 244.112 10.214C244.024 10.4889 243.981 10.8293 243.981 11.2352V12.1066H246.716V13.3152H244.037V21.4099H242.36ZM252 11.7693C252.694 11.7693 253.318 11.8848 253.874 12.1159C254.43 12.347 254.905 12.6749 255.298 13.0997C255.692 13.5244 255.991 14.0397 256.198 14.6455C256.41 15.2452 256.516 15.9166 256.516 16.6599C256.516 17.4094 256.41 18.0839 256.198 18.6836C255.991 19.2832 255.692 19.7953 255.298 20.2201C254.905 20.6448 254.43 20.9727 253.874 21.2038C253.318 21.4286 252.694 21.5411 252 21.5411C251.301 21.5411 250.67 21.4286 250.108 21.2038C249.552 20.9727 249.077 20.6448 248.684 20.2201C248.29 19.7953 247.987 19.2832 247.775 18.6836C247.569 18.0839 247.466 17.4094 247.466 16.6599C247.466 15.9166 247.569 15.2452 247.775 14.6455C247.987 14.0397 248.29 13.5244 248.684 13.0997C249.077 12.6749 249.552 12.347 250.108 12.1159C250.67 11.8848 251.301 11.7693 252 11.7693ZM252 20.2388C252.937 20.2388 253.637 19.9265 254.099 19.3019C254.561 18.6711 254.792 17.7935 254.792 16.6692C254.792 15.5387 254.561 14.658 254.099 14.0272C253.637 13.3964 252.937 13.0809 252 13.0809C251.526 13.0809 251.11 13.1621 250.754 13.3245C250.404 13.4869 250.111 13.7211 249.874 14.0272C249.642 14.3332 249.468 14.7111 249.349 15.1608C249.236 15.6043 249.18 16.1071 249.18 16.6692C249.18 17.7935 249.411 18.6711 249.874 19.3019C250.342 19.9265 251.051 20.2388 252 20.2388ZM260.215 13.8211C260.514 13.1715 260.883 12.6656 261.32 12.3033C261.757 11.9348 262.291 11.7505 262.922 11.7505C263.122 11.7505 263.313 11.7724 263.494 11.8161C263.681 11.8598 263.847 11.9286 263.99 12.0222L263.869 13.2683C263.831 13.4245 263.737 13.5025 263.587 13.5025C263.5 13.5025 263.372 13.4838 263.203 13.4463C263.035 13.4088 262.844 13.3901 262.632 13.3901C262.332 13.3901 262.063 13.4338 261.826 13.5213C261.595 13.6087 261.386 13.7399 261.198 13.9148C261.017 14.0834 260.852 14.2958 260.702 14.5519C260.558 14.8017 260.427 15.089 260.308 15.4138V21.4099H258.631V11.9192H259.587C259.768 11.9192 259.893 11.9535 259.962 12.0222C260.03 12.0909 260.077 12.2096 260.102 12.3783L260.215 13.8211ZM265.457 21.4099V11.9192H266.459C266.697 11.9192 266.843 12.0347 266.9 12.2658L267.021 13.2402C267.371 12.8092 267.765 12.4563 268.202 12.1815C268.639 11.9067 269.145 11.7693 269.72 11.7693C270.357 11.7693 270.872 11.9473 271.265 12.3033C271.665 12.6593 271.952 13.1403 272.127 13.7461C272.265 13.4026 272.44 13.1059 272.652 12.8561C272.871 12.6062 273.114 12.4001 273.383 12.2377C273.651 12.0753 273.936 11.9567 274.235 11.8817C274.541 11.8068 274.851 11.7693 275.163 11.7693C275.663 11.7693 276.106 11.8505 276.493 12.0129C276.887 12.169 277.218 12.4001 277.486 12.7062C277.761 13.0122 277.97 13.3901 278.114 13.8398C278.258 14.2833 278.33 14.7923 278.33 15.3669V21.4099H276.653V15.3669C276.653 14.6237 276.49 14.0615 276.165 13.6805C275.841 13.2933 275.372 13.0997 274.76 13.0997C274.485 13.0997 274.223 13.1496 273.973 13.2496C273.729 13.3433 273.514 13.4838 273.327 13.6712C273.139 13.8586 272.989 14.0959 272.877 14.3832C272.771 14.6643 272.718 14.9922 272.718 15.3669V21.4099H271.041V15.3669C271.041 14.6049 270.888 14.0366 270.581 13.6618C270.275 13.287 269.829 13.0997 269.242 13.0997C268.83 13.0997 268.448 13.2121 268.099 13.4369C267.749 13.6556 267.427 13.9554 267.134 14.3364V21.4099H265.457ZM286.008 17.1377C285.239 17.1627 284.584 17.2251 284.04 17.3251C283.503 17.4187 283.063 17.5437 282.719 17.6998C282.382 17.856 282.135 18.0402 281.979 18.2526C281.829 18.4649 281.754 18.7023 281.754 18.9646C281.754 19.2145 281.795 19.4299 281.876 19.6111C281.957 19.7922 282.067 19.9421 282.204 20.0608C282.348 20.1732 282.513 20.2575 282.701 20.3137C282.894 20.3637 283.1 20.3887 283.319 20.3887C283.612 20.3887 283.881 20.3606 284.125 20.3044C284.368 20.2419 284.596 20.1545 284.809 20.042C285.027 19.9296 285.233 19.7953 285.427 19.6392C285.627 19.483 285.82 19.305 286.008 19.1052V17.1377ZM280.621 13.2589C281.145 12.753 281.711 12.3751 282.316 12.1253C282.922 11.8755 283.594 11.7505 284.331 11.7505C284.862 11.7505 285.333 11.838 285.745 12.0129C286.158 12.1878 286.504 12.4314 286.785 12.7436C287.066 13.0559 287.279 13.4338 287.422 13.8773C287.566 14.3208 287.638 14.8079 287.638 15.3388V21.4099H286.898C286.735 21.4099 286.61 21.3849 286.523 21.335C286.436 21.2787 286.367 21.1726 286.317 21.0164L286.13 20.117C285.88 20.3481 285.636 20.5542 285.399 20.7353C285.161 20.9102 284.912 21.0601 284.649 21.1851C284.387 21.3037 284.106 21.3943 283.806 21.4568C283.512 21.5255 283.185 21.5598 282.822 21.5598C282.454 21.5598 282.107 21.5098 281.782 21.4099C281.458 21.3037 281.173 21.1476 280.93 20.9415C280.692 20.7353 280.502 20.4761 280.358 20.1638C280.221 19.8453 280.152 19.4705 280.152 19.0396C280.152 18.6648 280.255 18.3057 280.461 17.9621C280.667 17.6124 281.002 17.3032 281.464 17.0346C281.926 16.766 282.529 16.5474 283.272 16.3788C284.015 16.2039 284.927 16.104 286.008 16.079V15.3388C286.008 14.6018 285.848 14.0459 285.53 13.6712C285.211 13.2902 284.746 13.0997 284.134 13.0997C283.722 13.0997 283.375 13.1528 283.094 13.2589C282.819 13.3589 282.579 13.4744 282.373 13.6056C282.173 13.7305 281.998 13.8461 281.848 13.9522C281.704 14.0522 281.561 14.1021 281.417 14.1021C281.305 14.1021 281.208 14.074 281.127 14.0178C281.045 13.9554 280.977 13.8804 280.92 13.793L280.621 13.2589ZM298.857 21.4099H297.189V13.3152H292.299V19.0115C292.299 19.4112 292.396 19.7079 292.589 19.9015C292.783 20.0951 293.033 20.192 293.339 20.192C293.514 20.192 293.663 20.1701 293.788 20.1264C293.92 20.0764 294.032 20.0233 294.126 19.9671C294.219 19.9109 294.297 19.8609 294.36 19.8172C294.429 19.7672 294.488 19.7422 294.538 19.7422C294.625 19.7422 294.703 19.7953 294.772 19.9015L295.259 20.6979C294.972 20.9664 294.625 21.1788 294.219 21.335C293.813 21.4849 293.395 21.5598 292.964 21.5598C292.214 21.5598 291.637 21.3506 291.231 20.9321C290.831 20.5136 290.631 19.9109 290.631 19.1239V13.3152H289.488C289.388 13.3152 289.304 13.287 289.235 13.2308C289.166 13.1684 289.132 13.0747 289.132 12.9498V12.2846L290.687 12.0785L291.071 9.15535C291.09 9.06166 291.131 8.98671 291.193 8.93049C291.262 8.86803 291.349 8.8368 291.455 8.8368H292.299V12.1066H298.857V21.4099ZM299.269 8.87428C299.269 9.03667 299.235 9.1897 299.166 9.33336C299.104 9.47077 299.016 9.59256 298.904 9.69875C298.798 9.80493 298.673 9.88925 298.529 9.95171C298.385 10.0142 298.232 10.0454 298.07 10.0454C297.908 10.0454 297.755 10.0142 297.611 9.95171C297.473 9.88925 297.352 9.80493 297.245 9.69875C297.139 9.59256 297.055 9.47077 296.993 9.33336C296.93 9.1897 296.899 9.03667 296.899 8.87428C296.899 8.71188 296.93 8.55886 296.993 8.4152C297.055 8.2653 297.139 8.13726 297.245 8.03107C297.352 7.91865 297.473 7.8312 297.611 7.76874C297.755 7.70628 297.908 7.67505 298.07 7.67505C298.232 7.67505 298.385 7.70628 298.529 7.76874C298.673 7.8312 298.798 7.91865 298.904 8.03107C299.016 8.13726 299.104 8.2653 299.166 8.4152C299.235 8.55886 299.269 8.71188 299.269 8.87428ZM305.597 11.7693C306.29 11.7693 306.915 11.8848 307.471 12.1159C308.027 12.347 308.502 12.6749 308.895 13.0997C309.289 13.5244 309.588 14.0397 309.794 14.6455C310.007 15.2452 310.113 15.9166 310.113 16.6599C310.113 17.4094 310.007 18.0839 309.794 18.6836C309.588 19.2832 309.289 19.7953 308.895 20.2201C308.502 20.6448 308.027 20.9727 307.471 21.2038C306.915 21.4286 306.29 21.5411 305.597 21.5411C304.898 21.5411 304.267 21.4286 303.705 21.2038C303.149 20.9727 302.674 20.6448 302.281 20.2201C301.887 19.7953 301.584 19.2832 301.372 18.6836C301.166 18.0839 301.063 17.4094 301.063 16.6599C301.063 15.9166 301.166 15.2452 301.372 14.6455C301.584 14.0397 301.887 13.5244 302.281 13.0997C302.674 12.6749 303.149 12.347 303.705 12.1159C304.267 11.8848 304.898 11.7693 305.597 11.7693ZM305.597 20.2388C306.534 20.2388 307.234 19.9265 307.696 19.3019C308.158 18.6711 308.389 17.7935 308.389 16.6692C308.389 15.5387 308.158 14.658 307.696 14.0272C307.234 13.3964 306.534 13.0809 305.597 13.0809C305.122 13.0809 304.707 13.1621 304.351 13.3245C304.001 13.4869 303.708 13.7211 303.47 14.0272C303.239 14.3332 303.064 14.7111 302.946 15.1608C302.833 15.6043 302.777 16.1071 302.777 16.6692C302.777 17.7935 303.008 18.6711 303.47 19.3019C303.939 19.9265 304.648 20.2388 305.597 20.2388ZM313.802 13.2964C314.008 13.0653 314.227 12.8561 314.458 12.6687C314.689 12.4813 314.933 12.322 315.189 12.1909C315.451 12.0535 315.726 11.9504 316.013 11.8817C316.307 11.8068 316.622 11.7693 316.959 11.7693C317.478 11.7693 317.934 11.8567 318.327 12.0316C318.727 12.2002 319.058 12.4438 319.32 12.7624C319.589 13.0747 319.792 13.4526 319.929 13.896C320.067 14.3395 320.136 14.8298 320.136 15.3669V21.4099H318.459V15.3669C318.459 14.6487 318.293 14.0928 317.962 13.6993C317.637 13.2995 317.141 13.0997 316.472 13.0997C315.979 13.0997 315.517 13.2183 315.086 13.4557C314.661 13.693 314.267 14.0147 313.905 14.4207V21.4099H312.228V11.9192H313.231C313.468 11.9192 313.615 12.0347 313.671 12.2658L313.802 13.2964ZM336.376 9.51137H332.029V21.4099H330.22V9.51137H325.864V7.98423H336.376V9.51137ZM342.039 15.6293C342.039 15.242 341.983 14.8891 341.871 14.5706C341.764 14.2458 341.605 13.9679 341.393 13.7368C341.187 13.4994 340.934 13.3183 340.634 13.1934C340.334 13.0622 339.994 12.9966 339.613 12.9966C338.813 12.9966 338.179 13.2308 337.711 13.6993C337.249 14.1615 336.961 14.8048 336.849 15.6293H342.039ZM343.388 20.0795C343.182 20.3294 342.936 20.548 342.648 20.7353C342.361 20.9165 342.052 21.0664 341.721 21.1851C341.396 21.3037 341.059 21.3912 340.709 21.4474C340.359 21.5098 340.012 21.5411 339.669 21.5411C339.013 21.5411 338.407 21.4318 337.851 21.2132C337.302 20.9883 336.824 20.6635 336.418 20.2388C336.018 19.8078 335.706 19.2769 335.481 18.6461C335.256 18.0152 335.144 17.2907 335.144 16.4725C335.144 15.8104 335.244 15.1921 335.444 14.6174C335.65 14.0428 335.943 13.5463 336.324 13.1278C336.705 12.703 337.171 12.372 337.72 12.1347C338.27 11.8911 338.888 11.7693 339.575 11.7693C340.144 11.7693 340.668 11.8661 341.149 12.0597C341.636 12.2471 342.055 12.5219 342.405 12.8842C342.761 13.2402 343.039 13.6837 343.238 14.2146C343.438 14.7392 343.538 15.3388 343.538 16.0134C343.538 16.2757 343.51 16.4506 343.454 16.5381C343.398 16.6255 343.292 16.6692 343.135 16.6692H336.793C336.811 17.2688 336.893 17.7904 337.036 18.2338C337.186 18.6773 337.392 19.0489 337.655 19.3487C337.917 19.6423 338.229 19.864 338.591 20.0139C338.954 20.1576 339.36 20.2294 339.809 20.2294C340.228 20.2294 340.587 20.1826 340.887 20.0889C341.193 19.989 341.455 19.8828 341.674 19.7703C341.892 19.6579 342.074 19.5549 342.217 19.4612C342.367 19.3612 342.495 19.3113 342.601 19.3113C342.739 19.3113 342.845 19.3644 342.92 19.4705L343.388 20.0795ZM352.192 13.6056C352.142 13.6743 352.092 13.7274 352.042 13.7649C351.992 13.8023 351.923 13.8211 351.836 13.8211C351.742 13.8211 351.639 13.7836 351.527 13.7086C351.414 13.6275 351.274 13.54 351.105 13.4463C350.943 13.3526 350.74 13.2683 350.496 13.1934C350.259 13.1122 349.965 13.0716 349.615 13.0716C349.147 13.0716 348.735 13.1559 348.379 13.3245C348.023 13.4869 347.723 13.7243 347.479 14.0366C347.242 14.3489 347.061 14.7267 346.936 15.1702C346.817 15.6137 346.758 16.1102 346.758 16.6599C346.758 17.2345 346.823 17.7467 346.955 18.1964C347.086 18.6398 347.27 19.0146 347.507 19.3206C347.751 19.6204 348.041 19.8515 348.379 20.0139C348.722 20.1701 349.106 20.2482 349.531 20.2482C349.937 20.2482 350.271 20.2013 350.534 20.1076C350.796 20.0077 351.011 19.8984 351.18 19.7797C351.355 19.661 351.499 19.5549 351.611 19.4612C351.73 19.3612 351.845 19.3113 351.958 19.3113C352.095 19.3113 352.201 19.3644 352.276 19.4705L352.745 20.0795C352.538 20.3356 352.304 20.5542 352.042 20.7353C351.78 20.9165 351.495 21.0695 351.189 21.1944C350.89 21.3131 350.574 21.4005 350.243 21.4568C349.912 21.513 349.575 21.5411 349.231 21.5411C348.638 21.5411 348.085 21.4318 347.573 21.2132C347.067 20.9946 346.627 20.6791 346.252 20.2669C345.877 19.8484 345.584 19.3363 345.371 18.7304C345.159 18.1245 345.053 17.4344 345.053 16.6599C345.053 15.9541 345.149 15.3014 345.343 14.7018C345.543 14.1021 345.83 13.5869 346.205 13.1559C346.586 12.7187 347.051 12.3783 347.601 12.1347C348.157 11.8911 348.794 11.7693 349.512 11.7693C350.181 11.7693 350.768 11.8786 351.274 12.0972C351.786 12.3096 352.239 12.6125 352.632 13.006L352.192 13.6056ZM356.212 13.184C356.618 12.753 357.068 12.4095 357.561 12.1534C358.054 11.8973 358.623 11.7693 359.266 11.7693C359.784 11.7693 360.24 11.8567 360.634 12.0316C361.034 12.2002 361.365 12.4438 361.627 12.7624C361.896 13.0747 362.099 13.4526 362.236 13.896C362.373 14.3395 362.442 14.8298 362.442 15.3669V21.4099H360.765V15.3669C360.765 14.6487 360.6 14.0928 360.269 13.6993C359.944 13.2995 359.447 13.0997 358.779 13.0997C358.285 13.0997 357.823 13.2183 357.392 13.4557C356.968 13.693 356.574 14.0147 356.212 14.4207V21.4099H354.535V7.60947H356.212V13.184ZM366.557 13.2964C366.763 13.0653 366.982 12.8561 367.213 12.6687C367.444 12.4813 367.688 12.322 367.944 12.1909C368.206 12.0535 368.481 11.9504 368.768 11.8817C369.062 11.8068 369.377 11.7693 369.715 11.7693C370.233 11.7693 370.689 11.8567 371.082 12.0316C371.482 12.2002 371.813 12.4438 372.076 12.7624C372.344 13.0747 372.547 13.4526 372.685 13.896C372.822 14.3395 372.891 14.8298 372.891 15.3669V21.4099H371.214V15.3669C371.214 14.6487 371.048 14.0928 370.717 13.6993C370.392 13.2995 369.896 13.0997 369.227 13.0997C368.734 13.0997 368.272 13.2183 367.841 13.4557C367.416 13.693 367.023 14.0147 366.66 14.4207V21.4099H364.983V11.9192H365.986C366.223 11.9192 366.37 12.0347 366.426 12.2658L366.557 13.2964ZM379.432 11.7693C380.126 11.7693 380.75 11.8848 381.306 12.1159C381.862 12.347 382.337 12.6749 382.73 13.0997C383.124 13.5244 383.424 14.0397 383.63 14.6455C383.842 15.2452 383.948 15.9166 383.948 16.6599C383.948 17.4094 383.842 18.0839 383.63 18.6836C383.424 19.2832 383.124 19.7953 382.73 20.2201C382.337 20.6448 381.862 20.9727 381.306 21.2038C380.75 21.4286 380.126 21.5411 379.432 21.5411C378.733 21.5411 378.102 21.4286 377.54 21.2038C376.984 20.9727 376.509 20.6448 376.116 20.2201C375.722 19.7953 375.419 19.2832 375.207 18.6836C375.001 18.0839 374.898 17.4094 374.898 16.6599C374.898 15.9166 375.001 15.2452 375.207 14.6455C375.419 14.0397 375.722 13.5244 376.116 13.0997C376.509 12.6749 376.984 12.347 377.54 12.1159C378.102 11.8848 378.733 11.7693 379.432 11.7693ZM379.432 20.2388C380.369 20.2388 381.069 19.9265 381.531 19.3019C381.993 18.6711 382.224 17.7935 382.224 16.6692C382.224 15.5387 381.993 14.658 381.531 14.0272C381.069 13.3964 380.369 13.0809 379.432 13.0809C378.958 13.0809 378.542 13.1621 378.186 13.3245C377.837 13.4869 377.543 13.7211 377.306 14.0272C377.075 14.3332 376.9 14.7111 376.781 15.1608C376.669 15.6043 376.612 16.1071 376.612 16.6692C376.612 17.7935 376.843 18.6711 377.306 19.3019C377.774 19.9265 378.483 20.2388 379.432 20.2388ZM387.787 7.60947V21.4099H386.12V7.60947H387.787ZM394.492 11.7693C395.186 11.7693 395.81 11.8848 396.366 12.1159C396.922 12.347 397.397 12.6749 397.79 13.0997C398.184 13.5244 398.483 14.0397 398.69 14.6455C398.902 15.2452 399.008 15.9166 399.008 16.6599C399.008 17.4094 398.902 18.0839 398.69 18.6836C398.483 19.2832 398.184 19.7953 397.79 20.2201C397.397 20.6448 396.922 20.9727 396.366 21.2038C395.81 21.4286 395.186 21.5411 394.492 21.5411C393.793 21.5411 393.162 21.4286 392.6 21.2038C392.044 20.9727 391.569 20.6448 391.176 20.2201C390.782 19.7953 390.479 19.2832 390.267 18.6836C390.061 18.0839 389.958 17.4094 389.958 16.6599C389.958 15.9166 390.061 15.2452 390.267 14.6455C390.479 14.0397 390.782 13.5244 391.176 13.0997C391.569 12.6749 392.044 12.347 392.6 12.1159C393.162 11.8848 393.793 11.7693 394.492 11.7693ZM394.492 20.2388C395.429 20.2388 396.129 19.9265 396.591 19.3019C397.053 18.6711 397.284 17.7935 397.284 16.6692C397.284 15.5387 397.053 14.658 396.591 14.0272C396.129 13.3964 395.429 13.0809 394.492 13.0809C394.018 13.0809 393.602 13.1621 393.246 13.3245C392.896 13.4869 392.603 13.7211 392.365 14.0272C392.134 14.3332 391.96 14.7111 391.841 15.1608C391.728 15.6043 391.672 16.1071 391.672 16.6692C391.672 17.7935 391.903 18.6711 392.365 19.3019C392.834 19.9265 393.543 20.2388 394.492 20.2388ZM404.376 16.7723C404.713 16.7723 405.01 16.7254 405.266 16.6318C405.522 16.5381 405.737 16.4069 405.912 16.2383C406.087 16.0696 406.218 15.8697 406.306 15.6386C406.393 15.4013 406.437 15.1421 406.437 14.861C406.437 14.2802 406.259 13.818 405.903 13.4744C405.553 13.1309 405.044 12.9591 404.376 12.9591C403.701 12.9591 403.186 13.1309 402.83 13.4744C402.48 13.818 402.305 14.2802 402.305 14.861C402.305 15.1421 402.349 15.4013 402.436 15.6386C402.53 15.8697 402.664 16.0696 402.839 16.2383C403.014 16.4069 403.229 16.5381 403.486 16.6318C403.742 16.7254 404.038 16.7723 404.376 16.7723ZM407.383 21.9252C407.383 21.6941 407.317 21.5067 407.186 21.3631C407.055 21.2194 406.877 21.107 406.652 21.0258C406.434 20.9446 406.178 20.8884 405.884 20.8571C405.59 20.8197 405.278 20.7916 404.947 20.7728C404.622 20.7541 404.291 20.7353 403.954 20.7166C403.617 20.6979 403.292 20.6666 402.98 20.6229C402.63 20.7853 402.343 20.9914 402.118 21.2413C401.899 21.4849 401.79 21.7722 401.79 22.1032C401.79 22.3156 401.843 22.5123 401.949 22.6935C402.061 22.8808 402.23 23.0401 402.455 23.1713C402.68 23.3087 402.961 23.4149 403.298 23.4898C403.642 23.571 404.045 23.6116 404.507 23.6116C404.956 23.6116 405.359 23.571 405.715 23.4898C406.071 23.4086 406.371 23.2931 406.615 23.1432C406.865 22.9933 407.055 22.8153 407.186 22.6091C407.317 22.403 407.383 22.175 407.383 21.9252ZM409.079 12.2939V12.9123C409.079 13.1184 408.948 13.2496 408.685 13.3058L407.608 13.4463C407.82 13.8586 407.926 14.3145 407.926 14.8142C407.926 15.2764 407.836 15.698 407.655 16.079C407.48 16.4537 407.236 16.7754 406.924 17.044C406.612 17.3126 406.237 17.5187 405.8 17.6623C405.362 17.806 404.888 17.8778 404.376 17.8778C403.932 17.8778 403.514 17.8247 403.12 17.7186C402.92 17.8435 402.767 17.9778 402.661 18.1214C402.555 18.2588 402.502 18.3994 402.502 18.543C402.502 18.7679 402.592 18.9396 402.773 19.0583C402.961 19.1707 403.204 19.2519 403.504 19.3019C403.804 19.3519 404.144 19.3831 404.525 19.3956C404.913 19.4081 405.306 19.4299 405.706 19.4612C406.112 19.4862 406.505 19.533 406.886 19.6017C407.274 19.6704 407.617 19.7828 407.917 19.939C408.217 20.0951 408.457 20.3106 408.638 20.5854C408.826 20.8603 408.92 21.2163 408.92 21.6535C408.92 22.0595 408.816 22.453 408.61 22.834C408.41 23.215 408.12 23.5523 407.739 23.8458C407.358 24.1456 406.89 24.383 406.334 24.5579C405.784 24.739 405.163 24.8296 404.469 24.8296C403.776 24.8296 403.17 24.7609 402.652 24.6235C402.133 24.486 401.702 24.3018 401.359 24.0707C401.015 23.8396 400.756 23.571 400.581 23.265C400.413 22.9652 400.328 22.6497 400.328 22.3187C400.328 21.8503 400.475 21.4536 400.769 21.1288C401.062 20.8041 401.465 20.5448 401.977 20.3512C401.696 20.2263 401.471 20.0608 401.303 19.8547C401.14 19.6423 401.059 19.3581 401.059 19.0021C401.059 18.8647 401.084 18.7242 401.134 18.5805C401.184 18.4306 401.259 18.2838 401.359 18.1402C401.465 17.9903 401.593 17.8497 401.743 17.7186C401.893 17.5874 402.068 17.4718 402.268 17.3719C401.799 17.1096 401.434 16.7629 401.171 16.3319C400.909 15.8947 400.778 15.3888 400.778 14.8142C400.778 14.352 400.865 13.9335 401.04 13.5587C401.221 13.1777 401.471 12.8561 401.79 12.5937C402.108 12.3252 402.486 12.1191 402.923 11.9754C403.367 11.8317 403.851 11.7599 404.376 11.7599C404.788 11.7599 405.172 11.8068 405.528 11.9004C405.884 11.9879 406.209 12.1191 406.502 12.2939H409.079ZM418.992 11.9192L413.698 24.2112C413.642 24.3361 413.57 24.4361 413.483 24.511C413.402 24.586 413.274 24.6235 413.099 24.6235H411.862L413.595 20.8571L409.679 11.9192H411.122C411.265 11.9192 411.378 11.9567 411.459 12.0316C411.547 12.1003 411.606 12.1784 411.637 12.2658L414.176 18.2432C414.276 18.5055 414.36 18.7804 414.429 19.0677C414.516 18.7741 414.61 18.4962 414.71 18.2338L417.174 12.2658C417.212 12.1659 417.274 12.0847 417.362 12.0222C417.455 11.9535 417.558 11.9192 417.671 11.9192H418.992ZM424.699 23.6772C424.649 23.6335 424.614 23.5929 424.596 23.5554C424.577 23.5179 424.568 23.4711 424.568 23.4149C424.568 23.3711 424.58 23.3274 424.605 23.2837C424.636 23.24 424.671 23.1994 424.708 23.1619C424.771 23.0932 424.849 23.0026 424.942 22.8902C425.042 22.7778 425.142 22.6435 425.242 22.4873C425.342 22.3374 425.433 22.1688 425.514 21.9814C425.601 21.8003 425.664 21.6067 425.701 21.4005C425.682 21.4068 425.661 21.4099 425.636 21.4099C425.617 21.4099 425.598 21.4099 425.579 21.4099C425.255 21.4099 424.989 21.3037 424.783 21.0914C424.583 20.8728 424.483 20.5948 424.483 20.2575C424.483 19.964 424.583 19.7141 424.783 19.508C424.989 19.3019 425.261 19.1988 425.598 19.1988C425.786 19.1988 425.951 19.2332 426.095 19.3019C426.238 19.3706 426.357 19.4674 426.451 19.5923C426.551 19.711 426.626 19.8515 426.676 20.0139C426.726 20.1701 426.751 20.3419 426.751 20.5292C426.751 20.8103 426.71 21.1039 426.629 21.4099C426.554 21.7097 426.438 22.0064 426.282 22.3C426.132 22.5998 425.948 22.8902 425.729 23.1713C425.511 23.4523 425.261 23.7115 424.98 23.9489L424.699 23.6772ZM87.336 29.9842V43.4099H86.4272C86.2835 43.4099 86.1617 43.3849 86.0618 43.335C85.9681 43.285 85.8744 43.2007 85.7807 43.082L78.0139 32.9636C78.0264 33.1197 78.0358 33.2727 78.042 33.4226C78.0483 33.5725 78.0514 33.7131 78.0514 33.8442V43.4099H76.4587V29.9842H77.3955C77.4767 29.9842 77.5455 29.9905 77.6017 30.003C77.6579 30.0092 77.7078 30.0248 77.7516 30.0498C77.7953 30.0685 77.839 30.0998 77.8827 30.1435C77.9265 30.181 77.9733 30.2309 78.0233 30.2934L85.7901 40.4025C85.7776 40.2401 85.7651 40.0839 85.7526 39.934C85.7464 39.7779 85.7433 39.6311 85.7433 39.4937V29.9842H87.336ZM95.2438 39.1377C94.4756 39.1627 93.8197 39.2251 93.2763 39.3251C92.7392 39.4187 92.2988 39.5437 91.9553 39.6998C91.618 39.856 91.3713 40.0402 91.2152 40.2526C91.0653 40.4649 90.9903 40.7023 90.9903 40.9646C90.9903 41.2145 91.0309 41.4299 91.1121 41.6111C91.1933 41.7922 91.3026 41.9421 91.44 42.0608C91.5837 42.1732 91.7492 42.2575 91.9366 42.3137C92.1302 42.3637 92.3363 42.3887 92.5549 42.3887C92.8485 42.3887 93.1171 42.3606 93.3607 42.3044C93.6042 42.2419 93.8322 42.1545 94.0446 42.042C94.2632 41.9296 94.4693 41.7953 94.6629 41.6392C94.8628 41.483 95.0564 41.305 95.2438 41.1052V39.1377ZM89.8567 35.2589C90.3813 34.753 90.9466 34.3751 91.5524 34.1253C92.1583 33.8755 92.8297 33.7505 93.5668 33.7505C94.0977 33.7505 94.5692 33.838 94.9815 34.0129C95.3937 34.1878 95.7404 34.4314 96.0214 34.7436C96.3025 35.0559 96.5149 35.4338 96.6585 35.8773C96.8022 36.3208 96.874 36.8079 96.874 37.3388V43.4099H96.1339C95.9715 43.4099 95.8465 43.3849 95.7591 43.335C95.6717 43.2787 95.6029 43.1726 95.553 43.0164L95.3656 42.117C95.1158 42.3481 94.8722 42.5542 94.6348 42.7353C94.3975 42.9102 94.1476 43.0601 93.8853 43.1851C93.623 43.3037 93.3419 43.3943 93.0421 43.4568C92.7485 43.5255 92.4206 43.5598 92.0584 43.5598C91.6899 43.5598 91.3432 43.5098 91.0184 43.4099C90.6936 43.3037 90.4094 43.1476 90.1658 42.9415C89.9285 42.7353 89.738 42.4761 89.5943 42.1638C89.4569 41.8453 89.3882 41.4705 89.3882 41.0396C89.3882 40.6648 89.4913 40.3057 89.6974 39.9621C89.9035 39.6124 90.2377 39.3032 90.6999 39.0346C91.1621 38.766 91.7648 38.5474 92.5081 38.3788C93.2513 38.2039 94.1633 38.104 95.2438 38.079V37.3388C95.2438 36.6018 95.0845 36.0459 94.766 35.6712C94.4474 35.2902 93.9821 35.0997 93.37 35.0997C92.9578 35.0997 92.6111 35.1528 92.3301 35.2589C92.0552 35.3589 91.8148 35.4744 91.6087 35.6056C91.4088 35.7305 91.2339 35.8461 91.084 35.9522C90.9403 36.0522 90.7967 36.1021 90.653 36.1021C90.5406 36.1021 90.4438 36.074 90.3626 36.0178C90.2814 35.9554 90.2127 35.8804 90.1565 35.793L89.8567 35.2589ZM102.722 38.7723C103.059 38.7723 103.355 38.7254 103.612 38.6318C103.868 38.5381 104.083 38.4069 104.258 38.2383C104.433 38.0696 104.564 37.8697 104.652 37.6386C104.739 37.4013 104.783 37.1421 104.783 36.861C104.783 36.2802 104.605 35.818 104.249 35.4744C103.899 35.1309 103.39 34.9591 102.722 34.9591C102.047 34.9591 101.532 35.1309 101.176 35.4744C100.826 35.818 100.651 36.2802 100.651 36.861C100.651 37.1421 100.695 37.4013 100.782 37.6386C100.876 37.8697 101.01 38.0696 101.185 38.2383C101.36 38.4069 101.575 38.5381 101.831 38.6318C102.088 38.7254 102.384 38.7723 102.722 38.7723ZM105.729 43.9252C105.729 43.6941 105.663 43.5067 105.532 43.3631C105.401 43.2194 105.223 43.107 104.998 43.0258C104.78 42.9446 104.523 42.8884 104.23 42.8571C103.936 42.8197 103.624 42.7916 103.293 42.7728C102.968 42.7541 102.637 42.7353 102.3 42.7166C101.963 42.6979 101.638 42.6666 101.326 42.6229C100.976 42.7853 100.688 42.9914 100.464 43.2413C100.245 43.4849 100.136 43.7722 100.136 44.1032C100.136 44.3156 100.189 44.5123 100.295 44.6935C100.407 44.8808 100.576 45.0401 100.801 45.1713C101.026 45.3087 101.307 45.4149 101.644 45.4898C101.988 45.571 102.39 45.6116 102.853 45.6116C103.302 45.6116 103.705 45.571 104.061 45.4898C104.417 45.4086 104.717 45.2931 104.961 45.1432C105.211 44.9933 105.401 44.8153 105.532 44.6091C105.663 44.403 105.729 44.175 105.729 43.9252ZM107.425 34.2939V34.9123C107.425 35.1184 107.294 35.2496 107.031 35.3058L105.954 35.4463C106.166 35.8586 106.272 36.3145 106.272 36.8142C106.272 37.2764 106.182 37.698 106.001 38.079C105.826 38.4537 105.582 38.7754 105.27 39.044C104.958 39.3126 104.583 39.5187 104.146 39.6623C103.708 39.806 103.234 39.8778 102.722 39.8778C102.278 39.8778 101.86 39.8247 101.466 39.7186C101.266 39.8435 101.113 39.9778 101.007 40.1214C100.901 40.2588 100.848 40.3994 100.848 40.543C100.848 40.7679 100.938 40.9396 101.119 41.0583C101.307 41.1707 101.55 41.2519 101.85 41.3019C102.15 41.3519 102.49 41.3831 102.871 41.3956C103.259 41.4081 103.652 41.4299 104.052 41.4612C104.458 41.4862 104.851 41.533 105.232 41.6017C105.62 41.6704 105.963 41.7828 106.263 41.939C106.563 42.0951 106.803 42.3106 106.984 42.5854C107.172 42.8603 107.265 43.2163 107.265 43.6535C107.265 44.0595 107.162 44.453 106.956 44.834C106.756 45.215 106.466 45.5523 106.085 45.8458C105.704 46.1456 105.236 46.383 104.68 46.5579C104.13 46.739 103.509 46.8296 102.815 46.8296C102.122 46.8296 101.516 46.7609 100.998 46.6235C100.479 46.486 100.048 46.3018 99.7047 46.0707C99.3612 45.8396 99.102 45.571 98.9271 45.265C98.7585 44.9652 98.6742 44.6497 98.6742 44.3187C98.6742 43.8503 98.8209 43.4536 99.1145 43.1288C99.4081 42.8041 99.8109 42.5448 100.323 42.3512C100.042 42.2263 99.8172 42.0608 99.6485 41.8547C99.4861 41.6423 99.4049 41.3581 99.4049 41.0021C99.4049 40.8647 99.4299 40.7242 99.4799 40.5805C99.5299 40.4306 99.6048 40.2838 99.7047 40.1402C99.8109 39.9903 99.939 39.8497 100.089 39.7186C100.239 39.5874 100.414 39.4718 100.614 39.3719C100.145 39.1096 99.7797 38.7629 99.5174 38.3319C99.255 37.8947 99.1239 37.3888 99.1239 36.8142C99.1239 36.352 99.2113 35.9335 99.3862 35.5587C99.5673 35.1777 99.8172 34.8561 100.136 34.5937C100.454 34.3252 100.832 34.1191 101.269 33.9754C101.713 33.8317 102.197 33.7599 102.722 33.7599C103.134 33.7599 103.518 33.8068 103.874 33.9004C104.23 33.9879 104.555 34.1191 104.848 34.2939H107.425ZM110.826 41.1239C111.132 41.5361 111.466 41.8266 111.829 41.9952C112.191 42.1638 112.597 42.2482 113.047 42.2482C113.934 42.2482 114.614 41.9327 115.089 41.3019C115.564 40.6711 115.801 39.7716 115.801 38.6036C115.801 37.9853 115.745 37.4544 115.633 37.0109C115.526 36.5675 115.37 36.2052 115.164 35.9241C114.958 35.6368 114.705 35.4276 114.405 35.2964C114.105 35.1653 113.765 35.0997 113.384 35.0997C112.841 35.0997 112.363 35.2246 111.951 35.4744C111.545 35.7243 111.17 36.0772 110.826 36.5331V41.1239ZM110.742 35.3901C111.142 34.8967 111.604 34.5001 112.129 34.2002C112.653 33.9004 113.253 33.7505 113.927 33.7505C114.477 33.7505 114.974 33.8567 115.417 34.0691C115.86 34.2752 116.238 34.5844 116.551 34.9966C116.863 35.4026 117.103 35.9085 117.272 36.5144C117.441 37.1202 117.525 37.8167 117.525 38.6036C117.525 39.3032 117.431 39.9559 117.244 40.5618C117.057 41.1614 116.785 41.6829 116.429 42.1264C116.079 42.5636 115.648 42.9102 115.136 43.1663C114.63 43.4162 114.059 43.5411 113.421 43.5411C112.841 43.5411 112.341 43.4443 111.922 43.2506C111.51 43.0508 111.145 42.7759 110.826 42.4262V46.6235H109.149V33.9192H110.152C110.389 33.9192 110.536 34.0347 110.592 34.2658L110.742 35.3901ZM127.457 33.9192V43.4099H126.464C126.227 43.4099 126.077 43.2944 126.014 43.0633L125.883 42.042C125.471 42.498 125.009 42.8665 124.496 43.1476C123.984 43.4224 123.397 43.5598 122.735 43.5598C122.217 43.5598 121.758 43.4755 121.358 43.3069C120.964 43.132 120.633 42.8884 120.365 42.5761C120.096 42.2638 119.893 41.8859 119.756 41.4424C119.625 40.999 119.559 40.5087 119.559 39.9715V33.9192H121.227V39.9715C121.227 40.6898 121.389 41.2457 121.714 41.6392C122.045 42.0327 122.548 42.2294 123.222 42.2294C123.716 42.2294 124.175 42.1139 124.599 41.8828C125.03 41.6454 125.427 41.3206 125.789 40.9084V33.9192H127.457ZM131.685 35.8211C131.984 35.1715 132.353 34.6656 132.79 34.3033C133.227 33.9348 133.761 33.7505 134.392 33.7505C134.592 33.7505 134.783 33.7724 134.964 33.8161C135.151 33.8598 135.317 33.9286 135.46 34.0222L135.338 35.2683C135.301 35.4245 135.207 35.5025 135.057 35.5025C134.97 35.5025 134.842 35.4838 134.673 35.4463C134.505 35.4088 134.314 35.3901 134.102 35.3901C133.802 35.3901 133.533 35.4338 133.296 35.5213C133.065 35.6087 132.856 35.7399 132.668 35.9148C132.487 36.0834 132.322 36.2958 132.172 36.5519C132.028 36.8017 131.897 37.089 131.778 37.4138V43.4099H130.101V33.9192H131.057C131.238 33.9192 131.363 33.9535 131.432 34.0222C131.5 34.0909 131.547 34.2096 131.572 34.3783L131.685 35.8211Z" fill="white"/>
<line x1="64.1403" y1="2.60604" x2="64.1403" y2="53.8638" stroke="#CF4A0E" stroke-width="3.2924" stroke-linecap="round"/>
</svg>
