<?xml version="1.0" standalone="no"?>
<!DOCTYPE svg PUBLIC "-//W3C//DTD SVG 20010904//EN"
 "http://www.w3.org/TR/2001/REC-SVG-20010904/DTD/svg10.dtd">
<svg version="1.0" xmlns="http://www.w3.org/2000/svg"
 width="2489.000000pt" height="2489.000000pt" viewBox="0 0 2489.000000 2489.000000"
 preserveAspectRatio="xMidYMid meet">

<g transform="translate(0.000000,2489.000000) scale(0.100000,-0.100000)"
fill="#000000" stroke="none">
<path d="M13893 24855 c-62 -27 -74 -106 -23 -157 17 -16 30 -37 30 -46 0 -10
-119 -136 -265 -282 l-265 -265 0 -115 0 -115 -677 -677 -678 -678 -3 -727
c-2 -723 -3 -727 -23 -749 -18 -20 -28 -22 -70 -17 -44 5 -51 3 -78 -25 -41
-41 -42 -89 -3 -133 50 -56 138 -36 162 36 7 20 9 39 6 42 -3 3 12 26 34 49
l40 44 0 722 0 723 678 677 677 678 3 123 3 122 265 265 c211 213 264 271 264
292 0 16 12 38 30 56 52 52 35 138 -32 161 -38 13 -36 13 -75 -4z m71 -61 c19
-19 20 -36 4 -52 -24 -24 -78 -8 -78 24 0 17 28 44 45 44 7 0 21 -7 29 -16z
m-2030 -3830 c24 -23 20 -53 -9 -66 -19 -8 -28 -8 -40 2 -20 17 -19 57 3 69
23 14 28 14 46 -5z"/>
<path d="M14839 24692 c-24 -22 -32 -38 -33 -66 -2 -34 -18 -53 -224 -259
l-222 -222 0 -85 0 -85 -235 -235 -235 -235 0 -120 0 -120 -168 -168 -167
-167 -135 0 -135 0 -358 -358 -357 -357 0 -593 c0 -355 -4 -592 -9 -592 -5 0
-23 -12 -40 -26 -26 -21 -31 -33 -31 -68 0 -94 99 -133 163 -65 45 49 27 135
-33 154 -20 6 -20 18 -20 588 l0 582 348 348 347 347 135 0 135 0 178 178 177
177 0 120 0 120 240 240 240 240 0 85 0 85 211 211 211 211 36 -18 c44 -23 78
-16 115 22 38 41 37 90 -2 130 -40 39 -89 40 -132 1z m82 -32 c32 -18 19 -80
-17 -80 -17 0 -44 28 -44 45 0 13 26 45 36 45 3 0 14 -5 25 -10z m-2296 -3710
c9 -15 -4 -47 -22 -54 -46 -18 -81 35 -43 66 22 18 50 13 65 -12z"/>
<path d="M11943 24595 c-35 -15 -63 -60 -63 -102 0 -23 -102 -130 -660 -688
l-660 -660 0 -92 c0 -88 -1 -93 -29 -121 -53 -52 -53 -112 -1 -163 32 -33 82
-39 128 -15 73 38 73 154 0 192 -27 14 -28 17 -28 97 l0 82 641 641 642 642
35 -15 c74 -31 152 21 152 101 0 50 -21 83 -66 102 -41 17 -50 17 -91 -1z m75
-61 c30 -21 29 -59 -3 -80 -23 -15 -27 -15 -50 0 -32 21 -33 59 -3 80 12 9 25
16 28 16 3 0 16 -7 28 -16z m-1379 -1648 c16 -19 10 -66 -10 -79 -26 -16 -68
0 -75 29 -12 47 55 87 85 50z"/>
<path d="M16101 24586 c-47 -26 -63 -84 -36 -135 30 -59 114 -64 159 -10 34
40 91 41 129 1 l27 -28 0 -249 c0 -237 -1 -250 -20 -270 -34 -36 -36 -84 -6
-128 17 -24 26 -52 26 -75 0 -35 -11 -48 -180 -217 l-180 -180 0 -285 0 -285
-705 -705 -706 -706 3 -397 3 -396 43 -43 42 -44 0 -165 0 -165 -30 -29 c-25
-24 -33 -27 -52 -18 -42 20 -57 22 -87 12 -98 -34 -70 -189 34 -189 41 0 95
44 95 77 0 10 25 43 55 73 l55 54 0 184 0 184 -45 51 -45 52 0 370 0 370 700
700 700 700 0 285 0 284 185 186 185 186 0 46 c0 38 4 48 20 53 30 10 60 54
60 91 0 35 -41 94 -66 94 -12 0 -14 43 -14 258 l0 258 -53 52 c-49 48 -56 52
-101 52 -39 0 -55 6 -83 30 -37 33 -73 38 -112 16z m77 -58 c30 -30 0 -75 -43
-64 -19 5 -25 13 -25 35 0 15 3 31 7 34 11 11 48 8 61 -5z m-1584 -4524 c19
-19 20 -36 4 -52 -24 -24 -78 -8 -78 24 0 17 28 44 45 44 7 0 21 -7 29 -16z"/>
<path d="M12624 24220 c-65 -26 -85 -123 -39 -179 14 -16 35 -33 45 -36 18 -6
20 -16 20 -128 l0 -122 -565 -565 -565 -565 0 -1055 1 -1055 -82 -76 -82 -76
-33 19 c-43 25 -85 17 -120 -25 -21 -26 -25 -38 -21 -70 7 -51 33 -77 84 -84
34 -4 45 -1 74 25 26 23 33 37 33 66 0 34 8 44 88 117 l88 81 0 1056 0 1057
565 565 565 565 0 132 c0 126 1 133 20 133 35 0 81 51 87 96 12 93 -75 160
-163 124z m-1310 -3902 c16 -26 -4 -53 -40 -53 -25 0 -30 4 -32 29 -6 46 47
63 72 24z"/>
<path d="M15663 24210 c-12 -5 -29 -20 -39 -34 -12 -20 -25 -26 -52 -26 -29 0
-45 -8 -79 -42 l-43 -42 0 -335 0 -336 -630 -630 -630 -630 0 -598 0 -597 41
-45 42 -45 96 0 c97 0 97 0 129 -33 l32 -33 0 -193 0 -193 -30 -28 c-43 -40
-42 -99 0 -142 28 -27 36 -30 73 -25 86 12 119 109 57 167 l-30 28 0 202 0
201 -51 55 -52 54 -97 0 c-88 0 -98 2 -118 23 l-22 23 0 575 0 574 625 625
625 625 0 341 0 340 28 27 c36 35 63 34 90 -3 28 -37 78 -48 120 -26 37 19 52
44 52 86 0 42 -15 67 -50 85 -32 17 -54 18 -87 5z m77 -70 c8 -14 8 -26 0 -40
-19 -35 -80 -20 -80 20 0 40 61 55 80 20z m-1146 -3816 c19 -18 19 -20 6 -45
-13 -23 -52 -25 -70 -4 -10 12 -10 21 -2 40 13 29 43 33 66 9z"/>
<path d="M3643 24096 c-42 -19 -66 -58 -66 -106 0 -50 25 -88 71 -107 44 -18
96 -6 132 32 l23 25 1371 0 1371 0 338 -338 337 -337 0 -525 0 -525 173 -173
172 -172 447 0 c443 0 447 0 453 -21 9 -27 63 -59 100 -59 96 0 151 116 89
189 -44 53 -119 58 -169 11 -21 -19 -33 -20 -451 -20 l-429 0 -143 143 -142
142 0 530 0 530 -363 362 -362 363 -1395 0 -1394 0 -31 30 c-37 36 -87 46
-132 26z"/>
<path d="M12885 24051 c-36 -15 -58 -49 -58 -91 0 -22 -6 -45 -13 -51 -9 -8
-14 -34 -14 -78 l0 -66 -595 -595 -595 -595 0 -1135 0 -1135 -128 -128 -128
-128 -34 15 c-46 19 -85 10 -115 -26 -70 -83 19 -192 119 -147 31 14 59 70 51
101 -5 19 16 45 130 158 l135 135 0 1135 0 1135 600 600 600 600 0 67 c0 38 2
68 4 68 2 0 17 -7 32 -15 16 -8 37 -15 46 -15 31 0 69 23 84 51 44 85 -35 175
-121 140z m70 -91 c0 -29 -4 -36 -23 -38 -43 -6 -69 37 -40 66 7 7 24 12 38
10 21 -3 25 -8 25 -38z m-1650 -3953 c13 -10 16 -21 11 -41 -6 -24 -11 -27
-39 -24 -25 2 -33 8 -35 26 -4 25 13 52 32 52 7 0 20 -6 31 -13z"/>
<path d="M14917 23989 c-28 -16 -49 -68 -43 -103 6 -30 -5 -42 -264 -301
l-270 -270 0 -145 0 -145 -210 -210 -210 -210 0 -339 0 -340 -100 -101 -100
-102 0 -800 0 -799 -34 -33 c-31 -30 -38 -32 -64 -23 -101 35 -178 -84 -103
-159 41 -40 91 -40 133 1 25 26 29 36 27 75 -3 41 1 49 39 88 l42 43 0 800 0
799 95 95 95 95 0 340 0 340 215 215 215 215 0 145 0 145 263 262 c206 206
265 260 277 253 29 -18 87 -11 117 14 23 20 28 32 28 71 0 39 -5 51 -28 71
-30 26 -87 32 -120 13z m81 -51 c34 -34 -6 -90 -48 -68 -25 13 -26 55 -2 69
23 14 36 13 50 -1z m-1384 -3934 c22 -21 20 -40 -6 -58 -19 -13 -25 -14 -43
-2 -26 18 -30 40 -10 60 21 20 39 20 59 0z"/>
<path d="M10020 23819 c-62 -25 -93 -88 -72 -147 10 -28 6 -33 -54 -93 l-64
-63 0 -901 0 -900 100 -100 100 -100 0 -340 0 -341 69 -68 c61 -61 68 -72 60
-92 -12 -34 10 -92 44 -118 62 -46 158 -7 173 70 8 45 -19 99 -61 118 -41 20
-62 20 -99 1 l-30 -16 -63 63 -63 62 0 341 0 340 -95 95 -95 95 0 890 0 889
56 57 c54 55 57 56 83 43 36 -19 70 -17 108 6 94 57 68 192 -42 213 -17 3 -41
1 -55 -4z m280 -3139 c11 -11 20 -27 20 -35 0 -16 -34 -55 -48 -55 -23 0 -52
34 -52 60 0 47 46 64 80 30z"/>
<path d="M11810 23760 c-13 -13 -20 -33 -20 -60 0 -32 5 -43 30 -62 l30 -22 0
-260 0 -261 -210 -210 -210 -210 0 -1055 0 -1056 -38 -37 -38 -37 -103 0 -103
0 -62 -60 c-59 -56 -63 -59 -79 -42 -26 25 -90 22 -121 -7 -65 -61 -24 -171
64 -171 55 0 106 57 98 109 -2 14 14 38 52 76 l54 55 106 0 106 0 52 53 52 53
0 1054 0 1054 210 211 210 211 0 266 0 266 31 32 c26 26 30 36 25 63 -3 18
-16 40 -27 50 -29 23 -84 22 -109 -3z m-830 -3425 c7 -8 10 -25 6 -40 -5 -20
-13 -25 -36 -25 -23 0 -31 5 -36 25 -7 29 10 55 36 55 10 0 23 -7 30 -15z"/>
<path d="M14944 23753 c-34 -7 -67 -49 -69 -89 -2 -28 -13 -47 -54 -88 l-51
-52 0 -164 0 -165 -375 -375 -375 -376 0 -280 0 -279 -80 -80 -80 -80 0 -876
0 -877 -100 -96 -101 -96 -451 0 -452 0 -42 -41 -42 -42 -28 22 c-37 29 -85
27 -123 -5 -42 -35 -44 -98 -5 -138 40 -39 103 -37 138 5 14 17 26 40 26 53 0
13 19 41 48 69 l48 47 450 0 449 0 113 113 112 112 0 870 0 870 80 80 80 80 0
280 0 280 370 370 370 370 0 165 0 166 44 43 c43 43 44 43 74 27 55 -28 113
-13 138 35 21 42 17 75 -13 108 -29 31 -61 42 -99 34z m56 -67 c6 -8 10 -25 8
-38 -2 -18 -10 -24 -35 -26 -28 -3 -33 1 -39 23 -11 45 37 75 66 41z m-2388
-4013 c23 -21 23 -36 -1 -57 -24 -22 -57 -14 -66 15 -4 13 0 28 11 40 21 23
32 24 56 2z"/>
<path d="M9163 23654 c-41 -21 -66 -74 -58 -122 l6 -37 -211 -210 -210 -210 0
-420 0 -419 440 -441 440 -440 0 -125 0 -125 -35 -28 c-88 -70 -28 -211 83
-193 97 15 129 140 52 198 l-30 22 0 140 0 140 -440 441 -440 440 0 395 0 395
201 201 c187 187 204 201 228 194 65 -18 136 39 136 110 0 78 -91 131 -162 94z
m87 -64 c24 -24 24 -29 4 -58 -28 -41 -94 -22 -94 27 0 16 38 51 55 51 8 0 24
-9 35 -20z m388 -2562 c19 -19 15 -66 -7 -78 -31 -16 -49 -12 -67 15 -24 36
-6 75 34 75 15 0 33 -5 40 -12z"/>
<path d="M11011 22586 c-51 -28 -67 -104 -31 -148 19 -25 19 -26 0 -43 -19
-18 -20 -33 -20 -530 l0 -512 25 -23 25 -23 0 -232 0 -231 45 -44 45 -44 0
-96 0 -96 -38 -37 c-36 -35 -41 -37 -102 -37 l-65 0 -72 -72 -73 -72 0 -106 0
-106 -44 -43 c-24 -24 -46 -38 -50 -33 -10 17 -60 21 -94 6 -38 -15 -63 -64
-55 -107 3 -16 21 -40 39 -55 34 -27 34 -27 34 -112 l0 -85 502 -502 503 -503
155 0 155 0 477 -477 478 -478 0 -850 0 -850 213 -213 212 -212 1295 0 1295 0
308 308 307 308 0 436 c0 415 1 437 18 442 39 13 67 55 67 103 0 38 -5 49 -33
74 -24 22 -42 29 -72 29 -30 0 -48 -7 -72 -29 -28 -25 -33 -36 -33 -74 0 -48
28 -90 67 -103 17 -5 18 -26 18 -437 l0 -432 -297 -297 -298 -298 -1275 0
-1275 0 -203 203 -202 202 0 850 0 850 -488 488 -487 487 -155 0 -155 0 -493
493 -492 492 0 81 c0 76 1 81 24 92 39 18 59 56 53 101 -4 36 -1 43 39 82 l44
43 0 106 0 106 68 67 68 67 64 0 c62 0 66 1 107 42 l43 42 0 110 0 110 -40 47
-40 48 0 225 0 225 -30 34 -30 35 0 489 0 490 23 22 c14 12 31 19 39 16 9 -4
32 1 52 9 43 18 71 71 61 117 -14 63 -96 97 -154 65z m-383 -2578 c30 -30 1
-83 -38 -70 -32 11 -39 42 -14 66 19 19 36 20 52 4z m5866 -2764 c9 -8 16 -22
16 -29 0 -20 -28 -45 -50 -45 -20 0 -50 25 -50 41 0 44 53 64 84 33z"/>
<path d="M13339 22442 c-28 -25 -32 -35 -32 -74 1 -44 -1 -47 -98 -144 l-99
-99 0 -810 0 -810 -98 -98 -97 -97 -453 0 -453 0 -25 29 c-45 54 -129 49 -159
-10 -56 -108 81 -201 159 -108 l25 29 468 0 468 0 113 113 112 112 0 805 0
805 98 97 c90 90 100 97 137 96 32 0 45 6 67 31 39 43 38 92 -1 132 -40 39
-89 40 -132 1z m82 -32 c32 -18 19 -80 -17 -80 -17 0 -44 28 -44 45 0 13 26
45 36 45 3 0 14 -5 25 -10z m-1477 -2112 c16 -26 -4 -53 -40 -53 -23 0 -30 5
-32 23 -2 13 -1 30 2 38 8 20 56 14 70 -8z"/>
<path d="M13646 22404 c-25 -26 -30 -41 -27 -94 1 -20 -29 -56 -144 -170
l-145 -145 0 -800 0 -800 -163 -163 -162 -162 -500 0 c-439 0 -503 -2 -523
-16 -15 -10 -32 -13 -53 -9 -59 13 -119 -35 -119 -95 0 -35 27 -76 59 -90 66
-27 134 19 136 93 l1 42 517 5 517 5 175 176 175 175 0 805 0 804 138 138
c134 134 138 137 180 137 58 0 102 41 102 95 0 83 -105 127 -164 69z m98 -46
c13 -19 14 -25 2 -43 -18 -26 -40 -30 -60 -10 -20 21 -20 39 0 59 21 22 40 20
58 -6z m-1806 -2380 c30 -30 0 -75 -43 -64 -19 5 -25 13 -25 35 0 15 3 31 7
34 11 11 48 8 61 -5z"/>
<path d="M15965 22411 c-37 -16 -58 -49 -58 -93 0 -34 6 -47 32 -70 25 -23 31
-35 31 -70 l0 -43 -550 -550 -550 -550 0 -322 c0 -316 0 -322 -21 -333 -27
-15 -49 -68 -42 -103 3 -15 19 -39 36 -53 26 -22 38 -25 71 -21 90 12 118 123
44 175 -17 12 -18 33 -18 320 l0 307 547 547 547 547 4 66 c3 45 9 68 19 72
18 7 43 56 43 83 0 69 -71 117 -135 91z m70 -91 c0 -29 -4 -36 -23 -38 -43 -6
-69 37 -40 66 7 7 24 12 38 10 21 -3 25 -8 25 -38z m-1107 -1989 c8 -5 12 -21
10 -37 -3 -32 -38 -45 -64 -24 -40 34 9 90 54 61z"/>
<path d="M9510 22329 c-95 -39 -104 -161 -14 -204 l34 -16 0 -202 0 -202 150
-150 150 -150 0 -435 0 -436 -73 -72 c-64 -63 -75 -71 -86 -58 -21 25 -75 30
-116 10 -69 -33 -83 -124 -27 -176 36 -34 74 -42 116 -24 46 19 69 57 68 110
0 41 4 47 79 122 l79 79 0 445 0 445 -155 155 -155 155 0 193 c0 174 2 193 18
199 29 10 61 45 72 79 26 79 -63 164 -140 133z m68 -71 c21 -21 15 -67 -12
-79 -45 -21 -90 26 -66 71 12 23 58 28 78 8z m53 -1898 c22 -12 26 -59 7 -78
-19 -19 -66 -15 -78 7 -14 28 -13 38 10 61 23 23 33 24 61 10z"/>
<path d="M6585 22176 c-50 -22 -70 -52 -70 -106 0 -88 78 -140 160 -105 l39
16 241 -241 240 -240 280 0 280 0 17 -30 c9 -16 33 -37 52 -47 30 -14 41 -15
76 -4 100 30 106 162 11 207 -31 15 -40 15 -75 3 -26 -9 -48 -26 -61 -46 l-20
-32 -265 -1 -265 0 -241 243 c-228 229 -241 244 -242 280 0 48 -24 85 -67 103
-41 17 -51 17 -90 0z m1315 -616 c26 -26 25 -55 -2 -74 -28 -20 -43 -20 -62 0
-23 22 -20 60 6 78 29 20 34 20 58 -4z"/>
<path d="M5975 21661 c-50 -21 -81 -86 -65 -137 23 -69 95 -101 166 -74 25 10
32 6 114 -75 l87 -85 1164 0 1164 0 296 -296 296 -296 -20 -38 c-19 -33 -20
-42 -8 -79 24 -81 119 -105 182 -45 36 34 44 72 25 117 -19 47 -56 70 -109 69
l-43 -1 -304 304 -305 305 -1165 0 -1165 0 -81 81 c-78 77 -81 82 -71 109 16
43 -6 106 -46 130 -33 21 -78 25 -112 11z m3340 -1025 c34 -51 -39 -103 -77
-56 -22 27 -23 44 -2 64 23 24 61 20 79 -8z"/>
<path d="M23963 21313 c-31 -6 -79 -56 -86 -89 -7 -39 10 -90 38 -112 l25 -20
0 -1373 0 -1374 -338 -338 -337 -337 -525 0 -525 0 -173 -173 -172 -172 0
-446 0 -446 -25 -13 c-25 -13 -55 -65 -55 -94 0 -61 57 -116 120 -116 101 0
156 123 85 190 l-25 23 0 426 0 426 148 148 147 147 525 0 524 0 363 362 363
363 0 1395 0 1395 29 28 c53 49 53 127 -1 172 -16 14 -36 25 -43 25 -7 0 -19
2 -27 4 -7 2 -23 1 -35 -1z"/>
<path d="M15155 21047 c-17 -14 -28 -36 -32 -63 -4 -33 -1 -45 21 -71 14 -17
37 -34 51 -37 34 -9 93 18 107 48 19 44 46 32 140 -61 l88 -88 0 -210 0 -210
-800 -800 -800 -800 0 -182 c0 -161 -2 -183 -16 -183 -9 0 -31 -15 -50 -34
-41 -41 -47 -97 -14 -139 64 -81 190 -37 190 66 0 31 -7 46 -35 74 l-35 35 0
172 0 171 800 800 800 800 0 231 0 230 -104 102 c-75 74 -110 102 -128 102
-16 0 -29 9 -37 24 -26 49 -103 61 -146 23z m101 -62 c11 -43 -34 -73 -64 -43
-13 13 -16 50 -5 61 3 4 19 7 34 7 22 0 30 -6 35 -25z m-1295 -2665 c37 -20
18 -80 -26 -80 -43 0 -63 58 -27 79 22 13 29 13 53 1z"/>
<path d="M14184 20721 c-32 -14 -54 -51 -54 -89 0 -44 14 -68 50 -87 l30 -16
0 -229 c0 -188 -3 -230 -14 -230 -7 0 -25 -12 -40 -26 -40 -41 -37 -97 9 -140
l35 -33 0 -203 0 -203 -233 -233 -232 -232 -195 0 -195 0 -14 31 c-14 31 -61
59 -99 59 -36 0 -86 -43 -96 -83 -19 -73 47 -147 118 -133 33 7 86 52 86 73 0
10 43 13 208 13 l207 0 248 248 247 247 0 208 0 208 35 33 c46 43 49 99 9 140
-15 14 -33 26 -40 26 -11 0 -14 42 -14 230 l0 229 30 16 c36 19 50 43 50 89 0
66 -74 113 -136 87z m76 -71 c15 -28 -4 -60 -35 -60 -31 0 -50 32 -35 60 6 12
21 20 35 20 14 0 29 -8 35 -20z m-6 -646 c19 -19 20 -36 4 -52 -24 -24 -78 -8
-78 24 0 17 28 44 45 44 7 0 21 -7 29 -16z m-993 -984 c29 -16 26 -67 -6 -82
-21 -9 -28 -8 -45 7 -24 22 -25 42 -3 67 19 21 27 22 54 8z"/>
<path d="M15171 20716 c-29 -16 -50 -52 -51 -88 0 -29 44 -88 66 -88 11 0 14
-25 14 -133 l0 -132 -959 -959 -958 -958 -46 -2 c-83 -3 -129 -78 -93 -153 19
-40 73 -67 116 -58 44 10 81 56 84 104 2 41 15 55 974 1014 l972 972 0 161 c0
127 3 168 16 193 21 41 11 84 -28 116 -32 27 -70 31 -107 11z m79 -61 c15 -18
10 -45 -12 -59 -33 -20 -69 20 -54 60 7 18 50 18 66 -1z m-1982 -2367 c20 -20
15 -66 -9 -78 -26 -14 -69 11 -69 40 0 39 51 65 78 38z"/>
<path d="M16521 20666 c-60 -33 -67 -102 -15 -154 30 -30 35 -40 32 -76 l-3
-41 -53 -5 -53 -6 -644 -644 -645 -645 0 -421 0 -420 113 -112 114 -112 164 0
164 0 178 -178 177 -177 0 -465 0 -465 -228 -228 -227 -227 -597 0 c-511 0
-597 2 -601 14 -10 26 -67 49 -105 42 -73 -11 -110 -85 -78 -153 32 -66 119
-78 172 -22 l28 29 605 0 605 0 253 252 253 252 0 511 0 510 -198 198 -197
197 -170 0 -170 0 -83 83 -82 82 0 390 0 390 618 618 617 617 46 0 c39 0 50 5
82 38 35 36 37 41 37 104 0 46 4 69 15 78 24 20 29 75 9 108 -29 49 -84 65
-133 38z m85 -71 c11 -43 -34 -73 -64 -43 -13 13 -16 50 -5 61 3 4 19 7 34 7
22 0 30 -6 35 -25z m-2261 -4329 c22 -33 5 -66 -33 -66 -49 0 -69 42 -36 74
23 23 51 20 69 -8z"/>
<path d="M15853 20385 c-41 -18 -56 -48 -50 -100 l4 -43 -528 -528 -529 -529
0 -520 0 -521 233 -232 233 -232 165 0 164 0 78 -78 77 -77 0 -330 0 -330 -78
-78 -77 -77 -1051 0 c-882 0 -1053 2 -1063 14 -18 22 -69 27 -107 11 -66 -28
-83 -124 -30 -174 52 -49 156 -28 172 34 l6 25 1052 0 1052 0 107 109 107 108
0 358 0 358 -107 108 -107 109 -166 0 -165 0 -203 203 -202 202 0 490 0 490
522 522 c392 392 529 523 546 523 37 0 82 52 82 95 0 49 -15 74 -55 91 -41 17
-42 17 -82 -1z m79 -70 c8 -19 8 -28 -2 -40 -32 -38 -94 1 -70 45 16 29 58 26
72 -5z m-2521 -3662 c12 -33 -19 -68 -54 -59 -31 7 -46 48 -26 72 18 22 70 14
80 -13z"/>
<path d="M16248 19942 l-58 -59 0 -80 c0 -80 -1 -82 -36 -117 -33 -33 -36 -40
-31 -79 10 -72 74 -106 141 -76 24 11 56 63 56 91 0 23 -38 76 -59 83 -19 6
-21 14 -21 83 0 76 0 76 42 119 l42 43 436 0 436 0 72 -73 72 -72 0 -2285 0
-2285 -758 -758 -757 -757 -1420 0 -1420 0 -13 30 c-40 89 -180 70 -198 -28
-14 -72 57 -144 125 -127 30 7 81 53 81 72 0 11 257 13 1433 13 l1432 0 773
773 772 772 0 2294 0 2294 -92 93 -92 94 -449 0 -450 0 -59 -58z m2 -297 c7
-9 10 -25 6 -40 -6 -22 -11 -26 -39 -23 -25 2 -33 8 -35 26 -7 44 41 70 68 37z
m-3349 -5905 c27 -15 26 -66 -2 -80 -16 -9 -26 -8 -45 5 -28 18 -31 41 -7 67
19 21 27 22 54 8z"/>
<path d="M5073 19955 c-42 -18 -66 -56 -66 -105 0 -50 25 -88 70 -107 48 -20
93 -10 129 28 23 24 29 39 30 78 0 26 4 52 8 59 5 9 271 12 1149 12 l1142 0
335 -335 336 -335 794 0 c437 0 801 4 809 9 9 6 25 1 49 -15 43 -30 91 -31
127 -2 89 69 48 198 -63 198 -48 0 -96 -35 -107 -77 -14 -56 32 -53 -809 -53
l-781 0 -330 330 -331 330 -1164 0 c-1025 0 -1165 -2 -1180 -15 -15 -14 -21
-14 -53 0 -44 18 -53 18 -94 0z m4886 -589 c21 -25 9 -69 -21 -80 -50 -17 -89
42 -52 78 19 20 58 21 73 2z"/>
<path d="M19815 19874 c-66 -22 -97 -86 -71 -147 21 -51 52 -72 105 -73 26 0
52 -4 59 -8 9 -5 12 -271 12 -1149 l0 -1142 -330 -330 -330 -330 0 -818 c0
-766 -1 -819 -17 -844 -10 -15 -18 -46 -18 -70 0 -102 137 -144 199 -60 40 54
16 136 -50 165 -16 7 -36 17 -44 21 -13 7 -15 107 -18 792 l-2 784 330 330
330 330 0 1164 c0 1027 -2 1166 -15 1181 -14 15 -14 20 0 46 19 36 19 67 1
103 -29 56 -81 76 -141 55z m-454 -4864 c22 -12 26 -59 7 -78 -7 -7 -25 -12
-40 -12 -40 0 -58 39 -34 75 18 27 36 31 67 15z"/>
<path d="M16592 19817 c-32 -32 -42 -51 -42 -75 0 -20 -5 -32 -13 -32 -8 0
-23 -10 -35 -23 -60 -63 -20 -167 63 -167 100 0 140 123 58 175 -42 26 -41 43
5 88 l38 37 190 0 190 0 67 -68 67 -68 0 -2199 0 -2200 -708 -708 -707 -707
-1315 0 -1316 0 -59 60 -59 60 -268 0 c-250 0 -267 1 -272 18 -13 39 -55 67
-103 67 -38 0 -49 -5 -74 -33 -40 -45 -40 -99 0 -144 25 -28 36 -33 74 -33 48
0 90 28 103 67 5 17 21 18 261 18 l256 0 68 -65 67 -65 1323 0 1324 0 722 722
723 723 0 2220 0 2220 -78 78 -77 77 -216 0 -215 0 -42 -43z m8 -171 c6 -8 10
-25 8 -38 -2 -19 -9 -23 -38 -23 -29 0 -36 4 -38 23 -4 28 14 52 38 52 10 0
23 -7 30 -14z m-4196 -5642 c9 -8 16 -24 16 -34 0 -20 -25 -50 -41 -50 -27 0
-49 22 -49 50 0 44 44 65 74 34z"/>
<path d="M6393 19824 c-31 -15 -63 -65 -63 -98 0 -9 6 -32 14 -51 19 -45 66
-69 121 -62 39 6 44 3 85 -38 l44 -45 370 0 370 0 251 -250 251 -250 340 0
339 0 130 -130 130 -130 180 0 181 0 53 54 c35 35 65 56 86 60 37 7 80 49 89
88 8 36 -15 92 -48 113 -55 36 -134 12 -164 -49 -18 -37 -7 -92 24 -123 l26
-26 -38 -38 -38 -39 -171 0 -170 0 -130 130 -130 130 -340 0 -340 0 -245 245
-245 245 -370 0 -371 0 -41 43 c-39 40 -41 43 -28 67 30 53 9 127 -45 155 -37
19 -67 19 -107 -1z m2895 -796 c19 -19 15 -66 -7 -78 -31 -16 -49 -12 -67 15
-24 36 -6 75 34 75 15 0 33 -5 40 -12z"/>
<path d="M16884 19710 c-34 -13 -64 -59 -64 -97 0 -41 46 -93 82 -93 13 0 29
-5 36 -12 9 -9 12 -480 12 -2058 l0 -2045 -538 -538 -537 -537 -513 0 -513 0
-22 26 c-16 19 -36 27 -70 31 -43 5 -49 3 -82 -30 -25 -25 -35 -44 -35 -67 0
-66 43 -109 108 -110 35 0 49 6 74 30 l30 30 531 0 532 0 562 562 563 563 0
2081 c0 2035 0 2081 -19 2098 -15 14 -17 23 -10 48 13 45 -12 95 -55 113 -40
17 -43 17 -72 5z m60 -66 c20 -19 20 -38 2 -54 -23 -19 -61 -8 -64 18 -7 44
32 67 62 36z m-2166 -5326 c7 -7 12 -21 12 -33 0 -12 -5 -26 -12 -33 -7 -7
-21 -12 -33 -12 -12 0 -26 5 -33 12 -7 7 -12 21 -12 33 0 12 5 26 12 33 7 7
21 12 33 12 12 0 26 -5 33 -12z"/>
<path d="M15875 19422 c-38 -7 -75 -53 -75 -93 0 -40 28 -84 60 -94 19 -6 20
-16 20 -273 l0 -268 63 -62 c61 -61 63 -62 118 -62 54 0 55 0 122 -68 l67 -68
0 -999 0 -1000 -258 -258 -257 -257 -802 0 c-787 0 -802 0 -808 20 -10 31 -63
70 -96 70 -41 0 -83 -23 -97 -55 -30 -65 -2 -133 62 -155 45 -15 100 7 124 50
l17 30 805 0 804 0 273 272 273 273 0 1010 0 1010 -78 78 -77 77 -56 0 c-53 0
-56 2 -107 53 l-52 53 0 259 0 260 35 28 c30 24 35 34 35 71 0 65 -52 110
-115 98z m49 -68 c22 -21 20 -40 -6 -58 -19 -13 -25 -14 -43 -2 -26 18 -30 40
-10 60 21 20 39 20 59 0z m-1873 -3414 c37 -20 18 -80 -26 -80 -12 0 -26 5
-33 12 -25 25 -8 78 26 78 7 0 22 -5 33 -10z"/>
<path d="M16193 19423 c-12 -2 -34 -18 -49 -36 -36 -42 -29 -100 15 -138 l31
-25 0 -155 0 -155 73 -72 72 -72 81 0 80 0 67 -68 67 -68 0 -1529 0 -1530
-333 -333 -332 -332 -553 0 -553 0 -33 35 c-28 29 -40 35 -75 35 -53 0 -77
-12 -96 -50 -25 -49 -19 -88 19 -126 25 -25 43 -34 67 -34 41 0 95 31 104 59
6 21 9 21 573 21 l567 0 353 353 352 352 0 1554 0 1554 -80 81 -79 81 -88 3
-88 4 -52 51 -53 51 0 152 c0 146 1 153 21 159 11 4 27 23 35 42 32 75 -32
151 -113 136z m52 -66 c21 -16 15 -61 -11 -71 -39 -15 -73 41 -42 72 16 16 30
15 53 -1z m-1467 -4449 c7 -7 12 -21 12 -33 0 -12 -5 -26 -12 -33 -7 -7 -21
-12 -33 -12 -12 0 -26 5 -33 12 -7 7 -12 21 -12 33 0 12 5 26 12 33 7 7 21 12
33 12 12 0 26 -5 33 -12z"/>
<path d="M16498 19401 c-28 -25 -33 -36 -33 -74 0 -48 28 -90 67 -103 16 -5
18 -17 18 -113 l0 -107 38 -37 c36 -35 41 -37 103 -37 60 0 67 -2 97 -33 l32
-33 0 -1695 0 -1694 -438 -438 -437 -437 -548 0 c-328 0 -547 4 -547 9 0 22
-53 71 -84 77 -101 18 -166 -101 -97 -178 25 -28 36 -33 74 -33 48 0 90 28
103 67 5 17 30 18 557 18 l551 0 448 447 448 448 0 1716 0 1716 -45 42 c-42
39 -48 41 -108 41 -53 0 -67 4 -85 23 -20 21 -22 34 -22 123 0 99 0 99 29 116
16 9 37 31 46 48 54 104 -80 199 -167 121z m114 -56 c10 -22 9 -29 -9 -47 -41
-40 -100 2 -73 52 16 30 67 27 82 -5z m-1841 -4725 c26 -15 26 -66 -1 -80 -48
-26 -91 30 -55 70 21 23 29 24 56 10z"/>
<path d="M9896 19099 c-70 -19 -103 -92 -72 -157 l17 -35 -178 -179 -178 -178
-490 0 -491 0 -59 60 c-55 56 -60 64 -60 105 -1 59 -29 90 -84 90 -46 0 -77
-24 -86 -65 -14 -64 56 -126 112 -101 25 12 30 9 97 -58 l71 -71 500 0 500 0
187 187 187 187 52 0 c47 1 54 5 84 39 l32 37 269 0 269 0 410 -410 410 -410
195 0 195 0 203 -203 202 -202 0 -1369 0 -1368 72 -74 71 -74 78 0 c70 0 78
-2 93 -25 42 -63 152 -50 182 22 30 71 -21 153 -96 153 -28 0 -90 -34 -90 -50
0 -6 -28 -10 -67 -10 -66 0 -68 1 -110 42 l-43 42 0 1371 0 1370 -233 233
-232 232 -195 0 -195 0 -405 405 -405 405 -293 0 -293 0 -22 25 c-27 31 -72
45 -111 34z m62 -71 c22 -22 14 -67 -14 -80 -45 -21 -87 21 -66 66 13 28 58
36 80 14z m2666 -4107 c33 -37 -10 -94 -53 -71 -43 22 -28 90 19 90 9 0 25 -9
34 -19z"/>
<path d="M21515 18976 c-16 -7 -38 -23 -48 -34 -26 -29 -33 -92 -14 -129 l16
-30 -85 -84 -84 -84 0 -1160 0 -1160 -302 -302 c-291 -291 -303 -302 -321
-285 -12 11 -36 17 -63 17 -36 0 -49 -6 -76 -33 -62 -61 -37 -154 48 -182 69
-23 140 36 137 115 l-1 42 304 304 304 304 0 1160 0 1160 83 83 83 82 44 -5
c138 -18 183 167 54 221 -40 17 -41 17 -79 0z m-864 -3327 c20 -20 19 -51 -1
-73 -15 -15 -63 -9 -77 10 -18 25 -16 41 7 64 25 25 45 25 71 -1z"/>
<path d="M9745 18570 c-114 -115 -122 -120 -161 -120 -51 0 -88 -27 -104 -75
-15 -44 1 -99 36 -122 l24 -15 0 -212 0 -212 109 -107 108 -107 699 0 699 0
158 -158 157 -157 0 -1170 0 -1169 327 -328 328 -328 913 0 914 0 62 60 63 60
89 0 c78 0 91 -2 101 -20 34 -54 119 -62 166 -15 61 62 28 165 -58 181 -34 6
-65 -5 -100 -36 -16 -15 -42 -19 -132 -22 l-112 -3 -58 -57 -59 -58 -879 0
-880 0 -297 297 -298 298 0 1170 0 1170 -188 188 -187 187 -700 0 -700 0 -78
78 -77 77 0 197 0 196 24 15 c34 23 51 78 37 119 -11 32 -11 33 96 140 l108
108 295 0 295 0 295 -295 296 -295 300 0 299 0 153 -153 152 -152 0 -688 0
-688 -30 -25 c-38 -33 -49 -84 -26 -131 19 -40 72 -67 114 -57 36 9 80 50 87
84 8 35 -16 95 -44 109 -20 11 -21 16 -23 716 l-3 705 -176 175 -175 175 -300
0 -299 0 -295 295 -295 295 -325 0 -325 0 -120 -120z m-119 -205 c15 -23 15
-27 0 -50 -10 -15 -26 -25 -41 -25 -15 0 -31 10 -41 25 -15 23 -15 27 0 50 10
15 26 25 41 25 15 0 31 -10 41 -25z m2423 -2089 c7 -8 11 -27 9 -43 -2 -22 -9
-29 -31 -31 -50 -6 -75 38 -41 72 19 20 48 20 63 2z m2332 -1786 c29 -16 26
-67 -6 -82 -21 -9 -28 -8 -45 7 -24 22 -25 42 -3 67 19 21 27 22 54 8z"/>
<path d="M19685 18550 c-11 -4 -31 -20 -45 -35 -20 -21 -25 -37 -25 -80 0 -50
-3 -57 -42 -97 l-43 -44 0 -369 0 -370 -245 -245 -245 -245 0 -340 0 -340
-135 -135 -135 -135 0 -178 0 -178 54 -57 c29 -31 56 -70 60 -87 16 -68 88
-107 149 -81 113 47 84 211 -38 211 -35 0 -50 -6 -74 -29 l-31 -30 -40 39 -40
39 0 171 0 170 130 130 130 130 0 340 0 340 245 245 245 245 0 370 0 369 42
43 c41 42 41 42 71 26 69 -35 154 8 164 84 12 88 -73 156 -152 123z m-655
-2880 c23 -23 24 -33 10 -61 -7 -13 -21 -19 -45 -19 -33 0 -55 20 -55 49 0 16
38 51 55 51 8 0 24 -9 35 -20z"/>
<path d="M10201 18436 c-58 -32 -68 -116 -21 -169 29 -34 30 -37 30 -142 l0
-107 67 -69 66 -69 491 0 491 0 213 -213 212 -212 0 -1150 0 -1150 252 -252
253 -253 744 0 745 0 161 160 161 160 93 0 c90 0 94 -1 123 -30 80 -80 218 8
175 112 -19 45 -39 60 -90 65 -38 5 -48 1 -79 -26 -35 -31 -36 -31 -149 -31
l-113 0 -161 -160 -161 -160 -709 0 -710 0 -223 223 -222 222 0 1155 0 1155
-238 237 -237 238 -496 0 -495 0 -37 38 -37 38 0 92 c0 91 0 93 33 121 28 26
32 35 32 81 0 46 -4 55 -33 81 -36 32 -89 38 -131 15z m103 -79 c8 -23 6 -31
-12 -49 -30 -30 -75 -16 -80 25 -5 38 15 59 52 55 23 -2 33 -10 40 -31z m4084
-3309 c7 -7 12 -21 12 -33 0 -12 -5 -26 -12 -33 -27 -27 -78 -7 -78 29 0 39
52 63 78 37z"/>
<path d="M22030 18373 c-28 -11 -59 -46 -70 -78 -8 -25 -7 -43 4 -76 l15 -44
-239 -240 -240 -241 0 -279 0 -280 -30 -17 c-38 -21 -62 -75 -54 -117 9 -41
66 -91 105 -91 105 0 157 128 78 194 -17 14 -35 26 -40 26 -5 0 -9 111 -9 268
l0 267 243 241 c229 228 244 241 280 242 104 1 153 124 78 196 -29 28 -89 42
-121 29z m-466 -1319 c22 -21 20 -47 -4 -69 -44 -40 -107 25 -69 71 15 19 54
18 73 -2z"/>
<path d="M4977 17292 l-87 -87 0 -449 0 -449 58 -59 59 -58 85 0 c79 0 85 -2
97 -24 44 -82 181 -45 181 48 0 52 -43 98 -93 98 -43 0 -83 -22 -92 -52 -6
-18 -15 -20 -83 -20 -76 0 -76 0 -119 42 l-43 42 0 436 0 436 73 72 72 72
2285 0 2285 0 758 -758 757 -757 0 -1422 c0 -1372 -1 -1422 -18 -1427 -39 -13
-67 -55 -67 -103 0 -38 5 -49 33 -74 77 -69 196 -4 178 97 -6 31 -55 84 -77
84 -5 0 -9 564 -9 1433 l0 1432 -768 768 -767 767 -2305 0 -2305 0 -88 -88z
m321 -1044 c25 -25 4 -78 -32 -78 -10 0 -36 32 -36 45 0 17 27 45 44 45 6 0
17 -5 24 -12z m5926 -3344 c21 -21 20 -37 -4 -59 -40 -36 -96 7 -70 55 13 24
52 26 74 4z"/>
<path d="M5107 17142 l-77 -77 0 -216 0 -216 50 -47 c27 -25 58 -46 69 -46 10
0 35 -16 54 -35 27 -27 43 -35 72 -35 50 0 95 44 95 93 0 42 -37 92 -75 101
-34 9 -93 -18 -107 -48 -16 -36 -38 -32 -81 12 l-37 38 0 190 0 190 68 67 68
67 2199 0 2200 0 708 -708 707 -707 0 -1315 0 -1316 -60 -59 -60 -59 0 -268 0
-268 -25 -10 c-14 -5 -34 -24 -45 -42 -55 -88 42 -196 135 -152 33 16 65 65
65 101 0 29 -38 83 -65 93 l-25 10 0 258 0 258 65 64 65 64 0 1326 0 1325
-722 722 -723 723 -2220 0 -2220 0 -78 -78z m191 -541 c8 -5 12 -21 10 -37 -3
-32 -38 -45 -64 -24 -40 34 9 90 54 61z m5657 -4201 c27 -30 7 -70 -35 -70
-42 0 -62 40 -35 70 10 11 26 20 35 20 9 0 25 -9 35 -20z"/>
<path d="M5346 17021 c-13 -14 -26 -17 -60 -14 -53 6 -91 -15 -106 -61 -32
-98 87 -170 161 -97 16 16 29 40 29 53 0 13 5 29 12 36 9 9 480 12 2058 12
l2045 0 538 -538 537 -537 0 -518 c0 -456 -2 -518 -15 -524 -21 -7 -45 -56
-45 -88 0 -61 45 -104 108 -105 35 0 49 6 73 29 24 24 29 38 29 76 0 39 -5 52
-30 75 l-30 28 0 533 0 534 -563 562 -562 563 -2081 0 c-2021 0 -2081 -1
-2098 -19z m-48 -73 c24 -24 8 -78 -24 -78 -17 0 -44 28 -44 45 0 17 27 45 44
45 6 0 17 -5 24 -12z m5340 -2170 c7 -7 12 -21 12 -33 0 -12 -5 -26 -12 -33
-7 -7 -21 -12 -33 -12 -12 0 -26 5 -33 12 -7 7 -12 21 -12 33 0 12 5 26 12 33
7 7 21 12 33 12 12 0 26 -5 33 -12z"/>
<path d="M5967 16802 c-46 -46 -47 -50 -47 -108 0 -50 -4 -64 -23 -82 -21 -20
-34 -22 -125 -22 -100 0 -101 0 -114 28 -7 15 -30 35 -50 45 -123 60 -213
-130 -91 -192 51 -26 131 6 148 59 6 18 16 20 114 20 l107 0 37 38 c34 35 37
42 37 98 0 55 3 63 33 92 l33 32 1695 0 1694 0 438 -438 437 -437 0 -542 c0
-517 -1 -542 -18 -547 -39 -13 -67 -55 -67 -103 0 -38 5 -49 33 -74 24 -22 42
-29 72 -29 30 0 48 7 72 29 28 25 33 36 33 74 0 48 -28 90 -67 103 -17 5 -18
30 -18 552 l0 547 -453 453 -452 452 -1705 0 -1706 0 -47 -48z m-367 -207 c31
-38 -27 -96 -65 -65 -18 15 -20 51 -3 68 17 17 53 15 68 -3z m4744 -1821 c19
-18 20 -28 6 -55 -21 -39 -90 -16 -90 30 0 16 30 41 50 41 10 0 26 -7 34 -16z"/>
<path d="M6148 16602 l-88 -88 0 -80 0 -80 -53 -52 -53 -52 -147 0 -147 0 -28
31 c-21 24 -36 31 -64 31 -66 0 -100 -34 -100 -100 0 -49 46 -92 98 -92 29 0
44 8 70 35 l33 35 153 0 154 0 72 73 72 72 0 81 0 80 68 67 68 67 1529 0 1530
0 333 -333 332 -332 0 -563 c0 -480 -2 -562 -14 -562 -27 0 -56 -50 -56 -97 0
-111 148 -145 199 -46 25 49 3 120 -43 141 l-26 12 0 567 0 568 -353 353 -353
352 -1549 0 -1549 0 -88 -88z m-554 -361 c19 -21 13 -47 -15 -61 -10 -6 -20
-10 -23 -10 -10 0 -36 32 -36 45 0 17 27 45 44 45 7 0 20 -8 30 -19z m4454
-1463 c28 -28 7 -78 -33 -78 -27 0 -45 18 -45 45 0 27 18 45 45 45 12 0 26 -5
33 -12z"/>
<path d="M18685 16668 c-35 -21 -45 -42 -43 -90 3 -45 1 -48 -64 -116 l-68
-70 0 -498 0 -498 190 -191 c180 -181 190 -193 184 -222 -7 -37 16 -86 51
-109 l25 -16 0 -272 0 -271 -410 -410 -410 -410 0 -195 0 -195 -203 -203 -202
-202 -1369 0 -1368 0 -74 -72 -74 -71 0 -76 c0 -71 -2 -77 -31 -107 -25 -26
-32 -41 -32 -74 0 -82 92 -134 161 -90 59 37 67 117 17 170 -21 22 -25 35 -25
86 0 57 2 62 43 102 l43 42 1369 0 1370 0 233 233 232 232 0 195 0 195 410
410 410 411 0 290 c0 276 1 292 20 309 25 23 43 79 35 107 -11 36 -56 77 -91
84 -21 4 -45 0 -69 -12 l-37 -17 -179 179 -179 179 0 490 0 491 60 59 c56 56
64 60 106 60 38 1 51 6 70 28 13 16 24 41 24 57 0 59 -77 107 -125 78z m346
-1669 c21 -21 19 -56 -5 -71 -31 -21 -86 4 -86 38 0 19 36 54 55 54 8 0 24 -9
36 -21z m-4109 -2666 c24 -21 23 -45 -2 -68 -30 -27 -70 -7 -70 34 0 45 39 64
72 34z"/>
<path d="M4274 16660 c-12 -4 -31 -21 -44 -37 -26 -33 -23 -92 6 -124 38 -42
128 -32 155 17 11 22 19 25 58 22 l46 -3 3 -50 3 -51 649 -649 650 -650 415 0
416 0 114 116 115 116 0 164 0 164 173 173 172 172 475 0 475 0 223 -223 222
-222 0 -598 c0 -528 -2 -598 -15 -604 -22 -8 -45 -56 -45 -94 0 -22 10 -41 35
-66 33 -33 39 -35 81 -30 52 5 79 26 94 72 13 40 -6 96 -39 117 -21 13 -21 16
-21 622 l0 610 -252 253 -252 253 -510 0 -510 0 -198 -198 -198 -198 0 -169 0
-170 -87 -87 -88 -88 -380 0 -380 0 -623 623 -622 622 0 46 c0 42 -4 51 -40
83 -36 33 -45 36 -98 36 -38 0 -71 7 -97 20 -43 22 -50 23 -81 10z m66 -65 c7
-9 10 -25 6 -40 -6 -22 -11 -26 -39 -23 -25 2 -33 8 -35 26 -7 44 41 70 68 37z
m4348 -2281 c4 -38 -18 -59 -53 -50 -15 4 -27 16 -31 31 -9 35 12 57 50 53 27
-3 31 -7 34 -34z"/>
<path d="M7634 16556 c-107 -47 -73 -206 44 -206 34 0 87 39 97 70 6 19 18 20
438 20 l432 0 298 -298 297 -297 0 -1275 0 -1275 -203 -203 -202 -202 -850 0
-850 0 -487 -487 -488 -488 0 -155 0 -155 -492 -492 -493 -493 -80 0 c-79 1
-80 1 -100 33 -15 23 -32 35 -62 42 -26 6 -57 25 -81 48 l-38 37 -130 0 -130
0 -62 63 -62 63 0 69 c0 68 -1 70 -42 112 l-42 43 -111 0 -111 0 -39 -40 -39
-40 -233 0 -232 0 -34 -30 -35 -30 -489 0 -490 0 -21 23 c-12 13 -19 26 -16
30 12 11 -8 66 -32 90 -31 31 -70 39 -110 22 -103 -43 -76 -195 34 -195 24 0
49 7 63 19 23 19 24 19 52 -5 l29 -24 497 0 497 0 29 30 29 30 236 0 236 0 39
40 39 40 101 0 101 0 32 -33 c30 -31 32 -38 32 -103 l0 -70 68 -67 68 -67 129
0 129 0 33 -32 33 -32 -21 -22 c-45 -48 -17 -139 49 -158 41 -12 88 8 108 45
14 29 16 29 102 29 l87 0 502 502 503 503 0 155 0 155 478 478 477 477 850 0
850 0 213 213 212 212 0 1295 0 1295 -308 308 -308 307 -435 0 -436 0 -11 24
c-22 50 -88 74 -138 52z m74 -68 c36 -36 -11 -93 -57 -69 -39 21 -21 81 24 81
12 0 26 -5 33 -12z m-2760 -5865 c6 -10 6 -28 1 -40 -14 -39 -79 -25 -79 17 0
38 61 56 78 23z"/>
<path d="M1030 16523 c-23 -9 -60 -45 -60 -60 0 -10 -50 -13 -256 -13 l-255 0
-55 -51 c-52 -50 -54 -53 -54 -106 0 -46 -4 -57 -27 -78 -23 -19 -28 -31 -28
-70 0 -39 5 -51 28 -71 30 -26 83 -32 118 -14 56 30 61 123 9 162 -41 30 -42
89 -3 130 l27 28 249 0 249 0 31 -26 c25 -21 38 -25 70 -21 21 3 49 15 61 26
14 13 36 21 57 21 31 0 51 -17 216 -182 l183 -183 293 -3 292 -3 700 -699 700
-700 393 0 393 0 48 45 48 45 164 0 163 0 33 -32 c30 -29 32 -33 17 -49 -21
-24 -22 -81 -1 -112 9 -14 32 -30 51 -37 96 -31 169 89 97 161 -16 16 -37 29
-47 29 -9 0 -43 25 -75 55 l-58 55 -181 0 -181 0 -48 -45 -48 -45 -374 0 -374
0 -700 700 -700 700 -285 0 -284 0 -186 185 c-185 184 -186 185 -231 185 -38
0 -46 4 -61 30 -23 41 -74 59 -118 43z m-619 -343 c25 -14 25 -56 -1 -70 -42
-22 -82 34 -48 68 15 15 24 15 49 2z m4537 -1597 c16 -31 -4 -63 -41 -63 -25
0 -44 45 -27 65 17 20 57 19 68 -2z"/>
<path d="M6369 16213 l-79 -76 0 -57 c0 -54 -2 -57 -53 -108 l-53 -52 -257 0
-258 0 -33 35 c-43 46 -91 48 -137 7 -34 -30 -42 -80 -19 -122 15 -28 67 -50
103 -43 26 5 77 54 77 74 0 5 111 9 268 9 l268 0 62 63 c61 61 62 63 62 118 0
54 0 55 68 122 l68 67 999 0 1000 0 258 -258 257 -257 0 -803 0 -802 -22 -9
c-86 -33 -87 -162 -2 -197 60 -25 122 6 144 72 15 44 -7 97 -49 119 l-31 16 0
807 0 807 -273 272 -272 273 -1009 0 -1008 0 -79 -77z m-769 -303 c12 -22 4
-46 -17 -54 -46 -18 -81 35 -44 65 25 20 47 16 61 -11z m3419 -1854 c7 -8 11
-27 9 -43 -2 -22 -9 -29 -31 -31 -50 -6 -75 38 -41 72 19 20 48 20 63 2z"/>
<path d="M21805 15760 l-440 -440 -131 0 c-128 0 -131 0 -144 25 -18 33 -74
58 -114 51 -108 -20 -122 -170 -19 -212 45 -19 95 -4 125 37 l22 29 140 0 140
0 441 440 440 440 395 0 395 0 200 -200 199 -199 -3 -48 c-3 -59 21 -96 74
-113 97 -32 177 69 129 161 -19 37 -74 63 -116 54 -29 -7 -41 4 -242 204
l-212 211 -420 0 -419 0 -440 -440z m1783 -46 c30 -21 29 -59 -3 -80 -23 -15
-27 -15 -50 0 -29 19 -32 51 -8 78 20 22 32 23 61 2z m-2558 -394 c23 -23 24
-33 10 -61 -20 -37 -100 -16 -100 27 0 19 36 54 55 54 8 0 24 -9 35 -20z"/>
<path d="M2503 16065 c-31 -31 -35 -40 -30 -72 9 -54 47 -88 98 -88 36 0 46 6
74 38 28 32 38 37 76 37 l44 0 550 -550 550 -550 318 0 c257 0 317 -3 317 -13
0 -28 50 -62 92 -62 33 0 45 6 69 33 16 18 29 43 29 57 0 58 -47 105 -104 105
-28 0 -86 -44 -86 -66 0 -12 -50 -14 -313 -14 l-312 0 -550 550 -550 550 -48
0 c-43 0 -52 4 -86 40 -50 53 -89 54 -138 5z m97 -40 c26 -32 -13 -81 -47 -59
-35 22 -23 74 17 74 10 0 23 -7 30 -15z m2028 -1122 c3 -28 -1 -33 -23 -39
-29 -7 -55 10 -55 35 0 25 22 42 50 39 20 -2 26 -9 28 -35z"/>
<path d="M4538 15974 c-40 -21 -56 -80 -33 -123 19 -38 67 -62 109 -54 26 5
64 -30 555 -521 l526 -526 526 0 525 0 232 233 232 233 0 160 0 159 83 83 82
82 325 0 325 0 78 -78 77 -77 0 -1045 c0 -1037 0 -1044 -21 -1087 -17 -36 -19
-48 -9 -77 15 -47 42 -68 94 -73 42 -5 48 -3 81 30 25 25 35 44 35 66 0 45
-24 87 -60 103 l-30 13 0 1050 0 1050 -103 103 -102 102 -370 0 -370 0 -102
-102 -103 -103 0 -165 0 -165 -203 -203 -202 -202 -490 0 -490 0 -522 523
c-414 415 -523 529 -528 554 -13 63 -85 91 -147 57z m92 -77 c0 -43 -44 -63
-70 -32 -16 19 -5 62 18 68 27 6 52 -11 52 -36z m3660 -2502 c31 -38 -27 -96
-65 -65 -18 15 -20 66 -2 73 24 10 55 7 67 -8z"/>
<path d="M719 15785 c-33 -18 -53 -66 -44 -102 8 -32 42 -73 62 -73 8 0 13
-12 13 -33 0 -25 10 -42 43 -75 l43 -42 334 0 335 0 630 -630 630 -630 588 0
587 0 45 41 45 42 0 96 c0 97 0 97 33 129 l33 32 201 0 c189 0 201 -1 206 -19
7 -28 54 -55 95 -55 27 0 41 8 64 33 26 29 29 40 25 74 -7 51 -33 77 -84 84
-32 4 -44 1 -71 -22 -18 -15 -32 -33 -32 -41 0 -12 -36 -14 -208 -14 l-208 0
-47 -48 -47 -48 0 -95 c0 -91 -1 -96 -28 -122 l-28 -27 -579 0 -580 0 -630
630 -630 630 -335 0 -334 0 -28 27 c-30 28 -39 83 -15 83 8 0 23 10 35 23 79
85 -17 208 -119 152z m87 -70 c7 -29 -10 -55 -36 -55 -26 0 -43 26 -36 55 5
20 13 25 36 25 23 0 31 -5 36 -25z m3822 -1143 c4 -28 -14 -52 -38 -52 -26 0
-43 26 -36 55 6 22 11 26 39 23 25 -2 33 -8 35 -26z"/>
<path d="M3992 15466 c-62 -63 -102 -111 -102 -124 0 -11 -16 -36 -35 -55 -27
-27 -35 -43 -35 -72 0 -50 44 -95 93 -95 42 0 92 37 101 75 9 34 -18 93 -48
107 -15 6 -26 18 -26 27 0 9 39 55 87 103 l88 88 215 0 215 0 800 -800 800
-800 175 0 175 0 20 -37 c63 -118 242 -32 191 91 -16 39 -60 66 -107 66 -22 0
-41 -10 -66 -35 l-35 -35 -172 0 -171 0 -800 800 -800 800 -231 0 -230 0 -102
-104z m-48 -222 c9 -8 16 -22 16 -29 0 -13 -26 -45 -36 -45 -19 0 -44 24 -44
43 0 43 35 60 64 31z m2695 -1278 c7 -8 11 -27 9 -43 -2 -22 -9 -29 -31 -31
-50 -6 -75 38 -41 72 19 20 48 20 63 2z"/>
<path d="M22190 15453 c-24 -9 -61 -46 -71 -70 -8 -23 -10 -23 -211 -23 l-203
0 -150 -150 -150 -150 -435 0 -435 0 -72 72 -72 71 20 25 c57 73 -20 186 -115
168 -108 -20 -117 -185 -12 -215 19 -5 44 -7 57 -4 19 3 40 -12 104 -76 l80
-81 445 0 445 0 155 155 155 155 195 0 195 0 15 -33 c21 -45 79 -72 123 -58
85 28 111 121 52 181 -31 30 -84 46 -115 33z m70 -73 c23 -23 24 -33 10 -61
-16 -29 -78 -27 -89 4 -10 26 -4 47 17 65 22 17 39 15 62 -8z m-1905 -60 c15
-16 17 -26 9 -48 -17 -50 -94 -39 -94 14 0 49 52 70 85 34z"/>
<path d="M18305 15411 c-11 -5 -31 -21 -44 -35 l-24 -26 -211 0 -210 0 -108
-108 -108 -108 0 -700 0 -699 -158 -158 -157 -157 -1170 0 -1170 0 -327 -328
-328 -327 0 -910 0 -911 60 -59 60 -59 0 -98 c0 -88 -2 -98 -21 -108 -28 -15
-50 -72 -43 -109 7 -35 49 -76 86 -85 100 -23 168 113 93 184 -24 22 -25 29
-25 133 l0 109 -60 62 -60 63 0 879 0 879 297 297 298 298 1175 0 1174 0 183
183 183 183 0 705 0 704 78 78 77 77 196 0 195 0 29 -30 c33 -35 71 -45 110
-30 28 11 32 7 142 -102 l113 -113 0 -290 0 -290 -300 -300 -300 -301 0 -294
0 -295 -153 -153 -152 -152 -688 0 -687 0 -28 31 c-19 21 -39 32 -69 36 -39 5
-46 2 -78 -30 -28 -28 -35 -43 -35 -75 0 -77 74 -127 144 -98 19 8 41 24 48
35 13 21 15 21 712 21 l700 0 178 177 178 177 0 300 0 301 300 300 300 301 0
314 0 313 -126 128 c-102 102 -125 131 -120 147 9 28 -17 87 -46 106 -31 20
-78 28 -103 17z m66 -61 c13 -7 19 -21 19 -45 0 -33 -20 -55 -49 -55 -16 0
-51 38 -51 55 0 17 35 55 51 55 6 0 19 -5 30 -10z m-2097 -2446 c33 -32 13
-74 -35 -74 -57 0 -50 88 8 90 6 0 19 -7 27 -16z m-1790 -2340 c34 -34 9 -78
-41 -72 -22 2 -29 9 -31 31 -6 50 38 75 72 41z"/>
<path d="M4220 15302 c-95 -47 -66 -182 39 -182 39 0 72 21 90 58 11 21 17 22
139 22 l127 0 959 -959 958 -958 2 -48 c2 -40 7 -52 34 -76 58 -52 138 -34
168 37 30 72 -20 144 -99 144 l-42 0 -975 975 -975 975 -156 0 c-117 0 -166 4
-192 15 -44 18 -35 18 -77 -3z m68 -54 c34 -34 -6 -90 -48 -68 -35 19 -20 80
20 80 9 0 21 -5 28 -12z m2378 -1976 c38 -26 7 -90 -39 -78 -30 7 -43 37 -27
66 11 20 45 26 66 12z"/>
<path d="M938 15054 c-54 -29 -66 -102 -24 -151 19 -22 32 -28 70 -28 l47 -1
267 -267 267 -267 150 0 149 0 216 -215 216 -215 340 0 339 0 95 -95 95 -95
795 0 796 0 37 -38 c34 -35 36 -40 27 -71 -29 -101 97 -170 165 -89 36 42 34
91 -6 130 -27 28 -34 30 -78 25 -47 -6 -49 -4 -92 39 l-43 44 -796 0 -795 0
-95 95 -95 95 -340 0 -339 0 -216 215 -216 215 -150 0 -149 0 -259 259 c-234
234 -257 260 -247 279 14 26 14 77 1 103 -12 22 -61 49 -87 49 -10 -1 -30 -7
-45 -16z m82 -64 c24 -44 -38 -83 -70 -45 -10 12 -10 21 -2 40 14 31 56 34 72
5z m3928 -1386 c12 -22 4 -51 -15 -59 -39 -14 -78 30 -53 60 17 20 57 19 68
-1z"/>
<path d="M1195 15061 c-36 -15 -57 -49 -59 -92 -1 -34 5 -46 32 -70 18 -16 42
-29 54 -29 12 0 47 -25 84 -60 l62 -60 158 0 159 0 370 -370 371 -370 284 0
284 0 87 -85 86 -85 869 0 869 0 93 -93 92 -92 0 -453 0 -453 44 -47 c40 -43
43 -49 30 -67 -8 -10 -14 -34 -14 -52 0 -73 66 -117 133 -89 20 8 40 23 46 34
28 52 0 132 -52 147 -12 4 -43 28 -69 53 l-48 46 0 450 0 451 -117 117 -118
118 -870 0 -870 0 -80 80 -80 80 -280 0 -280 0 -372 373 -373 372 -169 3 -168
3 -36 37 c-35 36 -35 38 -25 78 15 55 -2 97 -47 118 -36 18 -50 19 -80 7z m63
-60 c8 -5 12 -21 10 -37 -3 -32 -38 -45 -64 -24 -40 34 9 90 54 61z m4022
-2396 c10 -12 10 -21 2 -40 -13 -29 -43 -33 -66 -9 -19 18 -19 20 -6 45 13 23
52 25 70 4z"/>
<path d="M21615 14960 l-100 -100 -340 0 -341 0 -68 -69 c-60 -60 -72 -68 -92
-61 -32 13 -89 -6 -114 -37 -13 -17 -20 -41 -20 -69 0 -112 143 -155 201 -60
23 38 24 71 4 110 l-16 30 63 63 62 63 341 0 340 0 95 95 95 95 890 0 889 0
57 -56 57 -56 -15 -36 c-31 -74 25 -155 108 -155 49 0 87 25 106 71 38 92 -51
187 -145 154 -28 -10 -33 -6 -93 54 l-63 64 -901 0 -900 0 -100 -100z m-921
-323 c8 -23 6 -31 -12 -49 -30 -30 -75 -16 -80 25 -5 38 15 59 52 55 23 -2 33
-10 40 -31z"/>
<path d="M224 14991 c-51 -22 -71 -104 -36 -147 21 -26 54 -44 80 -44 13 0
102 -84 242 -227 l223 -228 92 -3 92 -4 234 -234 234 -234 120 0 120 0 163
-163 162 -162 0 -140 0 -140 358 -357 357 -358 602 0 c583 0 602 -1 608 -19 3
-11 21 -27 41 -36 68 -32 136 14 136 92 0 29 -7 43 -31 65 -44 39 -92 38 -133
-2 l-30 -30 -586 0 -587 0 -333 333 -332 332 0 140 0 139 -188 188 -188 188
-119 0 -120 0 -235 235 -235 235 -85 0 -85 0 -211 211 -212 212 14 33 c12 29
12 39 1 67 -8 17 -21 38 -30 45 -20 17 -77 24 -103 13z m80 -73 c15 -24 -3
-52 -37 -56 -33 -4 -53 28 -37 59 14 25 58 23 74 -3z m3686 -2313 c10 -12 10
-21 2 -40 -13 -29 -43 -33 -66 -9 -19 18 -19 20 -6 45 13 23 52 25 70 4z"/>
<path d="M18268 14711 c-32 -28 -38 -29 -146 -33 l-113 -3 -65 -66 -64 -67 0
-493 0 -494 -207 -207 -208 -208 -1155 0 -1156 0 -252 -253 -252 -253 0 -740
0 -739 160 -160 160 -160 0 -99 c0 -95 -1 -99 -30 -133 -76 -86 8 -213 113
-170 46 20 67 52 67 103 0 34 -6 49 -30 72 -30 30 -30 31 -30 143 l0 113 -160
161 -160 161 0 709 0 710 223 223 222 222 1155 0 1155 0 237 238 238 237 0
490 0 489 42 43 42 43 93 0 c82 0 93 -2 103 -20 14 -26 61 -50 99 -50 37 0 97
49 104 86 20 109 -102 178 -185 105z m111 -45 c21 -25 9 -69 -21 -80 -50 -17
-89 42 -52 78 19 20 58 21 73 2z m-3331 -4098 c7 -7 12 -21 12 -33 0 -12 -5
-26 -12 -33 -29 -29 -78 -7 -78 35 0 36 52 57 78 31z"/>
<path d="M9814 14442 c-45 -36 -56 -90 -29 -141 8 -16 21 -31 30 -34 12 -5 15
-27 15 -124 l0 -117 160 -161 160 -161 0 -709 0 -710 -228 -228 -227 -227
-1150 0 -1151 0 -237 -238 -237 -238 0 -490 0 -490 -38 -37 -38 -37 -93 0
c-90 0 -94 1 -120 29 -49 53 -111 53 -162 1 -23 -23 -29 -37 -29 -72 0 -52 21
-85 66 -104 43 -18 88 -8 124 27 28 28 31 29 135 29 l107 0 69 67 69 66 0 491
0 491 213 213 212 212 1150 0 1150 0 253 253 252 252 0 740 0 740 -160 160
-160 160 0 98 c0 97 1 100 30 127 25 23 30 36 30 75 0 38 -5 52 -29 76 -24 23
-38 29 -73 29 -26 0 -52 -7 -64 -18z m94 -54 c28 -28 7 -78 -33 -78 -27 0 -45
18 -45 45 0 27 18 45 45 45 12 0 26 -5 33 -12z m-3326 -4095 c36 -32 17 -83
-32 -83 -14 0 -31 5 -38 12 -27 27 -3 88 35 88 9 0 25 -7 35 -17z"/>
<path d="M10368 14431 c-28 -25 -33 -36 -33 -75 0 -35 6 -51 28 -73 26 -28 27
-33 27 -137 l0 -108 60 -62 60 -63 0 -879 0 -879 -297 -297 -298 -298 -1170 0
-1170 0 -188 -188 -187 -187 0 -700 0 -700 -78 -78 -77 -77 -196 0 -195 0 -28
29 c-32 33 -66 43 -110 30 -30 -9 -35 -5 -138 98 l-108 108 0 295 0 295 295
295 295 296 0 300 0 299 153 153 152 152 687 0 686 0 36 -36 c34 -34 40 -36
81 -31 53 5 73 20 92 65 18 42 3 92 -34 122 -37 29 -102 27 -137 -5 -14 -13
-26 -29 -26 -35 0 -7 -221 -10 -708 -10 l-708 0 -172 -173 -172 -173 0 -300 0
-299 -295 -295 -295 -295 0 -325 0 -325 120 -120 c115 -115 120 -121 120 -162
0 -106 140 -153 197 -66 15 23 16 23 227 23 l211 0 108 108 107 107 0 700 0
700 158 158 157 157 1170 0 1170 0 328 328 327 327 0 910 0 911 -60 59 -60 59
0 93 c0 93 0 94 33 122 27 25 32 36 32 76 0 40 -5 51 -33 76 -24 22 -42 29
-72 29 -30 0 -48 -7 -72 -29z m112 -51 c22 -41 -13 -80 -59 -65 -48 15 -31 85
19 85 19 0 33 -7 40 -20z m-1806 -2326 c20 -8 21 -57 1 -74 -22 -19 -64 -4
-71 25 -11 42 24 67 70 49z m-2086 -2436 c27 -27 0 -88 -39 -88 -40 0 -65 60
-37 88 7 7 24 12 38 12 14 0 31 -5 38 -12z"/>
<path d="M22798 14385 c-83 -46 -72 -163 17 -201 59 -24 145 21 145 77 0 17 9
19 83 19 l82 0 650 -650 c636 -636 649 -649 631 -669 -38 -41 -18 -129 36
-157 93 -48 198 40 158 135 -19 48 -46 66 -102 67 l-51 2 -651 651 -651 651
-92 0 c-80 0 -92 2 -97 18 -18 56 -105 87 -158 57z m86 -61 c20 -19 21 -58 2
-73 -25 -21 -69 -9 -80 21 -17 50 42 89 78 52z m1651 -1394 c24 -27 13 -68
-22 -76 -34 -9 -57 6 -61 40 -6 53 47 76 83 36z"/>
<path d="M19952 14383 c-12 -3 -35 -20 -50 -39 -27 -34 -28 -34 -107 -34 l-80
0 -507 -507 -508 -508 0 -155 0 -155 -473 -473 -472 -472 -855 0 -855 0 -213
-213 -212 -212 0 -1295 0 -1295 308 -307 307 -308 438 0 437 0 10 -25 c14 -37
68 -67 110 -61 105 16 128 156 33 201 -59 28 -125 2 -146 -57 -6 -17 -36 -18
-439 -18 l-433 0 -293 293 -292 292 0 1285 0 1285 198 198 197 197 855 0 855
0 487 488 488 487 0 155 0 155 493 493 492 492 78 0 c73 0 78 -2 87 -24 11
-31 47 -56 80 -56 17 0 39 -14 65 -40 l39 -40 131 0 131 0 62 -63 62 -63 0
-70 c0 -69 0 -70 43 -112 l43 -42 115 0 115 0 39 40 39 40 231 0 231 0 29 30
29 30 491 0 492 0 21 -23 c14 -15 22 -36 22 -58 0 -59 62 -107 121 -94 75 17
106 113 55 172 -21 24 -32 28 -74 28 -34 0 -56 -6 -69 -18 -19 -16 -21 -16
-38 3 -18 20 -30 20 -530 20 l-512 0 -23 -25 -23 -25 -232 0 -231 0 -44 -45
-44 -45 -96 0 -96 0 -37 38 c-36 36 -37 41 -37 108 l0 70 -68 67 -68 67 -130
0 -130 0 -33 34 c-25 26 -29 35 -17 39 23 9 40 76 27 109 -16 42 -70 70 -119
61z m58 -68 c7 -9 10 -25 6 -40 -6 -22 -11 -26 -39 -23 -25 2 -33 8 -35 26 -7
44 41 70 68 37z m-2769 -5845 c29 -16 26 -67 -6 -82 -21 -9 -28 -8 -45 7 -24
22 -25 42 -3 67 19 21 27 22 54 8z"/>
<path d="M4207 14309 c-22 -13 -47 -61 -47 -93 0 -41 49 -88 92 -89 40 -1 88
26 95 54 5 18 18 19 238 19 l232 0 11 -26 c15 -31 73 -57 108 -48 14 4 37 22
52 40 l27 34 205 0 205 0 233 -233 232 -232 0 -197 c0 -182 -1 -197 -18 -202
-39 -13 -67 -55 -67 -103 0 -38 5 -49 33 -74 24 -22 42 -29 72 -29 30 0 48 7
72 29 28 25 33 36 33 74 0 48 -28 90 -67 103 -17 5 -18 20 -18 212 l0 208
-248 247 -248 247 -208 0 -207 0 -33 35 c-26 27 -41 35 -69 35 -38 0 -97 -40
-97 -66 0 -12 -39 -14 -230 -14 l-230 0 -12 26 c-21 45 -97 69 -141 43z m88
-83 c0 -52 -63 -62 -73 -12 -7 33 6 47 40 44 29 -3 33 -7 33 -32z m653 18 c12
-22 4 -51 -15 -59 -39 -14 -78 30 -53 60 17 20 57 19 68 -1z m1002 -984 c22
-41 -13 -80 -59 -65 -48 15 -31 85 19 85 19 0 33 -7 40 -20z"/>
<path d="M20275 14031 c-62 -26 -81 -110 -34 -156 14 -15 42 -28 65 -32 29 -4
52 -18 92 -56 l52 -51 0 -106 0 -106 53 -52 53 -52 1054 0 1054 0 211 -210
211 -210 266 0 266 0 30 -30 c35 -35 69 -38 105 -10 75 60 7 172 -82 134 -18
-8 -35 -23 -38 -34 -5 -19 -13 -20 -272 -20 l-266 0 -210 210 -210 210 -1055
0 -1056 0 -37 38 -37 38 0 104 0 104 -57 58 -57 58 17 29 c26 45 22 78 -17
117 -34 34 -61 41 -101 25z m65 -66 c26 -32 -13 -81 -47 -59 -35 22 -23 74 17
74 10 0 23 -7 30 -15z"/>
<path d="M62 14005 c-38 -32 -46 -65 -28 -110 11 -25 26 -40 51 -51 44 -18 78
-10 109 27 14 16 33 29 43 29 10 0 130 -112 283 -265 l265 -265 115 0 115 0
680 -680 680 -680 725 0 c723 0 724 0 746 -21 20 -18 22 -28 17 -70 -5 -44 -3
-51 25 -78 41 -41 90 -42 131 -3 64 59 28 162 -57 162 -27 0 -45 9 -78 40
l-44 40 -723 0 -724 0 -672 675 -672 675 -117 0 -117 0 -270 270 c-217 216
-276 270 -297 270 -16 0 -38 12 -56 30 -39 39 -88 41 -130 5z m93 -69 c0 -36
-27 -56 -52 -40 -40 25 -20 77 26 72 21 -2 26 -8 26 -32z m3829 -2002 c20 -20
20 -38 0 -59 -20 -20 -42 -16 -60 10 -12 18 -11 24 2 43 18 26 37 28 58 6z"/>
<path d="M2489 13781 c-33 -34 -40 -91 -14 -128 21 -31 75 -46 110 -33 28 11
33 7 175 -135 l145 -145 800 0 800 0 163 -163 162 -162 0 -500 c0 -429 2 -504
15 -522 12 -17 13 -28 4 -50 -25 -65 20 -133 88 -133 45 0 69 14 89 52 35 68
-13 142 -91 137 -22 -2 -46 1 -53 5 -9 5 -12 128 -12 514 l0 507 -177 177
-178 178 -800 0 -800 0 -136 136 -136 136 5 48 c4 44 2 52 -26 80 -42 41 -92
42 -133 1z m101 -46 c20 -24 -3 -65 -35 -65 -32 0 -55 41 -35 65 7 8 23 15 35
15 12 0 28 -7 35 -15z m2371 -1795 c25 -14 25 -56 -1 -70 -42 -22 -82 34 -48
68 15 15 24 15 49 2z"/>
<path d="M19933 13700 c-26 -11 -53 -59 -53 -94 0 -14 13 -40 29 -58 23 -26
36 -32 69 -32 40 -1 48 -7 174 -133 l133 -133 1135 0 1135 0 600 -600 600
-600 72 0 72 0 -20 -35 c-26 -44 -19 -85 23 -120 61 -52 144 -19 155 61 5 36
1 46 -24 74 -22 24 -39 33 -64 35 -19 0 -44 6 -56 13 -12 7 -50 12 -85 12
l-63 0 -595 595 -595 595 -1135 0 -1135 0 -128 128 -128 128 16 30 c19 36 19
48 0 89 -24 48 -77 67 -132 45z m83 -75 c11 -43 -34 -73 -64 -43 -13 13 -16
50 -5 61 3 4 19 7 34 7 22 0 30 -6 35 -25z m3974 -1629 c6 -8 10 -25 8 -38 -2
-18 -10 -24 -35 -26 -28 -3 -33 1 -39 23 -11 45 37 75 66 41z"/>
<path d="M20249 13695 c-83 -45 -46 -179 49 -180 34 0 44 -7 115 -87 l79 -88
1056 0 1057 0 565 -565 565 -565 130 0 131 0 13 -36 c28 -79 137 -98 193 -35
22 25 28 41 28 77 0 39 -5 51 -34 80 -29 29 -41 34 -79 34 -49 0 -92 -26 -107
-66 -9 -23 -12 -24 -132 -24 l-123 0 -565 565 -565 565 -1056 0 -1056 0 -76
84 c-63 69 -74 86 -62 96 7 6 17 25 20 41 18 83 -70 146 -146 104z m86 -79 c0
-52 -63 -62 -73 -12 -7 33 6 47 40 44 29 -3 33 -7 33 -32z"/>
<path d="M2474 13490 c-56 -22 -73 -112 -30 -155 31 -31 70 -41 103 -26 25 12
31 8 127 -88 l101 -101 810 0 810 0 98 -98 97 -97 0 -460 0 -460 -30 -17 c-87
-49 -49 -178 52 -178 96 0 131 123 50 175 l-31 20 -1 466 0 465 -113 112 -114
112 -809 0 -809 0 -91 91 -91 91 5 48 c4 44 2 52 -26 80 -31 31 -66 37 -108
20z m76 -65 c10 -12 10 -21 2 -40 -14 -31 -56 -34 -72 -5 -24 44 38 83 70 45z
m2081 -1485 c25 -14 25 -56 -1 -70 -42 -22 -82 34 -48 68 15 15 24 15 49 2z"/>
<path d="M19893 13056 c-39 -33 -47 -66 -29 -111 16 -38 74 -72 103 -60 42 16
43 7 43 -524 l0 -506 177 -177 178 -178 800 0 800 0 140 -140 c137 -137 139
-140 136 -180 -2 -33 3 -45 27 -70 73 -73 194 -1 162 96 -15 43 -48 66 -97 66
-36 0 -48 9 -184 144 l-146 144 -804 0 -804 0 -163 163 -162 162 0 506 c0 429
-2 508 -14 519 -11 8 -13 24 -9 59 4 40 2 51 -18 75 -36 41 -95 46 -136 12z
m92 -70 c0 -36 -27 -56 -52 -40 -40 25 -20 77 26 72 21 -2 26 -8 26 -32z
m2379 -1782 c9 -8 16 -22 16 -29 0 -13 -26 -45 -36 -45 -19 0 -44 24 -44 43 0
43 35 60 64 31z"/>
<path d="M20223 13056 c-17 -14 -34 -37 -37 -51 -8 -32 16 -90 43 -105 21 -11
21 -15 21 -483 l0 -472 113 -113 112 -112 810 0 810 0 93 -93 c87 -88 92 -94
92 -135 0 -91 94 -134 161 -74 34 30 42 80 19 122 -15 28 -66 49 -105 43 -27
-4 -40 6 -130 96 l-100 101 -810 0 -810 0 -93 93 -92 92 0 459 0 458 31 36
c27 30 30 41 26 75 -7 51 -33 77 -84 84 -32 4 -44 0 -70 -21z m92 -70 c0 -36
-27 -56 -52 -40 -40 25 -20 77 26 72 21 -2 26 -8 26 -32z m2089 -1472 c29 -29
12 -64 -31 -64 -19 0 -43 25 -43 44 0 10 32 36 45 36 7 0 21 -7 29 -16z"/>
<path d="M20869 13051 c-34 -34 -39 -86 -13 -126 17 -26 72 -49 95 -40 9 3 31
-11 54 -35 l39 -40 726 0 727 0 674 -677 674 -678 120 -3 120 -3 265 -265
c213 -211 271 -264 292 -264 16 0 38 -12 56 -30 77 -76 202 2 162 101 -28 66
-109 81 -162 29 -16 -16 -37 -30 -46 -30 -10 0 -136 119 -282 265 l-265 265
-115 0 -115 0 -680 680 -680 680 -725 0 c-714 0 -724 0 -745 20 -18 17 -21 29
-17 70 4 44 2 52 -26 80 -42 41 -92 42 -133 1z m101 -46 c10 -12 10 -21 2 -40
-13 -29 -43 -33 -66 -9 -19 18 -19 20 -6 45 13 23 52 25 70 4z m3821 -2015
c25 -14 25 -56 -1 -70 -42 -22 -82 34 -48 68 15 15 24 15 49 2z"/>
<path d="M863 12985 c-31 -31 -35 -40 -30 -72 8 -50 46 -85 92 -88 20 -1 41
-7 48 -14 6 -6 42 -11 82 -11 l70 0 595 -595 595 -595 1135 0 1135 0 128 -128
128 -128 -15 -34 c-18 -44 -11 -82 21 -115 58 -57 163 -12 163 70 0 52 -44 95
-97 95 -36 0 -47 8 -173 135 l-135 135 -1135 0 -1135 0 -600 600 -600 600 -68
0 c-37 0 -67 3 -67 8 0 4 7 16 15 26 26 34 18 75 -19 112 -47 47 -86 46 -133
-1z m97 -40 c26 -32 -13 -81 -47 -59 -35 22 -23 74 17 74 10 0 23 -7 30 -15z
m3984 -1647 c13 -19 14 -25 2 -43 -18 -26 -40 -30 -60 -10 -20 21 -20 39 0 59
21 22 40 20 58 -6z"/>
<path d="M722 12773 c-89 -43 -80 -170 14 -209 54 -23 103 -5 138 49 l18 27
127 0 126 0 560 -560 560 -560 1056 0 1056 0 74 -82 74 -83 -18 -37 c-34 -70
8 -138 86 -138 53 0 97 43 97 95 0 50 -44 95 -93 95 -32 0 -44 10 -118 90
l-82 90 -1056 0 -1056 0 -565 565 -565 565 -130 0 -130 0 -17 40 c-12 29 -27
45 -52 55 -45 19 -63 19 -104 -2z m3896 -1465 c34 -34 -6 -90 -48 -68 -25 13
-26 55 -2 69 23 14 36 13 50 -1z"/>
<path d="M9952 12683 c-66 -32 -80 -123 -27 -173 21 -20 25 -32 25 -85 0 -59
-2 -62 -43 -103 l-43 -42 -1369 0 -1370 0 -232 -233 -233 -232 0 -195 0 -195
-405 -405 -405 -405 0 -293 0 -294 -29 -28 c-49 -50 -45 -118 10 -164 35 -30
79 -34 123 -11 l30 16 178 -178 178 -178 0 -495 0 -494 -61 -62 c-55 -55 -65
-61 -86 -53 -52 20 -113 -30 -113 -92 0 -31 53 -79 88 -79 58 0 103 60 83 112
-8 20 0 32 60 94 l69 72 0 503 0 504 -187 187 -187 187 0 52 c-1 47 -5 54 -39
84 l-37 32 0 264 0 264 410 410 410 411 0 199 0 200 203 203 202 202 1370 0
1371 0 72 73 72 72 0 77 c0 68 2 79 21 88 27 15 52 75 44 110 -8 35 -52 76
-90 84 -19 4 -43 0 -63 -11z m88 -74 c9 -16 8 -26 -5 -45 -19 -29 -46 -31 -70
-4 -15 17 -16 24 -7 45 15 32 66 35 82 4z m-4106 -2655 c21 -20 20 -43 -1 -66
-32 -36 -83 -17 -83 32 0 14 5 31 12 38 17 17 54 15 72 -4z"/>
<path d="M13907 12600 c-14 -11 -31 -36 -37 -54 -15 -45 7 -100 50 -124 l30
-17 0 -255 0 -256 -60 -59 -60 -59 0 -1336 0 -1335 718 -718 717 -717 2225 0
2225 0 72 72 73 72 0 221 0 221 -43 42 c-25 24 -52 42 -65 42 -14 0 -38 16
-61 40 -41 44 -72 50 -120 26 -56 -29 -66 -99 -22 -148 24 -27 36 -33 71 -33
37 0 47 6 75 38 18 20 36 37 42 37 5 0 26 -17 46 -38 l37 -38 0 -190 0 -190
-68 -67 -68 -67 -2199 0 -2200 0 -708 708 -707 707 0 1314 0 1314 65 68 65 67
0 256 0 257 40 38 c54 51 56 97 6 147 -41 41 -97 47 -139 14z m104 -61 c24
-46 -33 -93 -69 -57 -16 16 -15 65 1 71 28 12 57 6 68 -14z m5639 -4194 c15
-18 10 -45 -12 -59 -33 -20 -69 20 -54 60 7 18 50 18 66 -1z"/>
<path d="M19576 12369 c-36 -43 -35 -91 3 -130 19 -18 40 -29 57 -29 20 0 41
-13 71 -42 l43 -42 0 -456 0 -455 113 -113 112 -112 870 0 870 0 80 -80 80
-80 285 0 285 0 370 -370 370 -370 160 0 159 0 48 -47 47 -46 -20 -25 c-48
-62 4 -152 87 -152 16 0 39 13 61 35 31 31 35 40 30 72 -8 50 -46 85 -92 88
-29 2 -47 13 -89 54 l-52 51 -166 0 -166 0 -369 375 -368 375 -285 0 -285 0
-80 80 -80 80 -870 0 -870 0 -98 98 -97 97 0 453 0 453 -45 48 c-43 46 -44 48
-25 67 33 34 30 96 -6 129 -41 38 -104 35 -138 -6z m98 -35 c20 -20 20 -38 0
-59 -20 -20 -42 -16 -60 10 -12 18 -11 24 2 43 18 26 37 28 58 6z m4020 -2396
c15 -25 -3 -52 -37 -56 -21 -3 -28 2 -33 22 -12 49 43 76 70 34z"/>
<path d="M20866 12369 c-36 -43 -35 -91 3 -130 39 -38 87 -39 130 -3 17 14 31
32 31 40 0 12 88 14 588 14 l587 0 343 -343 342 -342 0 -140 0 -140 177 -177
178 -178 120 0 119 0 241 -240 241 -240 85 0 84 0 213 -213 c200 -201 212
-214 198 -232 -26 -35 -20 -93 13 -126 39 -38 87 -39 130 -3 25 21 31 33 31
66 0 21 -5 48 -11 60 -13 24 -74 51 -97 44 -13 -4 -80 57 -242 219 l-225 225
-85 0 -85 0 -235 235 -235 235 -120 0 -120 0 -168 168 -167 167 0 140 0 139
-352 353 -353 353 -597 0 c-498 0 -598 2 -598 14 0 7 -12 25 -26 40 -40 39
-103 37 -138 -5z m98 -35 c21 -21 20 -37 -5 -60 -15 -13 -24 -16 -36 -8 -32
20 -38 41 -19 63 23 25 39 26 60 5z m3690 -2320 c19 -19 20 -36 4 -52 -24 -24
-78 -8 -78 24 0 17 28 44 45 44 7 0 21 -7 29 -16z"/>
<path d="M13652 12107 c-72 -40 -73 -144 -2 -185 l30 -17 0 -1430 0 -1430 773
-773 772 -772 2295 0 2295 0 93 93 92 92 0 451 0 451 -59 56 -60 57 -84 0
c-78 0 -84 2 -96 24 -34 62 -134 59 -167 -5 -21 -42 -17 -75 15 -111 24 -27
36 -33 69 -33 42 0 92 34 92 62 0 10 20 13 77 13 l77 0 43 -42 43 -42 0 -436
0 -436 -73 -72 -72 -72 -2285 0 -2285 0 -753 753 -752 752 0 1427 0 1427 21 6
c28 9 59 63 59 104 0 47 -55 101 -101 101 -19 -1 -44 -6 -57 -13z m82 -63 c34
-34 9 -78 -41 -72 -22 2 -29 9 -31 31 -6 50 38 75 72 41z m5922 -3359 c11 -43
-34 -73 -64 -43 -13 13 -16 50 -5 61 3 4 19 7 34 7 22 0 30 -6 35 -25z"/>
<path d="M334 12081 c-90 -55 -49 -201 55 -201 34 0 66 -30 696 -660 l660
-660 93 0 c91 0 93 -1 120 -31 21 -24 39 -32 75 -36 43 -5 49 -3 82 30 29 29
35 42 35 77 0 34 -6 48 -34 76 -28 28 -41 34 -77 34 -36 0 -47 -6 -80 -40 -38
-40 -38 -40 -116 -40 l-78 0 -641 641 -642 642 15 35 c42 101 -69 190 -163
133z m102 -66 c15 -23 15 -27 0 -50 -10 -15 -26 -25 -41 -25 -15 0 -31 10 -41
25 -15 23 -15 27 0 50 10 15 26 25 41 25 15 0 31 -10 41 -25z m1647 -1386 c14
-23 1 -67 -23 -74 -49 -15 -85 29 -60 75 14 25 67 25 83 -1z"/>
<path d="M1155 11939 c-43 -24 -58 -75 -35 -118 26 -49 103 -46 136 4 l16 25
262 0 261 0 210 -210 210 -210 1055 0 1056 0 37 -38 37 -38 0 -105 0 -105 60
-59 c57 -56 59 -60 43 -78 -11 -11 -18 -35 -18 -59 0 -33 6 -45 33 -69 18 -16
44 -29 58 -29 57 0 104 47 104 105 0 40 -50 87 -94 90 -31 2 -48 12 -92 56
l-54 53 0 106 0 106 -48 47 -48 47 -1054 0 -1055 0 -210 210 -210 210 -269 0
-270 0 -25 30 c-30 34 -67 45 -96 29z m3455 -963 c6 -8 10 -25 8 -38 -2 -18
-10 -24 -35 -26 -28 -3 -33 1 -39 23 -11 45 37 75 66 41z"/>
<path d="M18202 11747 c-53 -30 -71 -102 -37 -153 20 -31 77 -56 108 -49 19 5
167 -140 997 -970 l975 -975 158 0 c126 0 164 -3 189 -16 43 -22 102 -5 123
36 35 69 3 137 -71 147 -33 4 -45 1 -72 -22 -18 -15 -32 -33 -32 -41 0 -11
-25 -14 -133 -14 l-132 0 -960 960 -959 959 3 41 c2 35 -2 45 -32 75 -38 38
-82 46 -125 22z m82 -63 c34 -34 9 -78 -41 -72 -22 2 -29 9 -31 31 -6 50 38
75 72 41z m2384 -2011 c3 -28 -1 -33 -23 -39 -29 -7 -55 10 -55 35 0 25 22 42
50 39 20 -2 26 -9 28 -35z"/>
<path d="M18923 11741 c-38 -24 -57 -78 -42 -119 13 -33 48 -72 66 -72 10 0
13 -42 13 -208 l0 -207 248 -248 247 -247 218 0 c181 0 217 -2 217 -14 0 -24
50 -56 87 -56 45 0 69 14 88 50 l16 30 229 0 c201 0 230 -2 230 -15 0 -9 12
-27 26 -40 61 -56 164 -12 164 70 0 82 -103 126 -164 70 -14 -13 -26 -31 -26
-40 0 -13 -29 -15 -230 -15 l-229 0 -16 30 c-19 36 -43 50 -88 50 -37 0 -87
-32 -87 -56 0 -12 -35 -14 -213 -14 l-212 0 -233 233 -232 232 0 195 0 196 30
11 c39 14 65 68 56 115 -13 73 -99 109 -163 69z m91 -57 c34 -34 9 -78 -41
-72 -22 2 -29 9 -31 31 -6 50 38 75 72 41z m987 -984 c28 -16 25 -58 -6 -72
-19 -8 -28 -8 -40 2 -18 15 -20 51 -3 68 15 15 24 15 49 2z m657 -2 c24 -24 8
-78 -24 -78 -17 0 -44 28 -44 45 0 17 27 45 44 45 6 0 17 -5 24 -12z"/>
<path d="M16584 11611 c-69 -42 -67 -146 3 -180 l33 -16 0 -1049 0 -1050 108
-108 108 -108 358 0 359 0 108 107 109 107 0 166 0 165 203 203 202 202 490 0
490 0 522 -522 c414 -416 523 -530 528 -555 14 -70 106 -97 162 -49 23 20 28
32 28 71 0 39 -5 51 -29 72 -23 19 -38 24 -73 22 l-44 -3 -527 527 -527 527
-525 0 -525 0 -228 -228 -227 -227 0 -165 0 -165 -83 -83 -82 -82 -330 0 -330
0 -78 78 -77 77 0 1041 c0 1020 0 1041 20 1079 11 22 20 48 20 58 0 31 -29 76
-60 92 -39 20 -68 19 -106 -4z m90 -60 c33 -37 -10 -94 -53 -71 -43 22 -28 90
19 90 9 0 25 -9 34 -19z m3647 -2521 c23 -13 25 -52 4 -70 -12 -10 -21 -10
-40 -2 -30 14 -34 56 -7 71 21 13 20 13 43 1z"/>
<path d="M19913 11376 c-23 -20 -28 -32 -28 -71 0 -39 5 -51 29 -72 25 -21 37
-24 77 -21 46 5 50 3 90 -39 l43 -43 796 0 795 0 95 -95 95 -95 340 0 340 0
215 -215 215 -215 150 0 150 0 259 -259 259 -259 -13 -31 c-19 -47 -5 -98 33
-121 42 -26 78 -25 111 1 37 29 49 64 36 104 -16 49 -45 69 -95 70 l-45 0
-268 268 -268 267 -150 0 -149 0 -210 210 -210 210 -339 0 -340 0 -101 100
-102 100 -795 0 -794 0 -37 38 c-35 35 -37 41 -26 65 15 33 5 72 -26 103 -33
33 -93 33 -132 0z m88 -36 c28 -16 25 -58 -6 -72 -19 -8 -28 -8 -40 2 -20 17
-19 57 3 69 21 13 20 13 43 1z m3943 -1402 c16 -26 -4 -53 -40 -53 -25 0 -30
4 -32 29 -6 46 47 63 72 24z"/>
<path d="M11980 11286 c-21 -6 -43 -24 -55 -43 l-20 -32 -1430 -1 -1430 0
-768 -768 -767 -767 0 -2305 0 -2305 87 -87 88 -88 451 0 451 0 56 59 57 60 0
85 c0 53 4 86 10 86 6 0 22 11 35 25 34 33 34 93 1 132 -20 23 -32 28 -71 28
-39 0 -51 -5 -71 -28 -33 -39 -33 -99 1 -132 13 -14 29 -25 35 -25 6 0 10 -32
10 -83 0 -83 0 -83 -38 -120 l-38 -37 -440 0 -440 0 -72 73 -72 72 0 2280 0
2280 758 758 757 757 1421 0 1421 0 13 -26 c17 -32 59 -54 101 -54 48 0 99 56
99 108 0 74 -68 122 -140 98z m68 -68 c7 -7 12 -21 12 -33 0 -12 -5 -26 -12
-33 -7 -7 -21 -12 -33 -12 -12 0 -26 5 -33 12 -7 7 -12 21 -12 33 0 12 5 26
12 33 7 7 21 12 33 12 12 0 26 -5 33 -12z m-3338 -5928 c8 -14 8 -26 0 -40
-19 -35 -80 -20 -80 20 0 40 61 55 80 20z"/>
<path d="M8387 10342 l-717 -717 0 -2220 0 -2220 78 -78 77 -77 216 0 216 0
47 50 c29 31 46 58 46 74 0 16 7 27 21 31 30 10 53 65 45 109 -8 42 -52 76
-98 76 -43 0 -92 -49 -92 -92 0 -41 27 -88 55 -95 29 -8 23 -45 -14 -81 l-33
-32 -195 0 -195 0 -67 68 -67 68 0 2194 0 2195 713 713 712 712 1309 0 1309 0
68 -65 67 -65 266 0 c214 0 266 -3 266 -13 0 -23 45 -57 82 -63 72 -12 136 54
122 125 -7 35 -49 76 -86 85 -39 9 -94 -17 -113 -53 l-16 -31 -257 0 -258 0
-59 60 -59 60 -1336 0 -1335 0 -718 -718z m4171 582 c4 -38 -18 -59 -53 -50
-15 4 -27 16 -31 31 -9 35 12 57 50 53 27 -3 31 -7 34 -34z m-4200 -5651 c3
-28 -1 -33 -23 -39 -29 -7 -55 10 -55 35 0 25 22 42 50 39 20 -2 26 -9 28 -35z"/>
<path d="M18209 11031 c-63 -64 -22 -181 65 -181 45 0 82 17 101 47 15 23 18
23 188 23 l172 0 800 -800 800 -800 230 0 230 0 102 102 c81 81 103 109 103
130 0 16 5 28 10 28 6 0 22 11 35 25 18 17 25 35 25 64 0 55 -32 90 -87 98
-37 5 -45 2 -73 -25 -40 -40 -42 -101 -5 -137 13 -14 29 -25 35 -25 5 0 10
-10 10 -23 0 -15 -29 -51 -88 -110 l-87 -87 -210 0 -210 0 -800 800 -800 800
-181 0 -182 0 -6 26 c-19 75 -121 101 -177 45z m109 -43 c7 -7 12 -21 12 -33
0 -12 -5 -26 -12 -33 -7 -7 -21 -12 -33 -12 -12 0 -26 5 -33 12 -7 7 -12 21
-12 33 0 12 5 26 12 33 7 7 21 12 33 12 12 0 26 -5 33 -12z m2692 -1293 c20
-24 -3 -65 -35 -65 -32 0 -55 41 -35 65 7 8 23 15 35 15 12 0 28 -7 35 -15z"/>
<path d="M15829 10941 c-52 -52 -35 -144 31 -171 l30 -12 0 -812 0 -811 268
-268 268 -267 1010 0 1010 0 82 84 82 84 0 54 c0 51 2 56 48 101 l48 47 258 0
257 0 33 -35 c27 -28 41 -35 70 -35 51 0 75 15 92 57 18 42 5 94 -29 118 -47
33 -136 7 -152 -45 -6 -19 -16 -20 -273 -20 l-268 0 -62 -63 c-61 -61 -62 -63
-62 -118 0 -54 0 -55 -68 -122 l-68 -67 -999 0 -1000 0 -258 258 -257 257 0
801 0 802 30 12 c54 23 75 92 45 150 -19 37 -43 50 -95 50 -33 0 -48 -6 -71
-29z m109 -43 c7 -7 12 -21 12 -33 0 -12 -5 -26 -12 -33 -7 -7 -21 -12 -33
-12 -12 0 -26 5 -33 12 -7 7 -12 21 -12 33 0 12 5 26 12 33 7 7 21 12 33 12
12 0 26 -5 33 -12z m3413 -1868 c28 -16 25 -58 -6 -72 -19 -8 -28 -8 -40 2
-20 17 -19 57 3 69 21 13 20 13 43 1z"/>
<path d="M10089 10695 c-15 -8 -29 -21 -33 -30 -5 -13 -69 -15 -538 -15 l-533
0 -568 -568 -567 -567 0 -2076 c0 -2016 1 -2076 19 -2093 14 -13 17 -26 13
-61 -6 -53 12 -86 57 -105 63 -26 131 20 131 88 0 49 -29 88 -73 97 -17 4 -38
12 -44 17 -10 8 -13 432 -13 2057 l0 2046 538 538 537 537 512 0 511 0 30 -30
c25 -25 39 -30 77 -30 65 0 105 39 105 102 -1 86 -84 135 -161 93z m89 -57
c28 -28 7 -78 -33 -78 -27 0 -45 18 -45 45 0 27 18 45 45 45 12 0 26 -5 33
-12z m-2168 -5343 c10 -12 10 -21 2 -40 -14 -31 -56 -34 -72 -5 -24 44 38 83
70 45z"/>
<path d="M20895 10659 l-45 -42 0 -96 c0 -97 0 -97 -33 -129 l-33 -32 -191 0
-191 0 -30 30 c-81 80 -209 -9 -158 -108 32 -62 108 -72 158 -22 l30 30 200 0
201 0 59 58 58 59 0 95 c0 79 3 98 18 111 17 15 73 17 598 17 l579 0 625 -625
625 -625 334 0 335 0 28 -27 c34 -33 36 -66 4 -86 -37 -25 -51 -78 -31 -120
42 -90 169 -70 182 29 4 35 1 45 -26 76 -18 21 -31 47 -31 62 0 18 -15 43 -46
76 l-47 50 -336 0 -336 0 -630 630 -630 630 -598 0 -597 0 -45 -41z m-567
-301 c34 -34 -6 -90 -48 -68 -25 13 -26 55 -2 69 23 14 36 13 50 -1z m3820
-1140 c17 -17 15 -55 -4 -66 -43 -24 -88 36 -49 65 23 16 37 17 53 1z"/>
<path d="M16175 10657 c-29 -29 -35 -42 -35 -77 0 -35 6 -48 35 -77 l35 -35 0
-607 0 -606 248 -248 247 -247 510 0 510 0 198 198 197 197 0 165 0 165 87 87
88 88 385 0 385 0 618 -618 617 -617 0 -46 c0 -42 4 -51 40 -83 37 -33 45 -36
104 -36 44 0 67 -5 76 -15 31 -38 125 -23 150 24 13 25 13 77 0 102 -31 56
-121 61 -163 8 -21 -27 -29 -30 -68 -27 l-44 3 -3 50 -3 50 -647 648 -647 647
-420 0 -420 0 -108 -108 -107 -107 0 -170 0 -170 -178 -178 -177 -177 -470 0
-470 0 -228 228 -227 227 0 589 0 588 30 35 c61 69 24 168 -67 180 -39 5 -46
2 -78 -30z m99 -43 c22 -22 20 -50 -5 -68 -22 -15 -48 -11 -61 8 -32 46 27 99
66 60z m4346 -2274 c8 -14 8 -26 0 -40 -19 -35 -80 -20 -80 20 0 40 61 55 80
20z"/>
<path d="M10885 10540 l-59 -60 -96 0 c-85 0 -97 2 -108 21 -21 33 -77 52
-118 39 -116 -39 -88 -210 35 -210 19 0 42 11 64 30 34 29 37 30 142 30 l107
0 62 60 63 60 879 0 879 0 298 -298 297 -297 0 -1170 0 -1170 188 -188 187
-187 700 0 700 0 78 -78 77 -77 0 -196 c0 -188 -1 -197 -21 -215 -36 -32 -50
-76 -38 -119 l11 -38 -108 -108 -109 -109 -290 0 -290 0 -300 300 -301 300
-299 0 -300 0 -153 153 -152 152 0 692 c0 684 0 692 20 698 11 4 27 19 35 35
41 79 -7 159 -93 160 -35 0 -49 -6 -73 -29 -24 -24 -29 -38 -29 -76 0 -41 5
-51 35 -79 l35 -32 0 -700 0 -699 173 -173 172 -172 300 0 300 0 300 -300 301
-300 314 0 313 0 128 126 c104 103 132 126 149 121 27 -7 68 8 97 35 45 43 38
131 -14 165 -23 15 -23 16 -23 227 l0 212 -109 107 -108 107 -699 0 -699 0
-158 158 -157 157 0 1170 0 1170 -328 327 -327 328 -910 0 -911 0 -59 -60z
m-317 -72 c36 -36 -11 -93 -57 -69 -39 21 -21 81 24 81 12 0 26 -5 33 -12z
m2340 -1790 c28 -28 7 -78 -33 -78 -27 0 -45 18 -45 45 0 27 18 45 45 45 12 0
26 -5 33 -12z m2437 -2098 c27 -29 10 -74 -28 -78 -36 -4 -57 13 -57 49 0 47
53 65 85 29z"/>
<path d="M10102 10405 c-18 -8 -40 -28 -50 -45 l-17 -30 -545 0 -545 0 -453
-453 -452 -452 0 -1711 0 -1711 45 -42 c42 -39 48 -41 108 -41 53 0 67 -4 85
-23 20 -21 22 -34 22 -124 l0 -101 -34 -20 c-37 -22 -59 -73 -49 -114 8 -33
51 -76 83 -83 41 -9 96 18 115 56 30 56 4 128 -52 150 -22 8 -23 14 -23 117
l0 108 -38 37 c-36 35 -42 37 -102 37 -56 0 -67 3 -92 27 l-28 27 0 1700 0
1701 438 438 437 437 542 0 c517 0 542 -1 547 -18 11 -33 53 -63 95 -69 36 -5
44 -2 76 30 28 28 35 43 35 74 0 47 -22 81 -66 99 -40 17 -41 17 -82 -1z m80
-69 c14 -21 8 -55 -12 -66 -29 -16 -59 -3 -66 27 -12 46 52 77 78 39z m-1828
-4742 c34 -34 9 -78 -41 -72 -22 2 -29 9 -31 31 -6 50 38 75 72 41z"/>
<path d="M19913 10396 c-23 -20 -28 -32 -28 -71 0 -39 5 -51 28 -71 15 -13 35
-24 44 -24 9 0 42 -25 74 -55 l58 -55 186 0 186 0 48 45 48 45 369 0 369 0
700 -700 700 -700 285 0 284 0 186 -185 186 -185 46 0 c38 0 48 -4 53 -20 3
-11 18 -29 32 -40 51 -40 132 -16 154 45 l13 35 251 0 251 0 47 48 c41 41 47
53 47 89 0 34 6 47 35 76 27 27 35 43 35 70 0 50 -34 87 -86 94 -33 4 -45 1
-71 -21 -17 -14 -34 -37 -37 -51 -10 -38 18 -95 54 -108 27 -10 30 -16 30 -52
0 -34 -6 -47 -38 -78 l-38 -37 -243 0 -242 0 -25 30 c-32 37 -80 48 -123 26
-17 -9 -31 -21 -31 -26 0 -6 -19 -10 -42 -10 -41 0 -46 4 -223 180 l-181 180
-290 0 -289 0 -705 705 -706 706 -397 -3 -396 -3 -43 -42 -44 -43 -165 0 -165
0 -28 29 c-27 28 -27 28 -10 64 46 96 -71 183 -153 113z m88 -36 c25 -14 25
-56 -1 -70 -42 -22 -82 34 -48 68 15 15 24 15 49 2z m4534 -1614 c0 -36 -27
-56 -52 -40 -40 25 -20 77 26 72 21 -2 26 -8 26 -32z"/>
<path d="M4210 10373 c-31 -12 -70 -58 -76 -89 -4 -21 0 -44 10 -65 l16 -33
-62 -63 -62 -63 -341 0 -340 0 -95 -95 -95 -95 -890 0 -891 0 -53 54 -53 53
12 40 c35 116 -93 202 -183 123 -58 -51 -55 -129 8 -178 29 -23 83 -29 114
-13 14 8 30 -2 82 -55 l63 -64 901 0 900 0 95 95 95 95 338 0 339 0 70 68 c68
66 71 67 123 67 43 0 59 5 79 24 74 69 40 179 -60 195 -16 3 -36 3 -44 -1z
m64 -66 c36 -27 14 -97 -31 -97 -18 0 -53 37 -53 55 0 18 35 55 53 55 7 0 21
-6 31 -13z"/>
<path d="M14214 10216 c-25 -25 -34 -43 -34 -67 0 -35 32 -99 50 -99 7 0 10
-181 10 -537 l0 -538 563 -562 562 -563 2086 0 c1826 0 2088 2 2099 15 8 9 27
14 56 13 53 -3 95 25 108 70 18 63 -32 122 -104 122 -37 0 -76 -35 -86 -77 -4
-15 -11 -34 -17 -40 -7 -10 -431 -13 -2056 -13 l-2046 0 -538 538 -537 537 0
512 0 511 30 30 c24 24 30 39 30 72 0 52 -13 76 -50 95 -49 25 -88 19 -126
-19z m104 -38 c28 -28 7 -78 -33 -78 -27 0 -45 18 -45 45 0 27 18 45 45 45 12
0 26 -5 33 -12z m5338 -2193 c11 -43 -34 -73 -64 -43 -13 13 -16 50 -5 61 3 4
19 7 34 7 22 0 30 -6 35 -25z"/>
<path d="M14530 10237 c-34 -17 -62 -74 -55 -112 6 -32 38 -72 67 -81 17 -5
18 -30 18 -552 l0 -547 453 -453 452 -452 1711 0 1711 0 42 45 c39 42 41 48
41 108 0 53 4 67 23 85 21 20 34 22 124 22 l101 0 20 -34 c43 -73 150 -67 187
10 44 93 -59 188 -147 137 -18 -10 -39 -31 -46 -46 -13 -27 -14 -27 -119 -27
l-105 0 -39 -39 c-37 -37 -39 -42 -39 -103 0 -59 -2 -66 -33 -96 l-33 -32
-1690 0 -1689 0 -443 443 -442 442 0 540 0 540 29 13 c15 7 36 27 46 46 49 92
-50 191 -145 143z m84 -63 c32 -31 7 -78 -38 -72 -36 4 -51 37 -30 67 18 25
46 27 68 5z m4737 -1814 c27 -15 26 -66 -2 -80 -16 -9 -26 -8 -45 5 -28 18
-31 41 -7 67 19 21 27 22 54 8z"/>
<path d="M14812 10225 c-57 -48 -52 -136 9 -172 l29 -17 0 -566 0 -565 353
-353 352 -352 1554 0 1555 0 83 83 83 83 0 85 0 85 53 52 53 52 147 0 147 0
29 -32 c61 -68 166 -28 166 63 0 34 -6 46 -33 70 -18 16 -44 29 -58 29 -35 0
-81 -26 -89 -50 -6 -19 -15 -20 -168 -20 l-163 0 -72 -73 -72 -72 0 -86 0 -85
-63 -62 -63 -62 -1534 0 -1535 0 -333 333 -332 332 0 555 0 555 34 27 c40 32
51 76 32 121 -18 44 -39 59 -89 64 -36 4 -48 1 -75 -22z m97 -49 c7 -8 11 -27
9 -43 -2 -23 -9 -29 -33 -31 -46 -6 -71 40 -39 72 19 20 48 20 63 2z m4451
-1481 c15 -18 10 -45 -12 -59 -33 -20 -69 20 -54 60 7 18 50 18 66 -1z"/>
<path d="M10995 10080 l-161 -160 -102 0 c-83 0 -104 3 -109 15 -7 21 -56 45
-88 45 -61 0 -104 -45 -105 -108 0 -35 6 -49 29 -73 24 -24 38 -29 76 -29 39
0 52 5 75 30 28 30 28 30 141 30 l113 0 161 160 161 160 709 0 710 0 228 -228
227 -227 0 -1155 0 -1156 233 -232 233 -232 495 0 495 0 37 -38 37 -38 0 -93
c0 -90 -1 -94 -29 -120 -36 -34 -48 -88 -29 -127 44 -90 166 -89 204 3 18 42
6 88 -31 123 -24 22 -25 29 -25 133 l0 110 -68 69 -69 68 -489 0 -489 0 -213
213 -212 212 0 1150 0 1151 -253 252 -253 252 -739 0 -739 0 -161 -160z m-427
-172 c28 -28 7 -78 -33 -78 -27 0 -45 18 -45 45 0 27 18 45 45 45 12 0 26 -5
33 -12z m4093 -3318 c22 -12 26 -59 7 -78 -19 -19 -66 -15 -78 7 -14 28 -13
38 10 61 23 23 33 24 61 10z"/>
<path d="M10103 10110 c-12 -5 -32 -23 -44 -39 l-23 -31 -566 0 -565 0 -353
-353 -352 -353 2 -1557 3 -1557 78 -77 77 -78 88 -3 87 -4 53 -51 52 -51 0
-147 0 -147 -30 -30 c-74 -75 -5 -195 94 -162 43 14 66 48 66 96 0 29 -7 44
-35 70 l-35 33 0 153 0 154 -73 72 -72 72 -81 0 -80 0 -67 68 -67 68 0 1529 0
1530 333 333 332 332 556 0 557 0 17 -26 c58 -88 195 -47 195 58 0 32 -7 47
-34 74 -35 35 -68 42 -113 24z m68 -60 c19 -11 24 -35 13 -64 -7 -19 -55 -21
-72 -4 -18 18 -15 55 6 67 22 13 29 13 53 1z m-1461 -4469 c13 -25 13 -27 -6
-45 -23 -24 -53 -20 -66 9 -8 19 -8 28 2 40 18 21 57 19 70 -4z"/>
<path d="M12259 10092 c-20 -10 -41 -32 -52 -54 -51 -104 79 -195 166 -118 30
26 42 30 94 30 56 0 61 -2 101 -43 l42 -43 0 -1369 0 -1370 233 -233 232 -232
195 0 195 0 407 -407 408 -408 292 -3 c290 -3 291 -3 319 -27 39 -32 79 -39
122 -21 61 25 83 96 51 158 l-16 31 178 178 179 179 490 0 491 0 61 -62 c56
-58 61 -66 61 -107 -1 -85 84 -121 144 -61 26 27 30 36 25 68 -9 53 -40 75
-99 70 -46 -5 -47 -5 -115 64 l-67 68 -500 0 -500 0 -191 -191 c-170 -169
-195 -189 -217 -184 -34 9 -92 -17 -113 -49 l-17 -26 -272 0 -271 0 -410 410
-410 410 -195 0 -195 0 -203 203 -202 202 0 1370 0 1371 -73 72 -72 72 -78 0
c-58 0 -79 4 -83 14 -16 41 -88 61 -135 38z m81 -67 c31 -38 -27 -96 -65 -65
-15 13 -21 61 -8 73 12 13 60 7 73 -8z m2658 -4091 c30 -21 29 -59 -3 -80 -23
-15 -27 -15 -50 0 -29 19 -32 51 -8 78 20 22 32 23 61 2z"/>
<path d="M20270 10079 c-38 -15 -59 -39 -66 -74 -19 -102 125 -159 178 -69
l20 34 307 0 306 0 550 -550 550 -550 57 0 c43 0 58 -4 58 -14 0 -8 14 -26 31
-40 62 -53 145 -21 156 60 4 33 1 45 -21 71 -14 17 -37 34 -51 37 -34 9 -93
-18 -107 -48 -10 -23 -17 -26 -62 -26 l-51 0 -545 545 -545 545 -318 0 -317 0
-9 23 c-18 47 -75 74 -121 56z m60 -63 c6 -8 10 -25 8 -38 -2 -19 -9 -23 -38
-23 -29 0 -36 4 -38 23 -4 28 14 52 38 52 10 0 23 -7 30 -14z m2020 -1100 c6
-8 10 -25 8 -38 -2 -18 -10 -24 -35 -26 -28 -3 -33 1 -39 23 -11 45 37 75 66
41z"/>
<path d="M5501 10016 c-32 -18 -50 -53 -51 -99 0 -31 7 -46 34 -73 19 -19 43
-34 53 -34 10 0 24 -5 31 -12 9 -9 12 -200 12 -798 l0 -785 -330 -330 -330
-330 0 -1159 c0 -1001 2 -1162 15 -1176 12 -14 12 -21 -2 -61 -16 -43 -15 -47
3 -85 27 -55 81 -81 134 -65 133 40 104 225 -34 226 -23 0 -47 4 -53 8 -10 7
-13 247 -13 1150 l0 1142 335 335 335 336 0 794 c0 478 -4 801 -10 810 -6 10
-3 21 13 38 17 18 22 36 22 74 0 43 -4 53 -33 79 -36 32 -89 38 -131 15z m93
-62 c9 -8 16 -24 16 -34 0 -22 -26 -50 -46 -50 -46 0 -73 57 -42 88 17 17 54
15 72 -4z"/>
<path d="M3330 9715 l-155 -155 -198 0 -197 0 -10 24 c-35 92 -182 87 -209 -8
-13 -49 -3 -82 36 -116 54 -48 135 -34 168 30 l16 30 201 0 202 0 156 155 156
155 429 0 430 0 71 -71 71 -71 -20 -38 c-19 -33 -20 -42 -8 -79 20 -69 95
-100 159 -67 48 25 70 88 48 139 -19 46 -51 67 -105 67 -42 0 -49 4 -127 80
l-82 80 -438 0 -439 0 -155 -155z m1278 -77 c7 -7 12 -24 12 -38 0 -48 -45
-67 -82 -33 -22 20 -23 41 -1 65 18 21 53 24 71 6z m-1904 -64 c22 -21 20 -47
-4 -69 -44 -40 -107 25 -69 71 15 19 54 18 73 -2z"/>
<path d="M3833 9690 c-18 -11 -35 -31 -39 -45 l-6 -25 -137 0 -136 0 -440
-440 -440 -440 -400 0 -400 0 -204 204 c-203 203 -204 204 -193 234 25 72 -26
142 -104 142 -118 0 -155 -156 -49 -207 30 -14 42 -15 78 -5 l42 11 210 -209
210 -210 410 0 409 0 446 445 445 445 128 0 c114 0 127 -2 127 -17 1 -38 58
-83 105 -83 41 0 89 31 104 69 43 101 -70 190 -166 131z m101 -56 c21 -20 20
-43 -1 -66 -32 -36 -83 -17 -83 32 0 14 5 31 12 38 17 17 54 15 72 -4z m-2566
-386 c22 -22 14 -67 -14 -80 -45 -21 -87 21 -66 66 13 28 58 36 80 14z"/>
<path d="M4199 9351 c-24 -24 -29 -38 -29 -78 l0 -48 -305 -305 -305 -305 0
-1165 0 -1165 -81 -81 c-76 -76 -84 -82 -108 -73 -41 16 -86 2 -120 -37 -43
-48 -43 -100 0 -148 91 -104 245 2 187 129 -11 24 -7 30 75 114 l87 88 0 1164
0 1164 298 298 c257 257 300 296 311 283 7 -9 29 -18 48 -22 76 -14 143 53
129 129 -16 84 -127 118 -187 58z m125 -64 c8 -23 6 -31 -12 -49 -30 -30 -75
-16 -80 25 -5 38 15 59 52 55 23 -2 33 -10 40 -31z"/>
<path d="M5827 9337 c-54 -43 -52 -124 4 -171 18 -15 43 -26 60 -26 36 0 84
23 98 47 9 16 14 14 50 -22 l41 -39 0 -171 0 -170 -130 -130 -130 -130 0 -340
0 -340 -245 -245 -245 -245 0 -370 0 -369 -41 -42 -41 -42 -36 15 c-127 53
-225 -127 -108 -198 86 -53 186 15 173 116 -6 39 -3 44 38 85 l45 44 0 370 0
370 250 251 250 251 0 340 0 339 130 130 130 130 0 180 0 181 -54 53 c-36 36
-56 65 -60 87 -15 75 -118 111 -179 61z m107 -53 c22 -21 20 -47 -4 -69 -44
-40 -107 25 -69 71 15 19 54 18 73 -2z"/>
<path d="M8722 8957 l-312 -312 0 -432 0 -431 -34 -20 c-48 -29 -64 -79 -39
-130 11 -23 32 -44 53 -54 101 -49 197 75 125 161 -14 16 -35 33 -45 36 -19 6
-20 18 -20 433 l0 427 297 297 298 298 1280 0 1280 0 198 -198 197 -197 0
-850 0 -850 493 -493 492 -492 155 0 155 0 488 -488 487 -487 0 -82 c0 -80 -1
-83 -28 -97 -29 -15 -52 -53 -52 -84 0 -10 -18 -36 -40 -57 l-40 -39 0 -131 0
-131 -63 -62 -63 -62 -70 0 c-69 0 -70 0 -112 -43 l-42 -43 0 -108 0 -108 40
-48 40 -48 0 -226 0 -225 30 -34 30 -35 0 -489 0 -490 -23 -21 c-14 -13 -36
-22 -55 -22 -21 0 -43 -10 -63 -28 -70 -62 -24 -172 72 -172 82 0 131 99 80
161 -19 23 -19 24 5 52 l24 29 0 493 0 494 -30 34 -30 35 0 229 0 229 -40 39
-40 39 0 106 0 106 33 32 c31 30 38 32 103 32 l70 0 67 68 67 68 0 129 0 129
32 33 32 33 23 -22 c35 -33 95 -31 130 5 21 21 28 37 28 68 0 36 -6 46 -38 74
l-37 32 0 84 0 84 -502 502 -503 503 -155 0 -155 0 -478 478 -477 477 0 850 0
850 -213 213 -212 212 -1290 0 -1290 0 -313 -313z m-258 -1253 c34 -34 9 -78
-41 -72 -22 2 -29 9 -31 31 -6 50 38 75 72 41z m5856 -2769 c15 -18 10 -45
-12 -59 -33 -20 -69 20 -54 60 7 18 50 18 66 -1z"/>
<path d="M10813 9078 c-11 -5 -29 -25 -39 -44 l-19 -34 -805 0 -805 0 -273
-273 -272 -272 0 -1004 0 -1005 83 -83 83 -83 55 0 c52 0 57 -2 102 -48 l47
-48 0 -267 c0 -225 -2 -267 -14 -267 -22 0 -56 -49 -56 -82 0 -78 73 -127 139
-93 37 19 62 67 54 108 -5 26 -54 77 -74 77 -5 0 -9 111 -9 268 l0 268 -63 62
c-61 61 -63 62 -118 62 -54 0 -55 0 -122 68 l-67 68 0 994 0 995 263 263 262
262 797 0 c782 0 797 0 803 -20 11 -34 63 -70 104 -70 46 0 79 23 98 67 37 91
-62 176 -154 131z m85 -60 c7 -7 12 -21 12 -33 0 -47 -62 -63 -81 -21 -22 47
33 90 69 54z m-1870 -3430 c30 -30 0 -75 -42 -64 -27 7 -38 35 -24 60 11 19
49 21 66 4z"/>
<path d="M10504 8715 l-33 -35 -608 0 -608 0 -248 -248 -247 -247 0 -510 0
-510 198 -198 197 -197 170 0 170 0 87 -87 88 -88 0 -380 0 -380 -623 -623
-622 -622 -44 0 c-37 0 -49 -6 -82 -39 -37 -37 -39 -41 -39 -104 0 -36 -4 -68
-9 -72 -5 -3 -15 -21 -21 -40 -31 -95 89 -167 161 -96 43 43 40 92 -7 139 -30
30 -35 40 -32 76 l3 41 58 5 57 5 643 643 642 642 0 420 0 420 -110 110 -110
110 -165 0 -165 0 -178 178 -177 177 0 470 0 470 228 228 227 227 588 0 588 0
22 -26 c16 -19 36 -27 70 -31 43 -5 49 -3 82 30 71 71 28 176 -74 177 -37 0
-49 -5 -77 -35z m114 -37 c28 -28 7 -78 -33 -78 -27 0 -45 18 -45 45 0 27 18
45 45 45 12 0 26 -5 33 -12z m-2270 -4340 c31 -31 -3 -87 -42 -72 -26 10 -32
55 -11 71 23 16 37 17 53 1z"/>
<path d="M2935 8671 c-73 -30 -91 -140 -32 -190 15 -12 17 -56 17 -445 l0
-431 -143 -143 -142 -142 -525 0 -525 0 -368 -368 -367 -367 0 -1394 0 -1393
-25 -20 c-37 -29 -51 -85 -32 -130 41 -97 173 -97 214 0 19 45 5 101 -32 130
l-25 20 0 1373 0 1374 333 332 332 333 527 2 528 3 175 175 175 175 0 442 c0
436 0 442 21 453 28 15 59 69 59 103 0 83 -87 139 -165 108z"/>
<path d="M11480 8348 c-14 -8 -34 -28 -45 -45 l-20 -32 -1049 -1 -1049 0 -103
-102 -104 -102 0 -370 0 -371 102 -102 103 -103 165 0 165 0 203 -203 202
-202 0 -490 0 -490 -522 -521 c-367 -366 -531 -524 -551 -528 -64 -15 -97 -89
-67 -147 26 -48 117 -61 153 -21 25 28 37 70 28 95 -9 22 36 69 520 553 l529
529 0 525 0 525 -228 228 -227 227 -165 0 -165 0 -83 83 -82 82 0 325 0 325
83 83 82 82 1044 0 c981 0 1046 -1 1064 -17 12 -12 35 -18 64 -18 38 0 49 5
74 33 22 24 29 42 29 72 0 76 -85 132 -150 98z m74 -64 c9 -8 16 -24 16 -34 0
-20 -25 -50 -41 -50 -27 0 -49 22 -49 50 0 44 44 65 74 34z m-2520 -3676 c15
-24 -3 -52 -37 -56 -33 -4 -53 28 -37 59 14 25 58 23 74 -3z"/>
<path d="M3325 7971 c-29 -13 -61 -52 -69 -83 -9 -39 17 -95 54 -116 l30 -17
0 -270 0 -270 -238 -238 c-226 -226 -239 -237 -275 -237 -116 0 -166 -125 -81
-200 59 -51 146 -34 179 36 19 40 19 55 0 101 l-16 37 241 241 240 240 0 282
c0 265 1 282 18 287 39 13 67 55 67 102 0 35 -6 49 -30 74 -33 33 -85 46 -120
31z m75 -71 c23 -23 24 -33 10 -61 -16 -29 -78 -27 -89 4 -10 26 -4 47 17 65
22 17 39 15 62 -8z"/>
<path d="M11623 6738 c-44 -12 -73 -51 -73 -102 l0 -41 -975 -975 -975 -975 0
-155 c0 -103 -5 -168 -14 -193 -17 -51 -10 -82 26 -112 42 -35 91 -34 129 4
38 39 39 87 3 130 -14 17 -32 31 -40 31 -11 0 -14 25 -14 133 l0 132 960 960
959 959 41 -3 c35 -2 45 2 76 33 34 34 36 40 31 82 -8 72 -64 111 -134 92z
m65 -70 c28 -28 7 -78 -33 -78 -27 0 -45 18 -45 45 0 27 18 45 45 45 12 0 26
-5 33 -12z m-1984 -2384 c19 -18 19 -20 6 -45 -18 -32 -80 -19 -80 17 0 17 28
44 45 44 7 0 21 -7 29 -16z"/>
<path d="M10894 6692 c-56 -45 -59 -109 -9 -159 l35 -35 0 -172 0 -171 -800
-800 -800 -800 0 -231 0 -230 104 -102 c78 -78 109 -102 130 -102 14 0 26 -4
26 -9 0 -4 12 -20 26 -35 59 -58 164 -14 164 69 0 83 -105 127 -164 69 -14
-15 -26 -31 -26 -35 0 -5 -10 -9 -23 -9 -15 0 -50 28 -105 83 l-82 82 0 220 0
220 800 800 800 800 0 176 0 175 33 15 c46 20 72 77 57 124 -6 19 -23 44 -37
55 -32 25 -100 26 -129 2z m94 -54 c30 -30 3 -82 -40 -76 -29 4 -47 50 -28 72
15 19 51 21 68 4z m-1284 -2700 c13 -19 14 -25 2 -43 -18 -26 -40 -30 -60 -10
-20 21 -20 39 0 59 21 22 40 20 58 -6z"/>
<path d="M15702 6066 c-31 -29 -74 -59 -94 -65 -51 -17 -78 -53 -78 -106 0
-53 28 -91 79 -106 69 -20 141 34 141 106 0 33 -24 81 -47 94 -16 9 -14 14 22
50 l39 41 171 0 170 0 130 -130 130 -130 340 0 340 0 245 -245 245 -245 370 0
371 0 42 -43 c42 -43 42 -44 27 -73 -65 -125 121 -233 195 -112 54 89 -16 191
-119 173 -33 -5 -40 -2 -81 40 l-44 45 -371 0 -370 0 -245 245 -245 245 -340
0 -340 0 -135 135 -135 135 -178 0 -178 0 -57 -54z m-34 -132 c30 -21 29 -59
-3 -80 -23 -15 -27 -15 -50 0 -29 19 -32 51 -8 78 20 22 32 23 61 2z"/>
<path d="M11612 6005 c-18 -8 -40 -28 -50 -45 l-17 -30 -205 0 -206 0 -247
-248 -247 -248 0 -217 c0 -181 -2 -217 -14 -217 -22 0 -56 -49 -56 -82 0 -42
26 -87 55 -94 l25 -6 0 -234 c0 -195 -2 -234 -14 -234 -26 0 -66 -59 -66 -97
0 -48 45 -93 93 -93 42 0 92 37 101 75 9 34 -18 93 -48 107 l-26 11 0 232 c0
220 1 233 19 238 28 7 55 55 54 96 -1 28 -9 43 -37 67 l-36 31 0 204 0 204
233 233 232 232 195 0 195 0 13 -30 c16 -36 58 -60 103 -60 47 0 99 56 99 107
0 47 -22 81 -66 99 -40 17 -41 17 -82 -1z m76 -67 c21 -21 14 -57 -14 -70 -31
-14 -57 -1 -62 31 -7 42 46 69 76 39z m-990 -1000 c30 -30 0 -75 -43 -64 -19
5 -25 13 -25 35 0 15 3 31 7 34 11 11 48 8 61 -5z m6 -660 c16 -26 -4 -53 -40
-53 -23 0 -30 5 -32 23 -7 47 47 69 72 30z"/>
<path d="M14913 5650 c-39 -23 -53 -48 -53 -92 0 -98 113 -149 184 -83 14 13
28 36 32 52 13 56 -34 53 808 53 l781 0 330 -330 331 -330 1164 0 c1022 0
1165 2 1180 15 15 13 20 13 49 -1 94 -47 198 51 158 148 -9 20 -27 44 -41 54
-34 22 -98 22 -132 0 -32 -22 -58 -80 -50 -116 3 -15 0 -32 -7 -39 -8 -8 -308
-11 -1152 -11 l-1140 0 -330 330 -330 330 -817 0 c-802 0 -817 0 -850 20 -41
25 -74 25 -115 0z m89 -57 c36 -32 17 -83 -32 -83 -14 0 -31 5 -38 12 -27 27
-3 88 35 88 9 0 25 -7 35 -17z"/>
<path d="M12239 5311 c-18 -19 -29 -40 -29 -58 0 -21 -12 -41 -43 -71 l-43
-42 -455 0 -454 0 -108 -108 -107 -107 0 -870 0 -870 -85 -85 -85 -85 0 -285
0 -285 -370 -370 -370 -370 0 -160 0 -161 -44 -43 c-43 -43 -44 -43 -74 -27
-45 23 -78 20 -114 -13 -64 -57 -32 -153 55 -168 32 -5 41 -1 72 30 26 26 35
44 35 68 0 25 11 44 55 90 l55 58 0 158 0 158 370 370 370 371 0 285 0 284 80
80 80 80 0 870 0 870 98 98 97 97 453 0 453 0 48 45 47 44 21 -20 c25 -25 83
-28 117 -5 13 8 29 31 36 50 31 96 -89 169 -161 97z m95 -37 c24 -23 20 -53
-9 -66 -19 -8 -28 -8 -40 2 -20 17 -19 57 3 69 23 14 28 14 46 -5z m-2379
-4038 c0 -36 -27 -56 -52 -40 -40 25 -20 77 26 72 21 -2 26 -8 26 -32z"/>
<path d="M12943 5025 c-37 -16 -53 -42 -53 -87 0 -19 -5 -39 -12 -46 -9 -9
-138 -12 -517 -12 l-506 0 -177 -177 -178 -178 0 -800 0 -800 -140 -140 c-136
-135 -141 -139 -178 -136 -84 6 -132 -91 -78 -156 14 -17 37 -34 51 -37 61
-15 135 54 120 112 -6 23 10 42 142 174 l148 148 3 808 2 807 158 158 157 157
506 0 c429 0 508 2 519 14 8 11 24 13 60 9 45 -5 51 -3 79 25 53 52 36 138
-31 161 -38 13 -36 13 -75 -4z m71 -61 c19 -18 19 -20 6 -45 -18 -32 -80 -19
-80 17 0 17 28 44 45 44 7 0 21 -7 29 -16z m-1798 -2399 c11 -43 -34 -73 -64
-43 -13 13 -16 50 -5 61 3 4 19 7 34 7 22 0 30 -6 35 -25z"/>
<path d="M10274 4991 c-18 -11 -34 -31 -38 -47 -4 -16 -32 -54 -62 -86 l-54
-57 0 -181 0 -182 45 -51 45 -52 0 -370 0 -370 -700 -700 -700 -700 0 -285 0
-285 -181 -181 -182 -182 -5 -52 c-4 -42 -9 -53 -28 -60 -27 -10 -54 -58 -54
-94 0 -28 44 -86 66 -86 12 0 14 -42 14 -256 l0 -255 51 -55 c49 -51 54 -54
102 -54 41 0 55 -5 84 -30 46 -41 94 -41 134 -1 77 77 -5 199 -105 157 -20 -8
-41 -26 -48 -40 -18 -40 -74 -36 -116 7 l-32 33 0 248 0 248 26 31 c21 25 25
38 21 70 -3 21 -15 49 -26 61 -13 14 -21 36 -21 57 0 31 17 51 183 216 l182
183 3 288 3 287 697 698 697 697 3 400 3 400 -46 49 -45 48 0 165 0 164 29 29
30 28 37 -18 c68 -32 138 14 138 91 0 28 -7 43 -32 65 -38 34 -74 37 -118 10z
m84 -53 c30 -30 0 -75 -43 -64 -19 5 -25 13 -25 35 0 15 3 31 7 34 11 11 48 8
61 -5z m-1584 -4524 c19 -18 19 -20 6 -45 -18 -32 -80 -19 -80 17 0 17 28 44
45 44 7 0 21 -7 29 -16z"/>
<path d="M11264 5000 c-33 -13 -54 -50 -54 -95 0 -35 -6 -47 -45 -85 l-45 -44
0 -795 0 -796 -97 -97 -98 -98 -3 -343 -3 -342 -209 -211 -210 -210 0 -150 0
-149 -258 -258 -258 -258 -40 7 c-57 9 -100 -15 -114 -64 -21 -68 24 -126 98
-126 45 0 92 49 92 96 0 29 29 62 275 308 l275 276 0 144 0 144 210 211 210
211 0 339 0 339 95 97 95 96 0 800 0 799 39 38 c33 33 43 37 69 31 64 -14 127
52 115 118 -11 56 -81 91 -139 67z m74 -62 c30 -30 0 -75 -43 -64 -19 5 -25
13 -25 35 0 15 3 31 7 34 11 11 48 8 61 -5z m-1380 -3946 c4 -28 -14 -52 -38
-52 -26 0 -43 26 -36 55 6 22 11 26 39 23 25 -2 33 -8 35 -26z"/>
<path d="M13574 5001 c-33 -14 -54 -51 -54 -96 0 -38 -6 -46 -135 -175 l-135
-135 0 -1135 0 -1135 -600 -600 -600 -600 0 -69 0 -69 -21 19 c-13 12 -35 19
-61 19 -33 0 -45 -6 -69 -33 -73 -82 14 -196 115 -151 29 14 60 72 53 100 -3
10 1 23 9 30 9 8 14 33 14 78 l0 66 595 595 595 595 0 1135 0 1135 131 131
132 132 32 -15 c93 -44 180 74 113 152 -25 28 -79 40 -114 26z m76 -71 c15
-28 -4 -60 -36 -60 -31 0 -54 41 -34 65 18 21 57 19 70 -5z m-1650 -3975 c7
-9 10 -25 6 -40 -6 -22 -11 -26 -39 -23 -25 2 -33 8 -35 26 -7 44 41 70 68 37z"/>
<path d="M12943 4695 c-18 -8 -38 -25 -45 -40 l-11 -25 -466 0 -465 0 -113
-113 -113 -113 0 -809 0 -810 -91 -91 -91 -91 -47 5 c-62 6 -100 -24 -108 -83
-14 -107 130 -149 182 -53 17 32 18 41 7 70 l-12 33 100 100 100 100 0 810 0
810 98 98 97 97 462 0 c451 0 462 0 468 -20 10 -31 54 -60 92 -60 103 0 128
155 31 189 -38 13 -36 13 -75 -4z m71 -61 c19 -18 19 -20 6 -45 -18 -32 -80
-19 -80 17 0 17 28 44 45 44 7 0 21 -7 29 -16z m-1500 -2087 c38 -27 -2 -95
-41 -71 -25 16 -29 55 -7 71 10 7 21 13 24 13 3 0 14 -6 24 -13z"/>
<path d="M9954 4681 c-30 -13 -64 -59 -64 -88 0 -36 25 -78 54 -91 l26 -12 0
-307 0 -308 -550 -550 -550 -550 0 -57 c0 -43 -4 -58 -14 -58 -22 0 -66 -58
-66 -86 0 -55 47 -104 101 -104 58 0 108 62 94 117 -8 32 -42 73 -62 73 -9 0
-13 16 -13 52 l0 53 550 550 550 550 0 309 0 309 37 32 c32 28 38 38 38 74 0
67 -71 117 -131 92z m64 -63 c30 -30 0 -75 -43 -64 -41 11 -29 76 15 76 9 0
21 -5 28 -12z m-1098 -2023 c7 -9 10 -25 6 -40 -6 -22 -11 -26 -39 -23 -25 2
-33 8 -35 26 -7 44 41 70 68 37z"/>
<path d="M10281 4677 c-28 -17 -50 -53 -51 -85 0 -33 26 -79 50 -87 19 -6 20
-15 20 -219 l0 -213 54 -52 55 -51 94 0 c78 0 97 -3 110 -18 15 -17 17 -73 17
-598 l0 -579 -625 -625 -625 -625 0 -336 0 -335 -28 -27 c-37 -35 -56 -34 -91
5 -24 27 -36 33 -71 33 -100 0 -136 -135 -49 -181 42 -21 75 -17 111 14 19 16
50 32 73 35 28 5 51 18 80 47 l40 40 3 343 3 343 624 624 625 625 0 600 0 599
-42 43 -42 43 -96 0 c-96 0 -96 0 -128 33 l-32 33 0 192 0 192 32 29 c63 56
32 155 -53 166 -19 3 -44 -1 -58 -8z m83 -69 c16 -26 -4 -53 -40 -53 -23 0
-30 5 -32 23 -2 13 -1 30 2 38 8 20 56 14 70 -8z m-1144 -3813 c7 -9 10 -25 6
-40 -6 -22 -11 -26 -39 -23 -25 2 -33 8 -35 26 -7 44 41 70 68 37z"/>
<path d="M13574 4680 c-32 -13 -54 -49 -54 -90 -1 -31 -10 -43 -90 -114 l-90
-79 0 -1056 0 -1056 -565 -565 -565 -565 0 -130 0 -131 -34 -12 c-118 -43 -84
-222 42 -222 117 0 159 140 63 211 l-31 23 0 125 0 126 560 560 560 560 0
1055 0 1055 73 66 c92 83 89 82 126 63 67 -33 141 11 141 83 0 45 -14 69 -50
88 -32 17 -54 18 -86 5z m76 -70 c24 -44 -38 -83 -70 -45 -10 12 -10 21 -2 40
14 31 56 34 72 5z"/>
<path d="M13905 4671 c-36 -15 -59 -50 -60 -92 -1 -33 -9 -47 -50 -89 l-49
-50 -111 0 -111 0 -47 -48 -47 -48 0 -1054 0 -1055 -210 -210 -210 -210 0
-269 0 -270 -32 -26 c-62 -52 -32 -144 47 -144 79 0 109 92 47 144 l-32 26 0
260 0 259 210 210 210 210 0 1055 0 1056 38 37 38 37 108 0 107 0 59 56 c57
54 60 55 82 40 43 -30 109 -13 134 35 44 85 -35 175 -121 140z m63 -60 c8 -5
12 -21 10 -37 -3 -32 -38 -45 -64 -24 -40 34 9 90 54 61z"/>
<path d="M15231 4666 c-30 -17 -50 -53 -51 -91 0 -25 -16 -47 -85 -115 l-85
-85 0 -455 0 -455 150 -150 150 -150 0 -193 0 -193 -35 -33 c-30 -29 -35 -40
-35 -78 0 -82 65 -132 141 -109 91 27 107 157 25 201 l-26 13 0 210 0 211
-155 156 -155 156 0 415 0 415 73 72 c72 71 73 72 105 61 75 -26 141 16 149
95 5 42 3 48 -30 81 -28 28 -43 35 -73 35 -22 -1 -50 -7 -63 -14z m103 -78
c17 -50 -42 -89 -78 -52 -19 19 -21 55 -4 72 7 7 26 12 43 10 22 -2 32 -10 39
-30z m44 -1884 c12 -8 22 -26 22 -39 0 -23 -32 -55 -57 -55 -19 0 -43 30 -43
55 0 20 32 55 50 55 3 0 16 -7 28 -16z"/>
<path d="M15563 4370 c-17 -10 -37 -28 -42 -39 -18 -33 -13 -96 9 -124 24 -30
78 -50 111 -42 21 5 65 -36 329 -300 l305 -305 1165 0 1165 0 81 -81 81 -80
-10 -38 c-8 -29 -6 -44 8 -74 42 -89 174 -89 212 0 21 51 10 95 -33 132 -39
35 -94 42 -130 17 -19 -14 -26 -10 -105 70 l-84 84 -1165 0 -1165 0 -300 300
-300 300 18 29 c34 57 13 126 -47 155 -44 21 -64 20 -103 -4z m87 -58 c47 -38
-5 -111 -56 -77 -28 18 -32 56 -8 79 20 21 37 20 64 -2z"/>
<path d="M14557 4329 c-15 -11 -32 -37 -38 -58 -28 -92 76 -174 161 -126 24
13 27 11 88 -48 l62 -61 0 -341 0 -340 95 -95 95 -95 0 -890 0 -889 -56 -57
c-54 -55 -57 -56 -83 -43 -34 18 -55 18 -95 -1 -86 -41 -87 -175 -1 -211 44
-18 59 -18 101 2 54 26 81 103 55 153 -8 14 2 30 55 82 l64 63 0 901 0 900
-95 95 -95 95 0 338 0 339 -71 74 c-62 64 -71 76 -65 100 9 36 -10 89 -41 114
-35 27 -102 27 -136 -1z m107 -58 c32 -35 -3 -89 -49 -77 -36 9 -50 41 -30 72
19 29 55 31 79 5z"/>
<path d="M12239 4021 c-48 -48 -30 -137 31 -156 20 -6 20 -18 20 -593 l0 -587
-342 -342 -343 -343 -140 0 -140 0 -177 -177 -178 -178 0 -120 0 -119 -240
-241 -240 -241 0 -90 0 -89 -209 -209 c-207 -207 -209 -209 -232 -192 -35 24
-93 21 -126 -8 -23 -20 -28 -32 -28 -71 0 -39 5 -51 28 -71 30 -26 83 -32 118
-14 23 13 49 61 49 92 0 17 60 83 220 243 l220 220 0 90 0 90 235 235 235 235
0 120 0 120 168 168 167 167 140 0 140 0 357 358 358 357 0 591 0 591 26 11
c14 7 32 28 40 48 42 100 -80 182 -157 105z m95 -37 c24 -23 20 -53 -9 -66
-19 -8 -28 -8 -40 2 -20 17 -19 57 3 69 23 14 28 14 46 -5z m-2323 -3684 c28
-16 25 -58 -6 -72 -19 -8 -28 -8 -40 2 -20 17 -19 57 3 69 21 13 20 13 43 1z"/>
<path d="M12921 4024 c-24 -20 -31 -34 -31 -61 0 -28 -9 -46 -40 -79 l-40 -44
0 -722 0 -723 -675 -675 -675 -675 0 -115 0 -115 -270 -270 c-242 -243 -270
-274 -270 -303 0 -20 -6 -35 -15 -39 -19 -7 -45 -55 -45 -83 0 -35 27 -76 59
-90 66 -27 133 18 135 90 1 35 -4 47 -32 71 -17 16 -32 37 -32 46 0 10 118
136 265 283 l265 265 0 115 0 115 680 680 680 680 0 726 c0 725 0 726 21 745
16 15 33 18 73 16 49 -3 55 -1 79 28 37 44 36 92 -2 131 -39 38 -87 39 -130 3z
m91 -41 c23 -21 23 -36 -1 -57 -40 -36 -91 15 -55 55 21 23 32 24 56 2z
m-2018 -3845 c16 -26 -4 -53 -40 -53 -23 0 -30 5 -32 23 -2 13 -1 30 2 38 8
20 56 14 70 -8z"/>
<path d="M15244 3996 c-43 -19 -64 -53 -64 -101 0 -47 19 -79 61 -100 l29 -16
0 -132 0 -132 440 -440 440 -440 0 -405 0 -405 -202 -202 c-159 -159 -206
-200 -218 -193 -20 13 -76 12 -103 -1 -38 -19 -57 -51 -57 -97 0 -37 6 -50 35
-79 33 -33 39 -35 82 -30 74 8 117 71 96 140 -10 32 -9 33 198 243 l209 210 0
414 0 414 -445 446 -445 445 0 123 0 122 34 14 c86 36 86 166 1 202 -42 17
-51 17 -91 0z m74 -62 c31 -22 26 -63 -10 -83 -24 -14 -28 -14 -47 3 -27 25
-27 61 1 80 28 20 28 20 56 0z m396 -2570 c21 -20 20 -43 -1 -66 -32 -36 -83
-17 -83 32 0 14 5 31 12 38 17 17 54 15 72 -4z"/>
<path d="M16990 3469 c-67 -27 -94 -91 -65 -152 34 -72 129 -86 179 -26 14 17
26 35 26 40 0 5 111 9 268 9 l267 0 243 -243 c218 -218 242 -245 242 -275 0
-48 26 -91 65 -108 44 -18 59 -18 101 2 91 43 83 170 -13 211 -34 14 -58 12
-101 -10 -21 -10 -39 5 -265 231 l-242 242 -281 0 -281 0 -11 24 c-21 46 -87
73 -132 55z m68 -71 c21 -21 15 -67 -12 -79 -45 -21 -90 26 -66 71 12 23 58
28 78 8z"/>
<path d="M16284 3090 c-38 -15 -74 -68 -74 -110 0 -50 46 -107 94 -115 38 -8
103 16 112 40 5 13 58 15 438 15 l431 0 143 -143 142 -142 0 -530 0 -529 362
-363 363 -363 1394 0 1395 0 34 -32 c28 -28 40 -33 82 -33 43 0 54 5 82 33 85
84 0 223 -116 191 -19 -5 -44 -21 -54 -34 l-20 -25 -1373 0 -1374 0 -332 333
-333 332 -2 527 -3 528 -175 175 -175 175 -446 0 -446 0 -11 26 c-19 41 -90
64 -138 44z"/>
<path d="M14244 2141 c-78 -34 -85 -165 -10 -199 25 -11 26 -15 26 -94 l0 -83
-641 -641 -641 -641 -36 13 c-51 17 -87 8 -122 -33 -35 -40 -39 -83 -11 -129
56 -91 201 -52 201 54 0 36 26 63 660 697 l660 660 0 91 0 92 36 36 c34 34 36
40 31 82 -6 59 -39 94 -93 100 -21 2 -49 0 -60 -5z m80 -67 c19 -18 20 -38 6
-65 -12 -22 -59 -26 -78 -7 -28 28 -2 88 38 88 10 0 26 -7 34 -16z m-1381
-1655 c16 -26 0 -68 -29 -75 -46 -12 -85 51 -52 84 17 17 68 11 81 -9z"/>
</g>
</svg>
